{
.formatVersion = 3;
DisplayStrings = (
lk
);
axes = (
{
name = Weight;
tag = wght;
}
);
classes = (
{

glyphs = (
{
glyphname = .notdef;
layers = (
{
layerId = "7F7FF3B5-2624-4A00-8D8B-13060CA2B611";
shapes = (
{
closed = 1;
nodes = (
(205,0,l),
(205,1466,l),
(1024,1466,l),
(1024,0,l)
);
},
{
closed = 1;
nodes = (
(307,102,l),
(922,102,l),
(922,1364,l),
(307,1364,l)
);
}
);
width = 1229;
}
);
},
{
glyphname = carriagereturn;
layers = (
{
layerId = "2FE1F5E8-0BE1-472C-82D2-406E458C4580";
shapes = (
{
closed = 1;
nodes = (
(729,117,l),
(184,647,l),
(729,1176,l)
);
},
{
closed = 1;
nodes = (
(550,497,l),
(550,796,l),
(1875,796,l),
(1875,497,l)
);
},
{
closed = 1;
nodes = (
(1586,497,l),
(1586,1478,l),
(1881,1478,l),
(1881,497,l)
);
}
);
width = 2066;
},
{
layerId = "7F7FF3B5-2624-4A00-8D8B-13060CA2B611";
shapes = (
{
closed = 1;
nodes = (
(610,218,l),
(181,647,l),
(610,1076,l)
);
},
{
closed = 1;
nodes = (
(479,570,l),
(479,725,l),
(1777,725,l),
(1777,570,l)
);
},
{
closed = 1;
nodes = (
(1623,570,l),
(1623,1478,l),
(1781,1478,l),
(1781,570,l)
);
}
);
width = 1964;
}
);
unicode = 8629;
},
{
glyphname = exclam;
layers = (
{
layerId = "7F7FF3B5-2624-4A00-8D8B-13060CA2B611";
shapes = (
{
closed = 1;
nodes = (
(174,397,l),
(162,1478,l),
(346,1478,l),
(333,397,l)
);
},
{
closed = 1;
nodes = (
(202,-17,o),
(129,56,o),
(129,107,qs),
(129,160,o),
(202,232,o),
(254,232,qs),
(306,232,o),
(377,160,o),
(377,107,qs),
(377,56,o),
(306,-17,o),
(254,-17,qs)
);
}
);
width = 507;
},
{
layerId = "2FE1F5E8-0BE1-472C-82D2-406E458C4580";
shapes = (
{
closed = 1;
nodes = (
(102,468,l),
(64,1478,l),
(484,1478,l),
(446,468,l)
);
},
{
closed = 1;
nodes = (
(189,-19,o),
(67,103,o),
(67,188,qs),
(67,273,o),
(189,394,o),
(273,394,qs),
(359,394,o),
(481,273,o),
(481,188,qs),
(481,103,o),
(359,-19,o),
(273,-19,qs)
);
}
);
width = 548;
}
);
unicode = 33;
},
{
glyphname = numbersign;
layers = (
{
layerId = "7F7FF3B5-2624-4A00-8D8B-13060CA2B611";
shapes = (
{
closed = 1;
nodes = (
(730,0,l),
(973,1478,l),
(1117,1478,l),
(875,0,l)
);
},
{
closed = 1;
nodes = (
(58,412,l),
(81,553,l),
(1184,553,l),
(1161,412,l)
);
},
{
closed = 1;
nodes = (
(212,0,l),
(455,1478,l),
(596,1478,l),
(355,0,l)
);
},
{
closed = 1;
nodes = (
(145,923,l),
(169,1067,l),
(1270,1067,l),
(1248,923,l)
);
}
);
width = 1328;
},
{
layerId = "2FE1F5E8-0BE1-472C-82D2-406E458C4580";
shapes = (
{
closed = 1;
nodes = (
(651,0,l),
(894,1478,l),
(1183,1478,l),
(939,0,l)
);
},
{
closed = 1;
nodes = (
(-4,337,l),
(45,627,l),
(1235,627,l),
(1185,337,l)
);
},
{
closed = 1;
nodes = (
(131,0,l),
(373,1478,l),
(663,1478,l),
(421,0,l)
);
},
{
closed = 1;
nodes = (
(80,852,l),
(129,1141,l),
(1318,1141,l),
(1268,852,l)
);
}
);
width = 1315;
}
);
unicode = 35;
},
{
glyphname = dollar;
layers = (
{
layerId = "2FE1F5E8-0BE1-472C-82D2-406E458C4580";
shapes = (
{
closed = 1;
nodes = (
(603,-216,l),
(603,1695,l),
(816,1695,l),
(816,-216,l)
);
},
{
closed = 1;
nodes = (
(493,-24,o),
(211,95,o),
(64,327,o),
(64,491,q),
(454,491,l),
(457,433,o),
(520,348,o),
(630,302,o),
(704,302,qs),
(770,302,o),
(866,334,o),
(921,393,o),
(921,433,qs),
(921,467,o),
(868,522,o),
(762,561,o),
(679,576,qs),
(531,604,ls),
(317,645,o),
(91,865,o),
(91,1030,qs),
(91,1171,o),
(244,1384,o),
(516,1503,o),
(696,1503,qs),
(880,1503,o),
(1147,1385,o),
(1294,1166,o),
(1298,1010,q),
(919,1010,l),
(911,1087,o),
(796,1176,o),
(704,1176,qs),
(646,1176,o),
(557,1145,o),
(506,1087,o),
(506,1050,qs),
(506,1014,o),
(551,965,o),
(651,928,o),
(727,914,qs),
(845,891,l),
(972,868,o),
(1156,795,o),
(1274,690,o),
(1328,551,o),
(1328,462,qs),
(1328,308,o),
(1181,90,o),
(899,-24,o),
(699,-24,qs)
);
}
);
width = 1392;
},
{
layerId = "7F7FF3B5-2624-4A00-8D8B-13060CA2B611";
shapes = (
{
closed = 1;
nodes = (
(571,-221,l),
(571,1699,l),
(730,1699,l),
(730,-221,l)
);
},
{
closed = 1;
nodes = (
(494,-24,o),
(243,98,o),
(106,323,o),
(106,477,q),
(289,477,l),
(289,372,o),
(377,219,o),
(546,139,o),
(664,139,qs),
(772,139,o),
(933,203,o),
(1022,320,o),
(1022,399,qs),
(1022,461,o),
(964,551,o),
(836,621,o),
(728,646,q),
(563,687,ls),
(337,742,o),
(136,928,o),
(136,1079,qs),
(136,1208,o),
(262,1397,o),
(493,1503,o),
(647,1503,qs),
(800,1503,o),
(1027,1390,o),
(1154,1184,o),
(1158,1042,q),
(982,1042,l),
(974,1181,o),
(791,1339,o),
(640,1339,qs),
(545,1339,o),
(397,1276,o),
(312,1162,o),
(312,1088,qs),
(312,1031,o),
(372,946,o),
(502,880,o),
(609,854,qs),
(776,812,ls),
(885,785,o),
(1045,710,o),
(1148,611,o),
(1200,484,o),
(1200,406,qs),
(1200,279,o),
(1066,85,o),
(826,-24,o),
(664,-24,qs)
);
}
);
width = 1294;
}
);
unicode = 36;
},
{
glyphname = percent;
layers = (
{
layerId = "2FE1F5E8-0BE1-472C-82D2-406E458C4580";
shapes = (
{
closed = 1;
nodes = (
(390,697,o),
(220,791,o),
(124,965,o),
(124,1084,qs),
(124,1114,ls),
(124,1234,o),
(220,1407,o),
(390,1503,o),
(497,1503,qs),
(604,1503,o),
(773,1407,o),
(871,1234,o),
(871,1114,qs),
(871,1084,ls),
(871,965,o),
(773,791,o),
(604,697,o),
(497,697,qs)
);
},
{
closed = 1;
nodes = (
(547,923,o),
(610,999,o),
(610,1084,qs),
(610,1114,ls),
(610,1198,o),
(547,1278,o),
(497,1278,qs),
(446,1278,o),
(384,1198,o),
(384,1114,qs),
(384,1084,ls),
(384,999,o),
(446,923,o),
(497,923,qs)
);
},
{
closed = 1;
nodes = (
(1463,-24,o),
(1295,70,o),
(1196,244,o),
(1196,362,qs),
(1196,393,ls),
(1196,512,o),
(1295,687,o),
(1463,781,o),
(1570,781,qs),
(1678,781,o),
(1847,687,o),
(1945,512,o),
(1945,393,qs),
(1945,362,ls),
(1945,244,o),
(1847,70,o),
(1678,-24,o),
(1570,-24,qs)
);
},
{
closed = 1;
nodes = (
(1621,203,o),
(1682,279,o),
(1682,362,qs),
(1682,393,ls),
(1682,479,o),
(1621,558,o),
(1570,558,qs),
(1520,558,o),
(1458,479,o),
(1458,393,qs),
(1458,362,ls),
(1458,279,o),
(1520,203,o),
(1570,203,qs)
);
},
{
closed = 1;
nodes = (
(399,0,l),
(1414,1478,l),
(1669,1478,l),
(653,0,l)
);
}
);
width = 2069;
},
{
layerId = "7F7FF3B5-2624-4A00-8D8B-13060CA2B611";
shapes = (
{
closed = 1;
nodes = (
(229,798,o),
(91,886,o),
(16,1038,o),
(16,1136,qs),
(16,1165,ls),
(16,1261,o),
(91,1414,o),
(229,1503,o),
(322,1503,qs),
(416,1503,o),
(552,1414,o),
(628,1261,o),
(628,1165,qs),
(628,1136,ls),
(628,1038,o),
(552,886,o),
(416,798,o),
(322,798,qs)
);
},
{
closed = 1;
nodes = (
(394,927,o),
(477,1037,o),
(477,1136,qs),
(477,1166,ls),
(477,1262,o),
(394,1373,o),
(322,1373,qs),
(250,1373,o),
(165,1262,o),
(165,1166,qs),
(165,1136,ls),
(165,1037,o),
(250,927,o),
(322,927,qs)
);
},
{
closed = 1;
nodes = (
(1068,-24,o),
(930,65,o),
(855,217,o),
(855,313,qs),
(855,343,ls),
(855,440,o),
(930,592,o),
(1068,680,o),
(1162,680,qs),
(1256,680,o),
(1392,592,o),
(1467,440,o),
(1467,343,qs),
(1467,313,ls),
(1467,217,o),
(1392,65,o),
(1256,-24,o),
(1162,-24,qs)
);
},
{
closed = 1;
nodes = (
(1234,105,o),
(1317,216,o),
(1317,313,qs),
(1317,343,ls),
(1317,441,o),
(1234,551,o),
(1162,551,qs),
(1089,551,o),
(1005,441,o),
(1005,343,qs),
(1005,313,ls),
(1005,216,o),
(1089,105,o),
(1162,105,qs)
);
},
{
closed = 1;
nodes = (
(144,0,l),
(1159,1478,l),
(1333,1478,l),
(316,0,l)
);
}
);
width = 1483;
}
);
unicode = 37;
},
{
glyphname = ampersand;
layers = (
{
layerId = "2FE1F5E8-0BE1-472C-82D2-406E458C4580";
shapes = (
{
closed = 1;
nodes = (
(399,-24,o),
(169,89,o),
(45,279,o),
(45,393,qs),
(45,477,o),
(107,607,o),
(222,713,o),
(300,762,qs),
(635,970,ls),
(669,991,o),
(707,1036,o),
(722,1079,o),
(722,1097,qs),
(722,1132,o),
(670,1187,o),
(615,1187,qs),
(581,1187,o),
(532,1162,o),
(506,1117,o),
(506,1086,qs),
(506,1043,o),
(552,951,o),
(637,849,o),
(692,789,qs),
(1409,0,l),
(1010,0,l),
(412,635,ls),
(366,683,o),
(260,819,o),
(183,990,o),
(183,1092,qs),
(183,1205,o),
(291,1390,o),
(485,1500,o),
(615,1500,qs),
(740,1500,o),
(919,1398,o),
(1016,1229,o),
(1016,1126,qs),
(1016,1057,o),
(970,930,o),
(883,821,o),
(819,776,qs),
(513,560,l),
(480,534,o),
(426,471,o),
(426,421,qs),
(426,379,o),
(466,320,o),
(538,288,o),
(586,288,qs),
(660,288,o),
(809,359,o),
(929,489,o),
(1005,666,o),
(1005,770,q),
(1320,770,l),
(1320,642,o),
(1265,403,o),
(1148,206,o),
(1052,139,q),
(942,87,l),
(854,29,o),
(651,-24,o),
(558,-24,qs)
);
}
);
width = 1382;
},
{
layerId = "7F7FF3B5-2624-4A00-8D8B-13060CA2B611";
shapes = (
{
closed = 1;
nodes = (
(387,-20,o),
(176,85,o),
(57,270,o),
(57,393,qs),
(57,467,o),
(111,591,o),
(246,725,o),
(366,814,qs),
(599,988,ls),
(639,1017,o),
(691,1079,o),
(717,1146,o),
(717,1177,qs),
(717,1247,o),
(614,1345,o),
(534,1345,qs),
(481,1345,o),
(395,1298,o),
(346,1213,o),
(346,1156,qs),
(346,1115,o),
(379,1034,o),
(465,921,o),
(543,828,q),
(1221,0,l),
(1015,0,l),
(455,675,l),
(343,812,o),
(220,978,o),
(172,1097,o),
(172,1159,qs),
(172,1260,o),
(264,1410,o),
(427,1493,o),
(534,1493,qs),
(640,1493,o),
(801,1414,o),
(892,1275,o),
(892,1183,qs),
(892,1122,o),
(849,1009,o),
(763,905,o),
(695,856,q),
(399,635,ls),
(310,569,o),
(231,456,o),
(231,392,qs),
(231,322,o),
(311,203,o),
(448,129,o),
(528,129,qs),
(616,129,o),
(773,214,o),
(898,359,o),
(969,545,o),
(969,647,q),
(1134,647,l),
(1134,552,o),
(1093,382,o),
(1014,240,o),
(956,183,q),
(923,139,l),
(857,65,o),
(644,-20,o),
(526,-20,qs)
);
}
);
width = 1235;
}
);
unicode = 38;
},
{
glyphname = quotesingle;
layers = (
{
layerId = "7F7FF3B5-2624-4A00-8D8B-13060CA2B611";
shapes = (
{
closed = 1;
nodes = (
(154,977,l),
(134,1478,l),
(302,1478,l),
(282,977,l)
);
}
);
width = 437;
},
{
layerId = "2FE1F5E8-0BE1-472C-82D2-406E458C4580";
shapes = (
{
closed = 1;
nodes = (
(150,874,l),
(114,1478,l),
(466,1478,l),
(433,874,l)
);
}
);
width = 581;
}
);
leftKerningGroup = quotedbl2;
rightKerningGroup = quotedbl;
unicode = 39;
},
{
glyphname = parenleft;
layers = (
{
layerId = "7F7FF3B5-2624-4A00-8D8B-13060CA2B611";
shapes = (
{
closed = 1;
nodes = (
(140,756,o),
(202,1115,o),
(310,1437,o),
(380,1553,q),
(545,1553,l),
(472,1409,o),
(367,1077,o),
(311,740,o),
(311,588,qs),
(311,449,o),
(361,170,o),
(465,-128,o),
(545,-292,q),
(380,-292,l),
(263,-91,o),
(140,357,o),
(140,588,qs)
);
}
);
width = 583;
},
{
layerId = "2FE1F5E8-0BE1-472C-82D2-406E458C4580";
shapes = (
{
closed = 1;
nodes = (
(95,767,o),
(152,1127,o),
(254,1445,o),
(320,1553,q),
(699,1553,l),
(643,1417,o),
(551,1097,o),
(497,755,o),
(497,588,qs),
(497,441,o),
(544,166,o),
(635,-124,o),
(699,-292,q),
(320,-292,l),
(210,-105,o),
(95,343,o),
(95,588,qs)
);
}
);
width = 730;
}
);
unicode = 40;
},
{
glyphname = parenright;
layers = (
{
layerId = "7F7FF3B5-2624-4A00-8D8B-13060CA2B611";
shapes = (
{
closed = 1;
nodes = (
(38,-292,l),
(119,-128,o),
(222,170,o),
(273,449,o),
(273,588,qs),
(273,740,o),
(217,1077,o),
(111,1409,o),
(38,1553,q),
(204,1553,l),
(274,1437,o),
(383,1115,o),
(443,756,o),
(443,588,qs),
(443,357,o),
(322,-91,o),
(204,-292,q)
);
}
);
width = 583;
},
{
layerId = "2FE1F5E8-0BE1-472C-82D2-406E458C4580";
shapes = (
{
closed = 1;
nodes = (
(32,-292,l),
(96,-124,o),
(186,166,o),
(234,441,o),
(234,588,qs),
(234,755,o),
(180,1097,o),
(88,1417,o),
(32,1553,q),
(412,1553,l),
(479,1445,o),
(579,1127,o),
(635,766,o),
(635,588,qs),
(635,343,o),
(522,-105,o),
(412,-292,q)
);
}
);
width = 730;
}
);
unicode = 41;
},
{
glyphname = asterisk;
layers = (
{
layerId = "7F7FF3B5-2624-4A00-8D8B-13060CA2B611";
shapes = (
{
closed = 1;
nodes = (
(383,647,l),
(396,965,l),
(127,794,l),
(57,916,l),
(339,1062,l),
(57,1209,l),
(127,1331,l),
(396,1161,l),
(383,1478,l),
(522,1478,l),
(510,1161,l),
(778,1331,l),
(847,1209,l),
(566,1062,l),
(847,916,l),
(778,794,l),
(510,965,l),
(522,647,l)
);
}
);
width = 905;
},
{
layerId = "2FE1F5E8-0BE1-472C-82D2-406E458C4580";
shapes = (
{
closed = 1;
nodes = (
(486,647,l),
(510,901,l),
(300,754,l),
(183,954,l),
(415,1062,l),
(183,1169,l),
(300,1371,l),
(510,1225,l),
(486,1478,l),
(717,1478,l),
(695,1225,l),
(905,1371,l),
(1020,1169,l),
(790,1062,l),
(1020,954,l),
(905,754,l),
(695,901,l),
(717,647,l)
);
}
);
width = 1205;
}
);
unicode = 42;
},
{
glyphname = plus;
layers = (
{
layerId = "7F7FF3B5-2624-4A00-8D8B-13060CA2B611";
shapes = (
{
closed = 1;
nodes = (
(475,95,l),
(475,1048,l),
(636,1048,l),
(636,95,l)
);
},
{
closed = 1;
nodes = (
(79,494,l),
(79,649,l),
(1032,649,l),
(1032,494,l)
);
}
);
width = 1111;
},
{
layerId = "2FE1F5E8-0BE1-472C-82D2-406E458C4580";
shapes = (
{
closed = 1;
nodes = (
(527,36,l),
(527,1106,l),
(850,1106,l),
(850,36,l)
);
},
{
closed = 1;
nodes = (
(154,417,l),
(154,725,l),
(1222,725,l),
(1222,417,l)
);
}
);
width = 1377;
}
);
unicode = 43;
},
{
glyphname = hyphen;
layers = (
{
layerId = "7F7FF3B5-2624-4A00-8D8B-13060CA2B611";
shapes = (
{
closed = 1;
nodes = (
(746,683,l),
(746,524,l),
(99,524,l),
(99,683,l)
);
}
);
width = 844;
},
{
layerId = "2FE1F5E8-0BE1-472C-82D2-406E458C4580";
shapes = (
{
closed = 1;
nodes = (
(813,714,l),
(813,415,l),
(120,415,l),
(120,714,l)
);
}
);
width = 932;
}
);
leftKerningGroup = hyphen2;
rightKerningGroup = hyphen;
unicode = 45;
},
{
glyphname = period;
layers = (
{
layerId = "7F7FF3B5-2624-4A00-8D8B-13060CA2B611";
shapes = (
{
closed = 1;
nodes = (
(161,-17,o),
(88,56,o),
(88,107,qs),
(88,160,o),
(161,232,o),
(213,232,qs),
(265,232,o),
(336,160,o),
(336,107,qs),
(336,56,o),
(265,-17,o),
(213,-17,qs)
);
}
);
width = 425;
},
{
layerId = "2FE1F5E8-0BE1-472C-82D2-406E458C4580";
shapes = (
{
closed = 1;
nodes = (
(184,-19,o),
(64,103,o),
(64,188,qs),
(64,273,o),
(184,394,o),
(270,394,qs),
(355,394,o),
(477,273,o),
(477,188,qs),
(477,103,o),
(355,-19,o),
(270,-19,qs)
);
}
);
width = 541;
}
);
leftKerningGroup = comma2;
rightKerningGroup = comma;
unicode = 46;
},
{
glyphname = slash;
layers = (
{
layerId = "2FE1F5E8-0BE1-472C-82D2-406E458C4580";
shapes = (
{
closed = 1;
nodes = (
(810,1548,l),
(333,-223,l),
(-4,-223,l),
(471,1548,l)
);
}
);
width = 806;
},
{
layerId = "7F7FF3B5-2624-4A00-8D8B-13060CA2B611";
shapes = (
{
closed = 1;
nodes = (
(609,1548,l),
(133,-223,l),
(-25,-223,l),
(452,1548,l)
);
}
);
width = 584;
}
);
unicode = 47;
},
{
glyphname = zero;
layers = (
{
layerId = "7F7FF3B5-2624-4A00-8D8B-13060CA2B611";
shapes = (
{
closed = 1;
nodes = (
(449,-24,o),
(211,164,o),
(80,505,o),
(80,739,qs),
(80,972,o),
(211,1316,o),
(449,1503,o),
(613,1503,qs),
(777,1503,o),
(1018,1316,o),
(1147,972,o),
(1147,739,qs),
(1147,505,o),
(1018,164,o),
(777,-24,o),
(613,-24,qs)
);
},
{
closed = 1;
nodes = (
(727,134,o),
(889,281,o),
(978,551,o),
(978,739,qs),
(978,927,o),
(889,1197,o),
(727,1344,o),
(613,1344,qs),
(501,1344,o),
(336,1197,o),
(248,927,o),
(248,739,qs),
(248,551,o),
(336,281,o),
(501,134,o),
(613,134,qs)
);
}
);
width = 1226;
},
{
layerId = "2FE1F5E8-0BE1-472C-82D2-406E458C4580";
shapes = (
{
closed = 1;
nodes = (
(488,-24,o),
(195,161,o),
(40,502,o),
(40,739,qs),
(40,975,o),
(195,1318,o),
(488,1503,o),
(694,1503,qs),
(899,1503,o),
(1190,1318,o),
(1345,975,o),
(1345,739,qs),
(1345,502,o),
(1190,160,o),
(899,-24,o),
(694,-24,qs)
);
},
{
closed = 1;
nodes = (
(775,293,o),
(894,401,o),
(957,601,o),
(957,739,qs),
(957,878,o),
(894,1077,o),
(775,1185,o),
(692,1185,qs),
(611,1185,o),
(491,1077,o),
(428,878,o),
(428,739,qs),
(428,601,o),
(491,401,o),
(611,293,o),
(692,293,qs)
);
}
);
width = 1385;
}
);
unicode = 48;
},
{
glyphname = one;
layers = (
{
layerId = "2FE1F5E8-0BE1-472C-82D2-406E458C4580";
shapes = (
{
closed = 1;
nodes = (
(362,0,l),
(362,966,l),
(381,940,l),
(329,940,o),
(223,940,o),
(117,940,o),
(64,940,q),
(64,1234,l),
(145,1234,ls),
(219,1234,o),
(333,1284,o),
(402,1391,o),
(408,1476,q),
(759,1476,l),
(759,0,l)
);
}
);
width = 839;
},
{
layerId = "7F7FF3B5-2624-4A00-8D8B-13060CA2B611";
shapes = (
{
closed = 1;
nodes = (
(370,0,l),
(370,1131,l),
(392,1109,l),
(348,1109,o),
(266,1109,o),
(158,1109,o),
(73,1109,q),
(73,1258,l),
(99,1258,ls),
(190,1258,o),
(313,1305,o),
(382,1403,o),
(392,1478,q),
(544,1478,l),
(544,0,l)
);
}
);
width = 730;
}
);
unicode = 49;
},
{
glyphname = two;
layers = (
{
layerId = "7F7FF3B5-2624-4A00-8D8B-13060CA2B611";
shapes = (
{
closed = 1;
nodes = (
(87,0,l),
(87,150,l),
(613,631,ls),
(707,717,o),
(825,847,o),
(880,972,o),
(880,1048,qs),
(880,1139,o),
(807,1273,o),
(672,1344,o),
(578,1344,qs),
(476,1344,o),
(335,1259,o),
(259,1106,o),
(259,1000,q),
(93,1000,l),
(93,1148,o),
(213,1374,o),
(431,1503,o),
(577,1503,qs),
(716,1503,o),
(929,1388,o),
(1049,1187,o),
(1049,1055,qs),
(1049,960,o),
(980,792,o),
(837,623,o),
(729,524,q),
(328,161,l),
(328,159,l),
(1058,159,l),
(1058,0,l)
);
}
);
width = 1119;
},
{
layerId = "2FE1F5E8-0BE1-472C-82D2-406E458C4580";
shapes = (
{
closed = 1;
nodes = (
(75,0,l),
(75,288,l),
(631,736,l),
(671,770,o),
(761,846,o),
(822,945,o),
(822,1008,qs),
(822,1061,o),
(777,1140,o),
(695,1185,o),
(639,1185,qs),
(580,1185,o),
(488,1129,o),
(438,1022,o),
(438,945,q),
(60,945,l),
(60,1117,o),
(201,1367,o),
(461,1503,o),
(640,1503,qs),
(803,1503,o),
(1059,1389,o),
(1206,1177,o),
(1206,1031,qs),
(1206,921,o),
(1121,749,o),
(971,596,o),
(874,516,q),
(634,322,l),
(634,320,l),
(1210,320,l),
(1210,0,l)
);
}
);
width = 1281;
}
);
unicode = 50;
},
{
glyphname = three;
layers = (
{
layerId = "2FE1F5E8-0BE1-472C-82D2-406E458C4580";
shapes = (
{
closed = 1;
nodes = (
(438,-24,o),
(174,127,o),
(49,371,o),
(49,508,q),
(437,508,l),
(437,439,o),
(487,337,o),
(581,284,o),
(647,284,qs),
(707,284,o),
(797,326,o),
(847,400,o),
(847,447,qs),
(847,498,o),
(792,571,o),
(690,611,o),
(621,611,qs),
(479,611,l),
(479,888,l),
(621,888,ls),
(688,888,o),
(781,926,o),
(833,994,o),
(833,1042,qs),
(833,1089,o),
(786,1163,o),
(706,1205,o),
(653,1205,qs),
(599,1205,o),
(511,1159,o),
(462,1077,o),
(462,1024,q),
(78,1024,l),
(78,1160,o),
(214,1376,o),
(471,1503,o),
(653,1503,qs),
(817,1503,o),
(1068,1397,o),
(1211,1213,o),
(1211,1092,qs),
(1211,957,o),
(1041,791,o),
(916,776,q),
(916,773,l),
(1027,762,o),
(1177,659,o),
(1256,505,o),
(1256,417,qs),
(1256,291,o),
(1104,91,o),
(831,-24,o),
(649,-24,qs)
);
}
);
width = 1296;
},
{
layerId = "7F7FF3B5-2624-4A00-8D8B-13060CA2B611";
shapes = (
{
closed = 1;
nodes = (
(437,-24,o),
(202,101,o),
(69,321,o),
(69,464,q),
(250,464,l),
(250,360,o),
(329,212,o),
(481,133,o),
(585,133,qs),
(686,133,o),
(841,203,o),
(927,331,o),
(927,417,qs),
(927,497,o),
(835,613,o),
(671,679,o),
(562,679,qs),
(443,679,l),
(443,838,l),
(562,838,ls),
(657,838,o),
(801,898,o),
(882,1006,o),
(882,1077,qs),
(882,1161,o),
(805,1281,o),
(670,1345,o),
(577,1345,qs),
(484,1345,o),
(346,1275,o),
(274,1141,o),
(274,1048,q),
(101,1048,l),
(101,1182,o),
(223,1387,o),
(439,1503,o),
(578,1503,qs),
(714,1503,o),
(931,1394,o),
(1056,1209,o),
(1056,1087,qs),
(1056,975,o),
(913,801,o),
(790,764,q),
(790,761,l),
(884,745,o),
(1024,648,o),
(1101,504,o),
(1101,417,qs),
(1101,288,o),
(968,88,o),
(736,-24,o),
(589,-24,qs)
);
}
);
width = 1161;
}
);
unicode = 51;
},
{
glyphname = four;
layers = (
{
layerId = "7F7FF3B5-2624-4A00-8D8B-13060CA2B611";
shapes = (
{
closed = 1;
nodes = (
(53,357,l),
(53,504,l),
(761,1478,l),
(870,1478,l),
(870,1278,l),
(806,1278,l),
(255,519,l),
(255,516,l),
(1205,516,l),
(1205,357,l)
);
},
{
closed = 1;
nodes = (
(808,0,l),
(808,401,l),
(808,470,l),
(808,1478,l),
(979,1478,l),
(979,0,l)
);
}
);
width = 1258;
},
{
layerId = "2FE1F5E8-0BE1-472C-82D2-406E458C4580";
shapes = (
{
closed = 1;
nodes = (
(64,286,l),
(64,597,l),
(666,1478,l),
(927,1478,l),
(927,1109,l),
(785,1109,l),
(436,591,l),
(436,590,l),
(1338,590,l),
(1338,286,l)
);
},
{
closed = 1;
nodes = (
(786,0,l),
(786,381,l),
(786,519,l),
(786,1478,l),
(1173,1478,l),
(1173,0,l)
);
}
);
width = 1404;
}
);
unicode = 52;
},
{
glyphname = five;
layers = (
{
layerId = "7F7FF3B5-2624-4A00-8D8B-13060CA2B611";
shapes = (
{
closed = 1;
nodes = (
(435,-20,o),
(209,98,o),
(73,301,o),
(67,428,q),
(246,428,l),
(254,345,o),
(342,214,o),
(486,139,o),
(577,139,qs),
(673,139,o),
(817,228,o),
(898,383,o),
(898,484,qs),
(898,585,o),
(820,740,o),
(682,828,o),
(589,828,qs),
(467,828,o),
(292,730,o),
(258,635,q),
(86,635,l),
(136,1478,l),
(989,1478,l),
(989,1320,l),
(298,1320,l),
(262,840,l),
(264,840,l),
(334,917,o),
(507,988,o),
(611,988,qs),
(713,988,o),
(882,916,o),
(1005,779,o),
(1071,596,o),
(1071,486,qs),
(1071,337,o),
(946,109,o),
(725,-20,o),
(577,-20,qs)
);
}
);
width = 1145;
},
{
layerId = "2FE1F5E8-0BE1-472C-82D2-406E458C4580";
shapes = (
{
closed = 1;
nodes = (
(457,-24,o),
(199,96,o),
(49,321,o),
(40,477,q),
(422,477,l),
(422,420,o),
(477,332,o),
(571,280,o),
(631,280,qs),
(690,280,o),
(781,334,o),
(834,433,o),
(834,497,qs),
(834,561,o),
(780,662,o),
(690,719,o),
(631,719,qs),
(553,719,o),
(447,651,o),
(432,595,q),
(62,595,l),
(104,1478,l),
(1129,1478,l),
(1129,1156,l),
(464,1156,l),
(445,919,l),
(447,919,l),
(492,963,o),
(629,1009,o),
(710,1009,qs),
(808,1009,o),
(991,932,o),
(1137,796,o),
(1220,613,o),
(1220,508,qs),
(1220,353,o),
(1074,113,o),
(807,-24,o),
(627,-24,qs)
);
}
);
width = 1260;
}
);
unicode = 53;
},
{
glyphname = six;
layers = (
{
layerId = "7F7FF3B5-2624-4A00-8D8B-13060CA2B611";
shapes = (
{
closed = 1;
nodes = (
(483,-24,o),
(293,69,o),
(161,249,o),
(93,509,o),
(93,677,qs),
(93,863,o),
(157,1167,o),
(287,1385,o),
(492,1503,o),
(630,1503,qs),
(760,1503,o),
(955,1405,o),
(1075,1227,o),
(1089,1109,q),
(914,1109,l),
(893,1216,o),
(753,1344,o),
(642,1344,qs),
(514,1344,o),
(346,1196,o),
(263,940,o),
(263,774,q),
(265,774,l),
(299,832,o),
(413,917,o),
(557,963,o),
(636,963,qs),
(770,963,o),
(980,835,o),
(1100,613,o),
(1100,471,qs),
(1100,327,o),
(975,103,o),
(753,-24,o),
(606,-24,qs)
);
},
{
closed = 1;
nodes = (
(696,134,o),
(843,225,o),
(929,379,o),
(929,471,qs),
(929,566,o),
(845,715,o),
(702,803,o),
(613,803,qs),
(544,803,o),
(427,752,o),
(337,660,o),
(286,541,o),
(286,470,qs),
(286,378,o),
(373,225,o),
(518,134,o),
(606,134,qs)
);
}
);
width = 1179;
},
{
layerId = "2FE1F5E8-0BE1-472C-82D2-406E458C4580";
shapes = (
{
closed = 1;
nodes = (
(529,-24,o),
(292,76,o),
(126,269,o),
(40,546,o),
(40,722,qs),
(40,902,o),
(127,1190,o),
(293,1394,o),
(531,1503,o),
(683,1503,qs),
(846,1503,o),
(1094,1381,o),
(1240,1175,o),
(1253,1048,q),
(874,1048,l),
(860,1118,o),
(752,1200,o),
(668,1200,qs),
(581,1200,o),
(469,1111,o),
(415,947,o),
(415,832,q),
(417,832,l),
(456,887,o),
(554,958,o),
(679,992,o),
(752,992,qs),
(903,992,o),
(1138,863,o),
(1273,639,o),
(1273,494,qs),
(1273,339,o),
(1120,106,o),
(854,-24,o),
(680,-24,qs)
);
},
{
closed = 1;
nodes = (
(737,286,o),
(830,339,o),
(883,434,o),
(883,494,qs),
(883,554,o),
(830,649,o),
(737,702,o),
(677,702,qs),
(632,702,o),
(558,671,o),
(503,616,o),
(471,541,o),
(471,494,qs),
(471,434,o),
(525,339,o),
(618,286,o),
(677,286,qs)
);
}
);
width = 1313;
}
);
unicode = 54;
},
{
glyphname = seven;
layers = (
{
layerId = "7F7FF3B5-2624-4A00-8D8B-13060CA2B611";
shapes = (
{
closed = 1;
nodes = (
(184,0,l),
(852,1319,l),
(852,1320,l),
(82,1320,l),
(82,1478,l),
(1030,1478,l),
(1030,1309,l),
(372,0,l)
);
}
);
width = 1084;
},
{
layerId = "2FE1F5E8-0BE1-472C-82D2-406E458C4580";
shapes = (
{
closed = 1;
nodes = (
(141,0,l),
(720,1141,l),
(720,1143,l),
(40,1143,l),
(40,1478,l),
(1137,1478,l),
(1137,1156,l),
(553,0,l)
);
}
);
width = 1176;
}
);
unicode = 55;
},
{
glyphname = eight;
layers = (
{
layerId = "7F7FF3B5-2624-4A00-8D8B-13060CA2B611";
shapes = (
{
closed = 1;
nodes = (
(427,-24,o),
(200,84,o),
(72,272,o),
(72,393,qs),
(72,491,o),
(156,656,o),
(300,762,o),
(389,773,q),
(389,772,l),
(275,793,o),
(125,974,o),
(125,1106,qs),
(125,1219,o),
(242,1399,o),
(445,1503,o),
(573,1503,qs),
(702,1503,o),
(903,1399,o),
(1020,1219,o),
(1020,1106,qs),
(1020,975,o),
(871,793,o),
(759,772,q),
(759,773,l),
(848,762,o),
(991,655,o),
(1076,491,o),
(1076,393,qs),
(1076,272,o),
(947,84,o),
(721,-24,o),
(573,-24,qs)
);
},
{
closed = 1;
nodes = (
(672,134,o),
(819,201,o),
(899,321,o),
(899,401,qs),
(899,484,o),
(815,613,o),
(669,687,o),
(573,687,qs),
(478,687,o),
(330,613,o),
(246,484,o),
(246,401,qs),
(246,321,o),
(327,201,o),
(474,134,o),
(573,134,qs)
);
},
{
closed = 1;
nodes = (
(655,839,o),
(779,903,o),
(848,1017,o),
(848,1094,qs),
(848,1169,o),
(780,1282,o),
(656,1345,o),
(573,1345,qs),
(492,1345,o),
(367,1282,o),
(298,1169,o),
(298,1094,qs),
(298,1017,o),
(367,904,o),
(493,839,o),
(573,839,qs)
);
}
);
width = 1147;
},
{
layerId = "2FE1F5E8-0BE1-472C-82D2-406E458C4580";
shapes = (
{
closed = 1;
nodes = (
(466,-24,o),
(192,82,o),
(40,273,o),
(40,401,qs),
(40,503,o),
(134,655,o),
(310,750,o),
(432,767,q),
(432,765,l),
(269,789,o),
(85,958,o),
(85,1097,qs),
(85,1218,o),
(227,1402,o),
(482,1503,o),
(651,1503,qs),
(824,1503,o),
(1078,1404,o),
(1218,1221,o),
(1218,1097,qs),
(1218,958,o),
(1036,790,o),
(874,765,q),
(874,767,l),
(994,750,o),
(1170,655,o),
(1264,503,o),
(1264,401,qs),
(1264,273,o),
(1111,82,o),
(837,-24,o),
(651,-24,qs)
);
},
{
closed = 1;
nodes = (
(708,252,o),
(797,299,o),
(847,381,o),
(847,433,qs),
(847,485,o),
(797,566,o),
(709,611,o),
(651,611,qs),
(594,611,o),
(507,566,o),
(457,485,o),
(457,433,qs),
(457,380,o),
(507,299,o),
(594,252,o),
(651,252,qs)
);
},
{
closed = 1;
nodes = (
(705,900,o),
(783,939,o),
(825,1010,o),
(825,1057,qs),
(825,1107,o),
(783,1176,o),
(705,1216,o),
(651,1216,qs),
(599,1216,o),
(522,1176,o),
(479,1107,o),
(479,1057,qs),
(479,1010,o),
(522,939,o),
(599,900,o),
(651,900,qs)
);
}
);
width = 1304;
}
);
unicode = 56;
},
{
glyphname = nine;
layers = (
{
layerId = "2FE1F5E8-0BE1-472C-82D2-406E458C4580";
shapes = (
{
closed = 1;
nodes = (
(792,1498,o),
(1063,1367,o),
(1216,1136,o),
(1216,985,qs),
(1216,859,o),
(1123,635,o),
(1044,519,qs),
(695,0,l),
(260,0,l),
(693,645,l),
(796,645,l),
(777,618,o),
(711,554,o),
(610,510,o),
(531,510,qs),
(381,510,o),
(160,626,o),
(40,839,o),
(40,985,qs),
(40,1136,o),
(186,1367,o),
(446,1498,o),
(615,1498,qs)
);
},
{
closed = 1;
nodes = (
(570,1193,o),
(477,1139,o),
(422,1045,o),
(422,985,qs),
(422,924,o),
(477,830,o),
(570,776,o),
(630,776,qs),
(689,776,o),
(780,830,o),
(834,924,o),
(834,985,qs),
(834,1045,o),
(780,1139,o),
(689,1193,o),
(630,1193,qs)
);
}
);
width = 1256;
},
{
layerId = "7F7FF3B5-2624-4A00-8D8B-13060CA2B611";
shapes = (
{
closed = 1;
nodes = (
(713,1503,o),
(935,1374,o),
(1060,1147,o),
(1060,998,qs),
(1060,888,o),
(945,641,o),
(817,462,qs),
(487,0,l),
(286,0,l),
(808,705,l),
(814,705,l),
(793,663,o),
(729,580,o),
(623,524,o),
(537,524,qs),
(405,524,o),
(194,648,o),
(73,866,o),
(73,1007,qs),
(73,1152,o),
(198,1375,o),
(421,1503,o),
(566,1503,qs)
);
},
{
closed = 1;
nodes = (
(477,1344,o),
(331,1254,o),
(247,1100,o),
(247,1007,qs),
(247,914,o),
(331,763,o),
(477,675,o),
(567,675,qs),
(658,675,o),
(803,763,o),
(888,914,o),
(888,1007,qs),
(888,1100,o),
(803,1254,o),
(658,1344,o),
(567,1344,qs)
);
}
);
width = 1154;
}
);
unicode = 57;
},
{
glyphname = less;
layers = (
{
layerId = "7F7FF3B5-2624-4A00-8D8B-13060CA2B611";
shapes = (
{
closed = 1;
nodes = (
(80,521,l),
(80,635,l),
(1011,1109,l),
(1011,923,l),
(296,580,l),
(302,591,l),
(302,564,l),
(296,573,l),
(1011,230,l),
(1011,45,l)
);
}
);
width = 1088;
},
{
layerId = "2FE1F5E8-0BE1-472C-82D2-406E458C4580";
shapes = (
{
closed = 1;
nodes = (
(144,426,l),
(144,774,l),
(1216,1205,l),
(1216,839,l),
(533,603,l),
(546,621,l),
(546,580,l),
(533,597,l),
(1216,361,l),
(1216,-2,l)
);
}
);
width = 1377;
}
);
unicode = 60;
},
{
glyphname = equal;
layers = (
{
layerId = "7F7FF3B5-2624-4A00-8D8B-13060CA2B611";
shapes = (
{
closed = 1;
nodes = (
(89,712,l),
(89,868,l),
(978,868,l),
(978,712,l)
);
},
{
closed = 1;
nodes = (
(89,286,l),
(89,442,l),
(978,442,l),
(978,286,l)
);
}
);
width = 1067;
},
{
layerId = "2FE1F5E8-0BE1-472C-82D2-406E458C4580";
shapes = (
{
closed = 1;
nodes = (
(154,697,l),
(154,1017,l),
(1222,1017,l),
(1222,697,l)
);
},
{
closed = 1;
nodes = (
(154,183,l),
(154,506,l),
(1222,506,l),
(1222,183,l)
);
}
);
width = 1377;
}
);
unicode = 61;
},
{
glyphname = greater;
layers = (
{
layerId = "7F7FF3B5-2624-4A00-8D8B-13060CA2B611";
shapes = (
{
closed = 1;
nodes = (
(1011,521,l),
(80,45,l),
(80,230,l),
(795,573,l),
(790,564,l),
(790,591,l),
(795,580,l),
(80,923,l),
(80,1109,l),
(1011,635,l)
);
}
);
width = 1089;
},
{
layerId = "2FE1F5E8-0BE1-472C-82D2-406E458C4580";
shapes = (
{
closed = 1;
nodes = (
(1235,426,l),
(161,-2,l),
(161,361,l),
(845,597,l),
(834,580,l),
(834,621,l),
(845,603,l),
(161,839,l),
(161,1205,l),
(1235,774,l)
);
}
);
width = 1377;
}
);
unicode = 62;
},
{
glyphname = question;
layers = (
{
layerId = "7F7FF3B5-2624-4A00-8D8B-13060CA2B611";
shapes = (
{
closed = 1;
nodes = (
(444,397,l),
(444,508,ls),
(444,618,o),
(503,735,o),
(609,814,o),
(677,862,q),
(762,924,o),
(828,1052,o),
(828,1117,qs),
(828,1188,o),
(763,1290,o),
(642,1345,o),
(557,1345,qs),
(467,1345,o),
(335,1274,o),
(267,1138,o),
(267,1042,q),
(89,1042,l),
(89,1181,o),
(206,1387,o),
(417,1503,o),
(557,1503,qs),
(688,1503,o),
(888,1405,o),
(1001,1231,o),
(1001,1117,qs),
(1001,1010,o),
(892,825,o),
(788,754,qs),
(722,709,o),
(646,640,o),
(616,559,o),
(616,491,qs),
(616,397,l)
);
},
{
closed = 1;
nodes = (
(477,-17,o),
(406,56,o),
(406,107,qs),
(406,160,o),
(477,232,o),
(529,232,qs),
(582,232,o),
(653,160,o),
(653,107,qs),
(653,56,o),
(582,-17,o),
(529,-17,qs)
);
}
);
width = 1038;
},
{
layerId = "2FE1F5E8-0BE1-472C-82D2-406E458C4580";
shapes = (
{
closed = 1;
nodes = (
(413,468,l),
(413,526,ls),
(413,615,o),
(453,736,o),
(551,827,o),
(636,868,qs),
(705,902,o),
(770,992,o),
(770,1044,qs),
(770,1087,o),
(730,1152,o),
(657,1189,o),
(610,1189,qs),
(556,1189,o),
(477,1144,o),
(433,1064,o),
(433,1010,q),
(64,1010,l),
(64,1151,o),
(202,1371,o),
(449,1498,o),
(615,1498,qs),
(773,1498,o),
(1013,1394,o),
(1149,1211,o),
(1149,1092,qs),
(1149,977,o),
(1057,799,o),
(962,739,q),
(904,701,o),
(810,632,o),
(752,554,o),
(752,504,qs),
(752,468,l)
);
},
{
closed = 1;
nodes = (
(503,-19,o),
(382,103,o),
(382,188,qs),
(382,273,o),
(503,394,o),
(589,394,qs),
(674,394,o),
(795,273,o),
(795,188,qs),
(795,103,o),
(674,-19,o),
(589,-19,qs)
);
}
);
width = 1229;
}
);
unicode = 63;
},
{
glyphname = at;
layers = (
{
layerId = "7F7FF3B5-2624-4A00-8D8B-13060CA2B611";
shapes = (
{
closed = 1;
nodes = (
(783,-399,o),
(448,-264,o),
(202,-18,o),
(68,321,o),
(68,523,qs),
(68,727,o),
(202,1065,o),
(448,1313,o),
(783,1447,o),
(986,1447,qs),
(1180,1447,o),
(1502,1319,o),
(1738,1081,o),
(1868,751,o),
(1868,548,qs),
(1868,426,o),
(1818,237,o),
(1721,105,o),
(1577,36,o),
(1483,36,qs),
(1385,36,o),
(1276,102,o),
(1230,188,o),
(1224,218,q),
(1224,218,l),
(1197,147,o),
(1055,41,o),
(937,41,qs),
(807,41,o),
(621,175,o),
(521,397,o),
(521,524,qs),
(521,665,o),
(636,883,o),
(829,1008,o),
(948,1008,qs),
(1047,1008,o),
(1179,928,o),
(1207,882,q),
(1208,882,l),
(1208,985,l),
(1368,985,l),
(1368,339,ls),
(1368,264,o),
(1431,186,o),
(1494,186,qs),
(1563,186,o),
(1659,267,o),
(1707,424,o),
(1707,541,qs),
(1707,717,o),
(1605,996,o),
(1416,1192,o),
(1150,1295,o),
(986,1295,qs),
(812,1295,o),
(536,1186,o),
(341,986,o),
(236,700,o),
(236,523,qs),
(236,346,o),
(341,62,o),
(536,-139,o),
(812,-246,o),
(986,-246,qs),
(1078,-246,o),
(1234,-219,o),
(1356,-183,o),
(1401,-167,q),
(1452,-311,l),
(1413,-327,o),
(1273,-369,o),
(1093,-399,o),
(986,-399,qs)
);
},
{
closed = 1;
nodes = (
(1043,191,o),
(1158,268,o),
(1217,418,o),
(1217,524,qs),
(1217,631,o),
(1158,779,o),
(1043,858,o),
(957,858,qs),
(874,858,o),
(755,779,o),
(691,632,o),
(691,524,qs),
(691,417,o),
(755,268,o),
(874,191,o),
(957,191,qs)
);
}
);
width = 1935;
},
{
layerId = "2FE1F5E8-0BE1-472C-82D2-406E458C4580";
shapes = (
{
closed = 1;
nodes = (
(838,-454,o),
(455,-317,o),
(184,-64,o),
(40,298,o),
(40,522,qs),
(40,747,o),
(184,1107,o),
(454,1365,o),
(834,1502,o),
(1070,1502,qs),
(1300,1502,o),
(1667,1372,o),
(1926,1132,o),
(2064,798,o),
(2064,592,qs),
(2064,447,o),
(1997,223,o),
(1869,67,o),
(1691,-14,o),
(1578,-14,qs),
(1500,-14,o),
(1382,25,o),
(1308,95,o),
(1300,141,q),
(1298,141,l),
(1276,84,o),
(1126,-4,o),
(1002,-4,qs),
(859,-4,o),
(641,127,o),
(521,365,o),
(521,524,qs),
(521,697,o),
(654,923,o),
(868,1033,o),
(991,1033,qs),
(1090,1033,o),
(1243,968,o),
(1269,918,q),
(1272,918,l),
(1272,1011,l),
(1525,1011,l),
(1525,327,ls),
(1525,285,o),
(1559,260,o),
(1579,260,qs),
(1626,260,o),
(1699,343,o),
(1741,491,o),
(1741,591,qs),
(1741,735,o),
(1649,962,o),
(1474,1119,o),
(1231,1202,o),
(1077,1202,qs),
(912,1202,o),
(649,1107,o),
(462,929,o),
(362,679,o),
(362,523,qs),
(362,368,o),
(462,117,o),
(648,-61,o),
(910,-154,o),
(1075,-154,qs),
(1173,-154,o),
(1342,-125,o),
(1467,-87,o),
(1498,-73,q),
(1611,-349,l),
(1563,-370,o),
(1413,-419,o),
(1206,-454,o),
(1077,-454,qs)
);
},
{
closed = 1;
nodes = (
(1101,290,o),
(1195,344,o),
(1243,449,o),
(1243,524,qs),
(1243,600,o),
(1195,705,o),
(1101,759,o),
(1034,759,qs),
(964,759,o),
(864,705,o),
(813,600,o),
(813,524,qs),
(813,449,o),
(864,344,o),
(964,290,o),
(1034,290,qs)
);
}
);
width = 2103;
}
);
unicode = 64;
},
{
glyphname = A;
layers = (
{
layerId = "7F7FF3B5-2624-4A00-8D8B-13060CA2B611";
shapes = (
{
closed = 1;
nodes = (
(17,0,l),
(563,1478,l),
(765,1478,l),
(1305,0,l),
(1114,0,l),
(804,890,l),
(774,979,o),
(697,1206,o),
(638,1391,q),
(690,1391,l),
(631,1206,o),
(555,979,o),
(523,890,qs),
(203,0,l)
);
},
{
closed = 1;
nodes = (
(299,415,l),
(299,573,l),
(1023,573,l),
(1023,415,l)
);
}
);
width = 1321;
},
{
layerId = "2FE1F5E8-0BE1-472C-82D2-406E458C4580";
shapes = (
{
closed = 1;
nodes = (
(13,0,l),
(508,1478,l),
(1064,1478,l),
(1566,0,l),
(1100,0,l),
(935,573,ls),
(881,759,o),
(780,1125,o),
(732,1321,q),
(843,1321,l),
(794,1125,o),
(691,759,o),
(635,573,qs),
(464,0,l)
);
},
{
closed = 1;
nodes = (
(382,244,l),
(382,561,l),
(1196,561,l),
(1196,244,l)
);
}
);
width = 1578;
}
);
leftKerningGroup = A2;
rightKerningGroup = A;
unicode = 65;
},
{
glyphname = B;
layers = (
{
layerId = "7F7FF3B5-2624-4A00-8D8B-13060CA2B611";
shapes = (
{
closed = 1;
nodes = (
(148,0,l),
(148,1478,l),
(681,1478,ls),
(830,1478,o),
(1044,1383,o),
(1158,1206,o),
(1158,1086,qs),
(1158,1001,o),
(1100,877,o),
(994,792,o),
(918,767,q),
(918,764,l),
(1002,750,o),
(1138,666,o),
(1219,522,o),
(1219,415,qs),
(1219,289,o),
(1103,103,o),
(868,0,o),
(690,0,qs)
);
},
{
closed = 1;
nodes = (
(326,159,l),
(690,159,ls),
(857,159,o),
(1038,285,o),
(1038,408,qs),
(1038,490,o),
(959,609,o),
(808,673,o),
(700,673,qs),
(326,673,l)
);
},
{
closed = 1;
nodes = (
(326,830,l),
(689,830,ls),
(781,830,o),
(912,888,o),
(981,999,o),
(981,1075,qs),
(981,1188,o),
(827,1320,o),
(689,1320,qs),
(326,1320,l)
);
}
);
width = 1305;
},
{
layerId = "2FE1F5E8-0BE1-472C-82D2-406E458C4580";
shapes = (
{
closed = 1;
nodes = (
(80,0,l),
(80,1478,l),
(720,1478,ls),
(888,1478,o),
(1119,1384,o),
(1236,1217,o),
(1236,1109,qs),
(1236,1024,o),
(1166,886,o),
(1037,796,o),
(950,779,q),
(950,777,l),
(1046,774,o),
(1197,681,o),
(1285,523,o),
(1285,419,qs),
(1285,298,o),
(1166,108,o),
(938,0,o),
(776,0,qs)
);
},
{
closed = 1;
nodes = (
(481,310,l),
(699,310,ls),
(774,310,o),
(863,390,o),
(863,456,qs),
(863,501,o),
(822,566,o),
(750,601,o),
(699,601,qs),
(481,601,l)
);
},
{
closed = 1;
nodes = (
(481,894,l),
(674,894,ls),
(720,894,o),
(787,927,o),
(823,989,o),
(823,1031,qs),
(823,1094,o),
(742,1169,o),
(674,1169,qs),
(481,1169,l)
);
}
);
width = 1321;
}
);
unicode = 66;
},
{
glyphname = C;
layers = (
{
layerId = "7F7FF3B5-2624-4A00-8D8B-13060CA2B611";
shapes = (
{
closed = 1;
nodes = (
(608,-24,o),
(264,172,o),
(72,516,o),
(72,739,qs),
(72,963,o),
(263,1306,o),
(608,1503,o),
(837,1503,qs),
(969,1503,o),
(1196,1433,o),
(1377,1301,o),
(1497,1117,o),
(1516,1028,q),
(1316,1000,l),
(1296,1080,o),
(1209,1206,o),
(1085,1293,o),
(928,1336,o),
(837,1336,qs),
(662,1336,o),
(410,1184,o),
(272,916,o),
(272,739,qs),
(272,563,o),
(410,294,o),
(662,144,o),
(837,144,qs),
(928,144,o),
(1084,186,o),
(1208,272,o),
(1296,396,o),
(1317,477,q),
(1516,453,l),
(1498,361,o),
(1377,176,o),
(1196,45,o),
(969,-24,o),
(837,-24,qs)
);
}
);
width = 1614;
},
{
layerId = "2FE1F5E8-0BE1-472C-82D2-406E458C4580";
shapes = (
{
closed = 1;
nodes = (
(556,-24,o),
(230,153,o),
(40,492,o),
(40,739,qs),
(40,986,o),
(230,1326,o),
(556,1503,o),
(758,1503,qs),
(900,1503,o),
(1138,1419,o),
(1318,1265,o),
(1430,1052,o),
(1445,921,q),
(1029,921,l),
(1020,973,o),
(975,1057,o),
(908,1115,o),
(819,1146,o),
(767,1146,qs),
(666,1146,o),
(528,1050,o),
(457,868,o),
(457,739,qs),
(457,610,o),
(527,428,o),
(666,333,o),
(767,333,qs),
(819,333,o),
(907,362,o),
(974,422,o),
(1018,504,o),
(1029,555,q),
(1445,555,l),
(1429,424,o),
(1318,212,o),
(1137,59,o),
(900,-24,o),
(758,-24,qs)
);
}
);
width = 1483;
}
);
leftKerningGroup = C2;
rightKerningGroup = C;
unicode = 67;
},
{
glyphname = D;
layers = (
{
layerId = "7F7FF3B5-2624-4A00-8D8B-13060CA2B611";
shapes = (
{
closed = 1;
nodes = (
(249,0,l),
(249,159,l),
(592,159,ls),
(776,159,o),
(1017,300,o),
(1135,561,o),
(1135,742,qs),
(1135,921,o),
(1019,1180,o),
(786,1320,o),
(612,1320,qs),
(241,1320,l),
(241,1478,l),
(624,1478,ls),
(841,1478,o),
(1148,1302,o),
(1313,971,o),
(1313,742,qs),
(1313,511,o),
(1147,179,o),
(830,0,o),
(604,0,qs)
);
},
{
closed = 1;
nodes = (
(326,1478,l),
(326,0,l),
(148,0,l),
(148,1478,l)
);
}
);
width = 1385;
},
{
layerId = "2FE1F5E8-0BE1-472C-82D2-406E458C4580";
shapes = (
{
closed = 1;
nodes = (
(252,0,l),
(252,342,l),
(637,342,ls),
(758,342,o),
(912,427,o),
(988,604,o),
(988,739,qs),
(988,875,o),
(910,1051,o),
(750,1137,o),
(625,1137,qs),
(246,1137,l),
(246,1478,l),
(651,1478,ls),
(879,1478,o),
(1218,1296,o),
(1405,964,o),
(1405,739,qs),
(1405,513,o),
(1220,183,o),
(885,0,o),
(657,0,qs)
);
},
{
closed = 1;
nodes = (
(491,1478,l),
(491,0,l),
(80,0,l),
(80,1478,l)
);
}
);
width = 1445;
}
);
rightKerningGroup = D;
unicode = 68;
},
{
glyphname = E;
layers = (
{
layerId = "7F7FF3B5-2624-4A00-8D8B-13060CA2B611";
shapes = (
{
closed = 1;
nodes = (
(148,0,l),
(148,1478,l),
(1109,1478,l),
(1109,1320,l),
(326,1320,l),
(326,837,l),
(1052,837,l),
(1052,678,l),
(326,678,l),
(326,159,l),
(1109,159,l),
(1109,0,l)
);
}
);
width = 1218;
},
{
layerId = "2FE1F5E8-0BE1-472C-82D2-406E458C4580";
shapes = (
{
closed = 1;
nodes = (
(80,0,l),
(80,1478,l),
(1225,1478,l),
(1225,1129,l),
(491,1129,l),
(491,907,l),
(1168,907,l),
(1168,570,l),
(491,570,l),
(491,350,l),
(1225,350,l),
(1225,0,l)
);
}
);
width = 1284;
}
);
rightKerningGroup = E;
unicode = 69;
},
{
glyphname = F;
layers = (
{
layerId = "7F7FF3B5-2624-4A00-8D8B-13060CA2B611";
shapes = (
{
closed = 1;
nodes = (
(148,0,l),
(148,1478,l),
(1078,1478,l),
(1078,1320,l),
(326,1320,l),
(326,837,l),
(1019,837,l),
(1019,678,l),
(326,678,l),
(326,0,l)
);
}
);
width = 1147;
},
{
layerId = "2FE1F5E8-0BE1-472C-82D2-406E458C4580";
shapes = (
{
closed = 1;
nodes = (
(80,0,l),
(80,1478,l),
(1190,1478,l),
(1190,1129,l),
(491,1129,l),
(491,867,l),
(1150,867,l),
(1150,531,l),
(491,531,l),
(491,0,l)
);
}
);
width = 1230;
}
);
unicode = 70;
},
{
glyphname = G;
layers = (
{
layerId = "7F7FF3B5-2624-4A00-8D8B-13060CA2B611";
shapes = (
{
closed = 1;
nodes = (
(607,-24,o),
(266,172,o),
(72,516,o),
(72,739,qs),
(72,963,o),
(265,1306,o),
(607,1503,o),
(826,1503,qs),
(958,1503,o),
(1189,1429,o),
(1372,1296,o),
(1492,1116,o),
(1503,1052,q),
(1312,1005,l),
(1293,1078,o),
(1206,1197,o),
(1077,1286,o),
(917,1336,o),
(826,1336,qs),
(661,1336,o),
(410,1184,o),
(270,916,o),
(270,739,qs),
(270,563,o),
(410,294,o),
(661,144,o),
(826,144,qs),
(964,144,o),
(1191,254,o),
(1327,453,o),
(1327,583,q),
(1391,581,l),
(894,581,l),
(894,740,l),
(1523,740,l),
(1523,580,ls),
(1523,406,o),
(1339,134,o),
(1024,-24,o),
(826,-24,qs)
);
}
);
width = 1598;
},
{
layerId = "2FE1F5E8-0BE1-472C-82D2-406E458C4580";
shapes = (
{
closed = 1;
nodes = (
(546,-24,o),
(219,163,o),
(40,505,o),
(40,739,qs),
(40,986,o),
(230,1326,o),
(557,1503,o),
(758,1503,qs),
(894,1503,o),
(1131,1427,o),
(1316,1285,o),
(1428,1089,o),
(1437,968,q),
(1017,968,l),
(1009,1010,o),
(971,1076,o),
(910,1121,o),
(830,1146,o),
(775,1146,qs),
(670,1146,o),
(529,1051,o),
(457,869,o),
(457,739,qs),
(457,608,o),
(530,426,o),
(675,333,o),
(780,333,qs),
(867,333,o),
(986,384,o),
(1046,478,o),
(1046,539,q),
(1131,531,l),
(778,531,l),
(778,825,l),
(1449,825,l),
(1449,612,ls),
(1449,420,o),
(1278,134,o),
(971,-24,o),
(767,-24,qs)
);
}
);
width = 1504;
}
);
leftKerningGroup = C2;
rightKerningGroup = G;
unicode = 71;
},
{
glyphname = H;
layers = (
{
layerId = "2FE1F5E8-0BE1-472C-82D2-406E458C4580";
shapes = (
{
closed = 1;
nodes = (
(80,0,l),
(80,1478,l),
(491,1478,l),
(491,926,l),
(985,926,l),
(985,1478,l),
(1397,1478,l),
(1397,0,l),
(985,0,l),
(985,576,l),
(491,576,l),
(491,0,l)
);
}
);
width = 1476;
},
{
layerId = "7F7FF3B5-2624-4A00-8D8B-13060CA2B611";
shapes = (
{
closed = 1;
nodes = (
(148,0,l),
(148,1478,l),
(326,1478,l),
(326,837,l),
(1115,837,l),
(1115,1478,l),
(1293,1478,l),
(1293,0,l),
(1115,0,l),
(1115,678,l),
(326,678,l),
(326,0,l)
);
}
);
width = 1441;
}
);
rightKerningGroup = H;
unicode = 72;
},
{
glyphname = I;
layers = (
{
layerId = "7F7FF3B5-2624-4A00-8D8B-13060CA2B611";
shapes = (
{
closed = 1;
nodes = (
(326,1478,l),
(326,0,l),
(148,0,l),
(148,1478,l)
);
}
);
width = 472;
},
{
layerId = "2FE1F5E8-0BE1-472C-82D2-406E458C4580";
shapes = (
{
closed = 1;
nodes = (
(491,1478,l),
(491,0,l),
(80,0,l),
(80,1478,l)
);
}
);
width = 571;
}
);
rightKerningGroup = H;
unicode = 73;
},
{
glyphname = J;
layers = (
{
layerId = "7F7FF3B5-2624-4A00-8D8B-13060CA2B611";
shapes = (
{
closed = 1;
nodes = (
(270,-20,o),
(26,208,o),
(26,421,qs),
(26,501,l),
(205,501,l),
(205,421,ls),
(205,283,o),
(345,139,o),
(463,139,qs),
(578,139,o),
(720,283,o),
(720,421,qs),
(720,1478,l),
(900,1478,l),
(900,421,ls),
(900,208,o),
(654,-20,o),
(463,-20,qs)
);
}
);
width = 1039;
},
{
layerId = "2FE1F5E8-0BE1-472C-82D2-406E458C4580";
shapes = (
{
closed = 1;
nodes = (
(316,-24,o),
(45,233,o),
(45,470,qs),
(45,588,l),
(425,588,l),
(425,466,ls),
(425,395,o),
(497,317,o),
(561,317,qs),
(627,317,o),
(698,395,o),
(698,466,qs),
(698,1478,l),
(1110,1478,l),
(1110,459,ls),
(1110,226,o),
(829,-24,o),
(569,-24,qs)
);
}
);
width = 1190;
}
);
leftKerningGroup = J2;
rightKerningGroup = J;
unicode = 74;
},
{
glyphname = K;
layers = (
{
layerId = "7F7FF3B5-2624-4A00-8D8B-13060CA2B611";
shapes = (
{
closed = 1;
nodes = (
(269,422,l),
(269,657,l),
(321,714,o),
(424,827,o),
(528,940,o),
(581,996,qs),
(1028,1478,l),
(1266,1478,l),
(634,806,l),
(625,806,l)
);
},
{
closed = 1;
nodes = (
(148,0,l),
(148,1478,l),
(326,1478,l),
(326,964,l),
(326,651,l),
(326,563,l),
(326,0,l)
);
},
{
closed = 1;
nodes = (
(1054,0,l),
(512,759,l),
(622,900,l),
(1266,0,l)
);
}
);
width = 1282;
},
{
layerId = "2FE1F5E8-0BE1-472C-82D2-406E458C4580";
shapes = (
{
closed = 1;
nodes = (
(383,212,l),
(383,712,l),
(434,777,o),
(533,906,o),
(633,1034,o),
(683,1098,qs),
(977,1478,l),
(1454,1478,l),
(836,718,l),
(798,718,l)
);
},
{
closed = 1;
nodes = (
(80,0,l),
(80,1478,l),
(491,1478,l),
(491,1161,l),
(491,735,l),
(491,541,l),
(491,0,l)
);
},
{
closed = 1;
nodes = (
(1009,0,l),
(653,594,l),
(899,904,l),
(1482,0,l)
);
}
);
width = 1482;
}
);
unicode = 75;
},
{
glyphname = L;
layers = (
{
layerId = "7F7FF3B5-2624-4A00-8D8B-13060CA2B611";
shapes = (
{
closed = 1;
nodes = (
(148,0,l),
(148,1478,l),
(326,1478,l),
(326,159,l),
(1039,159,l),
(1039,0,l)
);
}
);
width = 1106;
},
{
layerId = "2FE1F5E8-0BE1-472C-82D2-406E458C4580";
shapes = (
{
closed = 1;
nodes = (
(80,0,l),
(80,1478,l),
(491,1478,l),
(491,350,l),
(1129,350,l),
(1129,0,l)
);
}
);
width = 1169;
}
);
rightKerningGroup = L;
unicode = 76;
},
{
glyphname = M;
layers = (
{
layerId = "7F7FF3B5-2624-4A00-8D8B-13060CA2B611";
shapes = (
{
closed = 1;
nodes = (
(148,0,l),
(148,1478,l),
(391,1478,l),
(909,780,l),
(868,780,l),
(1353,1478,l),
(1597,1478,l),
(1597,0,l),
(1421,0,l),
(1429,1302,l),
(1429,1302,l),
(937,602,l),
(828,602,l),
(283,1302,l),
(317,1302,l),
(324,0,l)
);
}
);
width = 1742;
},
{
layerId = "2FE1F5E8-0BE1-472C-82D2-406E458C4580";
shapes = (
{
closed = 1;
nodes = (
(80,0,l),
(80,1478,l),
(697,1478,l),
(994,825,l),
(888,825,l),
(1182,1478,l),
(1801,1478,l),
(1801,0,l),
(1394,0,l),
(1411,1255,l),
(1457,1255,l),
(994,461,l),
(888,461,l),
(416,1255,l),
(468,1255,l),
(484,0,l)
);
}
);
width = 1880;
}
);
rightKerningGroup = H;
unicode = 77;
},
{
glyphname = N;
layers = (
{
layerId = "7F7FF3B5-2624-4A00-8D8B-13060CA2B611";
shapes = (
{
closed = 1;
nodes = (
(148,0,l),
(148,1478,l),
(354,1478,l),
(962,516,ls),
(982,485,o),
(1043,383,o),
(1113,266,o),
(1144,208,q),
(1128,173,l),
(1126,225,o),
(1120,366,o),
(1118,492,o),
(1118,524,qs),
(1118,1478,l),
(1296,1478,l),
(1296,0,l),
(1089,0,l),
(548,856,l),
(526,889,o),
(452,1011,o),
(353,1176,o),
(295,1275,q),
(315,1322,l),
(320,1206,o),
(324,1026,o),
(326,896,o),
(326,858,qs),
(326,0,l)
);
}
);
width = 1442;
},
{
layerId = "2FE1F5E8-0BE1-472C-82D2-406E458C4580";
shapes = (
{
closed = 1;
nodes = (
(80,0,l),
(80,1478,l),
(501,1478,l),
(860,899,ls),
(884,860,o),
(957,730,o),
(1037,581,o),
(1072,516,q),
(1022,401,l),
(1017,482,o),
(1011,687,o),
(1008,879,o),
(1008,938,qs),
(1008,1478,l),
(1421,1478,l),
(1421,0,l),
(1000,0,l),
(664,541,ls),
(634,589,o),
(546,740,o),
(445,927,o),
(395,1024,q),
(477,1048,l),
(484,944,o),
(491,743,o),
(491,585,o),
(491,541,qs),
(491,0,l)
);
}
);
width = 1500;
}
);
rightKerningGroup = H;
unicode = 78;
},
{
glyphname = O;
layers = (
{
layerId = "7F7FF3B5-2624-4A00-8D8B-13060CA2B611";
shapes = (
{
closed = 1;
nodes = (
(599,-24,o),
(262,173,o),
(72,517,o),
(72,739,qs),
(72,962,o),
(262,1305,o),
(599,1503,o),
(815,1503,qs),
(1034,1503,o),
(1369,1305,o),
(1560,962,o),
(1560,739,qs),
(1560,517,o),
(1369,173,o),
(1034,-24,o),
(815,-24,qs)
);
},
{
closed = 1;
nodes = (
(964,144,o),
(1212,281,o),
(1361,547,o),
(1361,739,qs),
(1361,930,o),
(1212,1197,o),
(964,1336,o),
(815,1336,qs),
(667,1336,o),
(418,1197,o),
(270,930,o),
(270,739,qs),
(270,547,o),
(418,281,o),
(667,144,o),
(815,144,qs)
);
}
);
width = 1631;
},
{
layerId = "2FE1F5E8-0BE1-472C-82D2-406E458C4580";
shapes = (
{
closed = 1;
nodes = (
(556,-24,o),
(230,153,o),
(40,492,o),
(40,739,qs),
(40,986,o),
(230,1326,o),
(556,1503,o),
(758,1503,qs),
(960,1503,o),
(1285,1326,o),
(1476,986,o),
(1476,739,qs),
(1476,491,o),
(1285,152,o),
(960,-24,o),
(758,-24,qs)
);
},
{
closed = 1;
nodes = (
(856,333,o),
(990,431,o),
(1059,611,o),
(1059,739,qs),
(1059,866,o),
(990,1049,o),
(856,1146,o),
(758,1146,qs),
(661,1146,o),
(527,1049,o),
(457,866,o),
(457,739,qs),
(457,611,o),
(527,431,o),
(661,333,o),
(758,333,qs)
);
}
);
width = 1516;
}
);
leftKerningGroup = C2;
rightKerningGroup = D;
unicode = 79;
},
{
glyphname = P;
layers = (
{
layerId = "2FE1F5E8-0BE1-472C-82D2-406E458C4580";
shapes = (
{
closed = 1;
nodes = (
(80,0,l),
(80,1478,l),
(708,1478,ls),
(884,1478,o),
(1142,1352,o),
(1282,1121,o),
(1282,963,qs),
(1282,805,o),
(1142,572,o),
(884,446,o),
(708,446,qs),
(316,446,l),
(316,786,l),
(677,786,ls),
(740,786,o),
(830,830,o),
(879,908,o),
(879,963,qs),
(879,1017,o),
(830,1096,o),
(740,1139,o),
(677,1139,qs),
(491,1139,l),
(491,0,l)
);
}
);
width = 1317;
},
{
layerId = "7F7FF3B5-2624-4A00-8D8B-13060CA2B611";
shapes = (
{
closed = 1;
nodes = (
(148,0,l),
(148,1478,l),
(678,1478,ls),
(832,1478,o),
(1059,1369,o),
(1180,1168,o),
(1180,1030,qs),
(1180,891,o),
(1054,690,o),
(825,581,o),
(670,581,qs),
(237,581,l),
(237,740,l),
(672,740,ls),
(775,740,o),
(922,810,o),
(1003,941,o),
(1003,1030,qs),
(1003,1120,o),
(922,1250,o),
(775,1320,o),
(672,1320,qs),
(326,1320,l),
(326,0,l)
);
}
);
width = 1237;
}
);
unicode = 80;
},
{
glyphname = Q;
layers = (
{
layerId = "7F7FF3B5-2624-4A00-8D8B-13060CA2B611";
shapes = (
{
closed = 1;
nodes = (
(667,462,l),
(864,462,l),
(1028,246,l),
(1069,189,l),
(1316,-139,l),
(1119,-139,l),
(959,78,l),
(917,133,l)
);
},
{
closed = 1;
nodes = (
(547,-24,o),
(244,173,o),
(72,517,o),
(72,739,qs),
(72,962,o),
(244,1305,o),
(547,1503,o),
(743,1503,qs),
(940,1503,o),
(1243,1305,o),
(1416,962,o),
(1416,739,qs),
(1416,517,o),
(1243,173,o),
(940,-24,o),
(743,-24,qs)
);
},
{
closed = 1;
nodes = (
(877,144,o),
(1101,281,o),
(1236,547,o),
(1236,739,qs),
(1236,930,o),
(1101,1197,o),
(877,1336,o),
(743,1336,qs),
(609,1336,o),
(385,1197,o),
(250,930,o),
(250,739,qs),
(250,547,o),
(385,281,o),
(609,144,o),
(743,144,qs)
);
}
);
width = 1487;
},
{
layerId = "2FE1F5E8-0BE1-472C-82D2-406E458C4580";
shapes = (
{
closed = 1;
nodes = (
(603,548,l),
(916,548,l),
(1028,406,l),
(1218,191,l),
(1474,-109,l),
(1127,-109,l),
(958,94,l),
(818,266,l)
);
},
{
closed = 1;
nodes = (
(556,-24,o),
(230,153,o),
(40,492,o),
(40,739,qs),
(40,986,o),
(230,1326,o),
(556,1503,o),
(758,1503,qs),
(960,1503,o),
(1285,1326,o),
(1476,986,o),
(1476,739,qs),
(1476,491,o),
(1285,152,o),
(960,-24,o),
(758,-24,qs)
);
},
{
closed = 1;
nodes = (
(856,333,o),
(990,431,o),
(1059,611,o),
(1059,739,qs),
(1059,866,o),
(990,1049,o),
(856,1146,o),
(758,1146,qs),
(661,1146,o),
(527,1049,o),
(457,866,o),
(457,739,qs),
(457,611,o),
(527,431,o),
(661,333,o),
(758,333,qs)
);
}
);
width = 1516;
}
);
leftKerningGroup = C2;
unicode = 81;
},
{
glyphname = R;
layers = (
{
layerId = "7F7FF3B5-2624-4A00-8D8B-13060CA2B611";
shapes = (
{
closed = 1;
nodes = (
(148,0,l),
(148,1478,l),
(697,1478,ls),
(851,1478,o),
(1077,1369,o),
(1199,1168,o),
(1199,1030,qs),
(1199,891,o),
(1068,690,o),
(836,581,o),
(682,581,qs),
(247,581,l),
(247,740,l),
(693,740,ls),
(795,740,o),
(942,810,o),
(1022,941,o),
(1022,1030,qs),
(1022,1120,o),
(941,1250,o),
(794,1320,o),
(691,1320,qs),
(326,1320,l),
(326,0,l)
);
},
{
closed = 1;
nodes = (
(1009,0,l),
(652,665,l),
(853,665,l),
(1218,0,l)
);
}
);
width = 1269;
},
{
layerId = "2FE1F5E8-0BE1-472C-82D2-406E458C4580";
shapes = (
{
closed = 1;
nodes = (
(80,0,l),
(80,1478,l),
(708,1478,ls),
(884,1478,o),
(1142,1352,o),
(1282,1121,o),
(1282,963,qs),
(1282,810,o),
(1137,585,o),
(868,462,o),
(686,462,qs),
(333,462,l),
(333,781,l),
(677,781,ls),
(740,781,o),
(830,828,o),
(879,908,o),
(879,963,qs),
(879,1017,o),
(830,1097,o),
(740,1143,o),
(677,1143,qs),
(491,1143,l),
(491,0,l)
);
},
{
closed = 1;
nodes = (
(899,0,l),
(576,670,l),
(997,670,l),
(1327,0,l)
);
}
);
width = 1352;
}
);
rightKerningGroup = R;
unicode = 82;
},
{
glyphname = S;
layers = (
{
layerId = "2FE1F5E8-0BE1-472C-82D2-406E458C4580";
shapes = (
{
closed = 1;
nodes = (
(493,-24,o),
(211,95,o),
(64,327,o),
(64,491,q),
(454,491,l),
(457,433,o),
(520,348,o),
(630,302,o),
(704,302,qs),
(770,302,o),
(866,334,o),
(921,393,o),
(921,433,qs),
(921,467,o),
(868,522,o),
(762,561,o),
(679,576,qs),
(531,604,ls),
(317,645,o),
(91,865,o),
(91,1030,qs),
(91,1171,o),
(244,1384,o),
(516,1503,o),
(696,1503,qs),
(880,1503,o),
(1147,1385,o),
(1294,1166,o),
(1298,1010,q),
(919,1010,l),
(911,1087,o),
(796,1176,o),
(704,1176,qs),
(646,1176,o),
(557,1145,o),
(506,1087,o),
(506,1050,qs),
(506,1014,o),
(551,965,o),
(651,928,o),
(727,914,qs),
(845,891,l),
(972,868,o),
(1156,795,o),
(1274,690,o),
(1328,551,o),
(1328,462,qs),
(1328,308,o),
(1181,90,o),
(899,-24,o),
(699,-24,qs)
);
}
);
width = 1392;
},
{
layerId = "7F7FF3B5-2624-4A00-8D8B-13060CA2B611";
shapes = (
{
closed = 1;
nodes = (
(459,-24,o),
(208,98,o),
(71,323,o),
(71,477,q),
(254,477,l),
(254,372,o),
(342,219,o),
(511,139,o),
(629,139,qs),
(737,139,o),
(898,203,o),
(987,320,o),
(987,399,qs),
(987,461,o),
(929,551,o),
(801,621,o),
(694,646,q),
(528,687,ls),
(302,742,o),
(101,928,o),
(101,1079,qs),
(101,1208,o),
(228,1397,o),
(458,1503,o),
(612,1503,qs),
(765,1503,o),
(992,1390,o),
(1120,1184,o),
(1123,1042,q),
(947,1042,l),
(939,1181,o),
(756,1339,o),
(605,1339,qs),
(510,1339,o),
(362,1276,o),
(277,1162,o),
(277,1088,qs),
(277,1031,o),
(337,946,o),
(467,880,o),
(575,854,qs),
(743,812,ls),
(850,785,o),
(1010,710,o),
(1113,611,o),
(1165,484,o),
(1165,406,qs),
(1165,279,o),
(1032,85,o),
(791,-24,o),
(629,-24,qs)
);
}
);
width = 1217;
}
);
leftKerningGroup = S2;
rightKerningGroup = S;
unicode = 83;
},
{
glyphname = T;
layers = (
{
layerId = "7F7FF3B5-2624-4A00-8D8B-13060CA2B611";
shapes = (
{
closed = 1;
nodes = (
(37,1320,l),
(37,1478,l),
(1277,1478,l),
(1277,1320,l),
(748,1320,l),
(748,0,l),
(569,0,l),
(569,1320,l)
);
}
);
width = 1313;
},
{
layerId = "2FE1F5E8-0BE1-472C-82D2-406E458C4580";
shapes = (
{
closed = 1;
nodes = (
(40,1129,l),
(40,1478,l),
(1295,1478,l),
(1295,1129,l),
(874,1129,l),
(874,0,l),
(461,0,l),
(461,1129,l)
);
}
);
width = 1335;
}
);
leftKerningGroup = T2;
rightKerningGroup = T;
unicode = 84;
},
{
glyphname = U;
layers = (
{
layerId = "7F7FF3B5-2624-4A00-8D8B-13060CA2B611";
shapes = (
{
closed = 1;
nodes = (
(514,-24,o),
(255,113,o),
(112,351,o),
(112,502,qs),
(112,1478,l),
(291,1478,l),
(291,516,ls),
(291,408,o),
(385,239,o),
(564,144,o),
(688,144,qs),
(813,144,o),
(990,239,o),
(1085,408,o),
(1085,516,qs),
(1085,1478,l),
(1263,1478,l),
(1263,502,ls),
(1263,351,o),
(1120,113,o),
(862,-24,o),
(688,-24,qs)
);
}
);
width = 1363;
},
{
layerId = "2FE1F5E8-0BE1-472C-82D2-406E458C4580";
shapes = (
{
closed = 1;
nodes = (
(523,-24,o),
(237,112,o),
(80,359,o),
(80,526,qs),
(80,1478,l),
(481,1478,l),
(481,560,ls),
(481,491,o),
(542,384,o),
(648,323,o),
(717,323,qs),
(786,323,o),
(891,383,o),
(952,490,o),
(952,560,qs),
(952,1478,l),
(1353,1478,l),
(1353,526,ls),
(1353,359,o),
(1196,112,o),
(909,-24,o),
(717,-24,qs)
);
}
);
width = 1433;
}
);
leftKerningGroup = U2;
rightKerningGroup = U;
unicode = 85;
},
{
glyphname = V;
layers = (
{
layerId = "7F7FF3B5-2624-4A00-8D8B-13060CA2B611";
shapes = (
{
closed = 1;
nodes = (
(553,0,l),
(7,1478,l),
(196,1478,l),
(516,588,l),
(541,515,o),
(621,272,o),
(682,87,q),
(632,87,l),
(690,272,o),
(772,515,o),
(796,588,q),
(1108,1478,l),
(1295,1478,l),
(755,0,l)
);
}
);
width = 1301;
},
{
layerId = "2FE1F5E8-0BE1-472C-82D2-406E458C4580";
shapes = (
{
closed = 1;
nodes = (
(497,0,l),
(0,1478,l),
(455,1478,l),
(626,905,ls),
(681,719,o),
(785,344,o),
(835,158,q),
(713,158,l),
(761,344,o),
(859,719,o),
(911,905,q),
(1076,1478,l),
(1524,1478,l),
(1044,0,l)
);
}
);
width = 1524;
}
);
unicode = 86;
},
{
glyphname = W;
layers = (
{
layerId = "7F7FF3B5-2624-4A00-8D8B-13060CA2B611";
shapes = (
{
closed = 1;
nodes = (
(420,0,l),
(17,1478,l),
(198,1478,l),
(535,127,l),
(514,127,l),
(859,1048,l),
(1064,1048,l),
(1410,127,l),
(1386,127,l),
(1724,1478,l),
(1906,1478,l),
(1501,0,l),
(1292,0,l),
(942,919,l),
(979,919,l),
(630,0,l)
);
}
);
width = 1925;
},
{
layerId = "2FE1F5E8-0BE1-472C-82D2-406E458C4580";
shapes = (
{
closed = 1;
nodes = (
(393,0,l),
(0,1478,l),
(448,1478,l),
(686,254,l),
(591,254,l),
(854,1048,l),
(1255,1048,l),
(1517,254,l),
(1421,254,l),
(1659,1478,l),
(2108,1478,l),
(1716,0,l),
(1262,0,l),
(993,729,l),
(1115,729,l),
(845,0,l)
);
}
);
width = 2108;
}
);
leftKerningGroup = W2;
rightKerningGroup = W;
unicode = 87;
},
{
glyphname = X;
layers = (
{
layerId = "7F7FF3B5-2624-4A00-8D8B-13060CA2B611";
shapes = (
{
closed = 1;
nodes = (
(-14,0,l),
(561,822,l),
(561,690,l),
(16,1478,l),
(224,1478,l),
(442,1159,ls),
(474,1111,o),
(538,1016,o),
(601,921,o),
(632,874,q),
(603,874,l),
(635,921,o),
(699,1016,o),
(764,1111,o),
(797,1159,qs),
(1019,1478,l),
(1221,1478,l),
(677,698,l),
(677,829,l),
(1247,0,l),
(1042,0,l),
(780,381,l),
(748,426,o),
(687,516,o),
(627,607,o),
(597,651,q),
(637,651,l),
(607,607,o),
(545,516,o),
(484,426,o),
(452,381,qs),
(187,0,l)
);
}
);
width = 1232;
},
{
layerId = "2FE1F5E8-0BE1-472C-82D2-406E458C4580";
shapes = (
{
closed = 1;
nodes = (
(0,0,l),
(637,904,l),
(637,597,l),
(60,1478,l),
(525,1478,l),
(643,1285,l),
(674,1236,o),
(732,1137,o),
(790,1037,o),
(818,988,q),
(697,988,l),
(727,1037,o),
(784,1137,o),
(844,1236,o),
(876,1285,q),
(995,1478,l),
(1449,1478,l),
(888,621,l),
(888,908,l),
(1506,0,l),
(1028,0,l),
(866,254,ls),
(842,292,o),
(796,368,o),
(750,442,o),
(726,480,q),
(779,480,l),
(756,442,o),
(710,368,o),
(662,292,o),
(636,254,qs),
(466,0,l)
);
}
);
width = 1506;
}
);
unicode = 88;
},
{
glyphname = Y;
layers = (
{
layerId = "7F7FF3B5-2624-4A00-8D8B-13060CA2B611";
shapes = (
{
closed = 1;
nodes = (
(560,0,l),
(560,610,l),
(17,1478,l),
(223,1478,l),
(519,1000,l),
(565,928,o),
(648,786,o),
(690,714,q),
(614,714,l),
(654,786,o),
(738,928,o),
(782,1000,qs),
(1078,1478,l),
(1283,1478,l),
(739,610,l),
(739,0,l)
);
}
);
width = 1299;
},
{
layerId = "2FE1F5E8-0BE1-472C-82D2-406E458C4580";
shapes = (
{
closed = 1;
nodes = (
(551,0,l),
(551,504,l),
(0,1478,l),
(471,1478,l),
(685,1064,l),
(710,1012,o),
(759,908,o),
(783,858,q),
(725,858,l),
(747,908,o),
(791,1012,o),
(816,1064,qs),
(1015,1478,l),
(1484,1478,l),
(949,504,l),
(949,0,l)
);
}
);
width = 1484;
}
);
leftKerningGroup = Y2;
rightKerningGroup = Y;
unicode = 89;
},
{
glyphname = Z;
layers = (
{
layerId = "7F7FF3B5-2624-4A00-8D8B-13060CA2B611";
shapes = (
{
closed = 1;
nodes = (
(63,0,l),
(63,151,l),
(836,1144,ls),
(883,1204,o),
(981,1324,o),
(1030,1384,q),
(1053,1320,l),
(969,1320,o),
(805,1320,o),
(721,1320,qs),
(96,1320,l),
(96,1478,l),
(1187,1478,l),
(1187,1327,l),
(431,356,ls),
(380,291,o),
(276,161,o),
(220,94,q),
(198,159,l),
(280,159,o),
(440,159,o),
(522,159,qs),
(1194,159,l),
(1194,0,l)
);
}
);
width = 1278;
},
{
layerId = "2FE1F5E8-0BE1-472C-82D2-406E458C4580";
shapes = (
{
closed = 1;
nodes = (
(49,0,l),
(49,310,l),
(602,951,ls),
(670,1031,o),
(814,1186,o),
(888,1265,q),
(936,1129,l),
(834,1129,o),
(627,1129,o),
(524,1129,qs),
(64,1129,l),
(64,1478,l),
(1270,1478,l),
(1270,1169,l),
(724,524,ls),
(658,445,o),
(516,290,o),
(442,212,q),
(396,350,l),
(500,350,o),
(707,350,o),
(810,350,qs),
(1276,350,l),
(1276,0,l)
);
}
);
width = 1325;
}
);
leftKerningGroup = Z2;
rightKerningGroup = Z;
unicode = 90;
},
{
glyphname = bracketleft;
layers = (
{
layerId = "7F7FF3B5-2624-4A00-8D8B-13060CA2B611";
shapes = (
{
closed = 1;
nodes = (
(180,-292,l),
(180,1553,l),
(552,1553,l),
(552,1409,l),
(348,1409,l),
(348,-147,l),
(552,-147,l),
(552,-292,l)
);
}
);
width = 588;
},
{
layerId = "2FE1F5E8-0BE1-472C-82D2-406E458C4580";
shapes = (
{
closed = 1;
nodes = (
(107,-292,l),
(107,1553,l),
(670,1553,l),
(670,1253,l),
(504,1253,l),
(504,9,l),
(670,9,l),
(670,-292,l)
);
}
);
width = 730;
}
);
rightKerningGroup = braceleft;
unicode = 91;
},
{
glyphname = backslash;
layers = (
{
layerId = "2FE1F5E8-0BE1-472C-82D2-406E458C4580";
shapes = (
{
closed = 1;
nodes = (
(471,-223,l),
(-4,1548,l),
(333,1548,l),
(810,-223,l)
);
}
);
width = 806;
},
{
layerId = "7F7FF3B5-2624-4A00-8D8B-13060CA2B611";
shapes = (
{
closed = 1;
nodes = (
(452,-223,l),
(-25,1548,l),
(133,1548,l),
(609,-223,l)
);
}
);
width = 584;
}
);
unicode = 92;
},
{
glyphname = bracketright;
layers = (
{
layerId = "7F7FF3B5-2624-4A00-8D8B-13060CA2B611";
shapes = (
{
closed = 1;
nodes = (
(36,-292,l),
(36,-147,l),
(239,-147,l),
(239,1409,l),
(36,1409,l),
(36,1553,l),
(408,1553,l),
(408,-292,l)
);
}
);
width = 588;
},
{
layerId = "2FE1F5E8-0BE1-472C-82D2-406E458C4580";
shapes = (
{
closed = 1;
nodes = (
(60,-292,l),
(60,9,l),
(226,9,l),
(226,1253,l),
(60,1253,l),
(60,1553,l),
(623,1553,l),
(623,-292,l)
);
}
);
width = 730;
}
);
leftKerningGroup = braceright;
unicode = 93;
},
{
glyphname = asciicircum;
layers = (
{
layerId = "2FE1F5E8-0BE1-472C-82D2-406E458C4580";
shapes = (
{
closed = 1;
nodes = (
(466,1296,l),
(519,1296,l),
(519,1213,l),
(466,1213,l)
);
},
{
closed = 1;
nodes = (
(42,809,l),
(352,1454,l),
(633,1454,l),
(943,809,l),
(669,809,l),
(486,1240,l),
(499,1240,l),
(315,809,l)
);
}
);
width = 985;
},
{
layerId = "7F7FF3B5-2624-4A00-8D8B-13060CA2B611";
shapes = (
{
closed = 1;
nodes = (
(406,1351,l),
(456,1351,l),
(456,1278,l),
(406,1278,l)
);
},
{
closed = 1;
nodes = (
(36,809,l),
(333,1431,l),
(527,1431,l),
(826,809,l),
(654,809,l),
(422,1307,l),
(438,1307,l),
(208,809,l)
);
}
);
width = 864;
}
);
unicode = 94;
},
{
glyphname = underscore;
layers = (
{
layerId = "7F7FF3B5-2624-4A00-8D8B-13060CA2B611";
shapes = (
{
closed = 1;
nodes = (
(877,0,l),
(877,-159,l),
(-45,-159,l),
(-45,0,l)
);
}
);
width = 831;
},
{
layerId = "2FE1F5E8-0BE1-472C-82D2-406E458C4580";
shapes = (
{
closed = 1;
nodes = (
(1002,0,l),
(1002,-284,l),
(0,-284,l),
(0,0,l)
);
}
);
width = 1002;
}
);
unicode = 95;
},
{
glyphname = a;
layers = (
{
layerId = "2FE1F5E8-0BE1-472C-82D2-406E458C4580";
shapes = (
{
closed = 1;
nodes = (
(331,-19,o),
(201,17,o),
(105,92,o),
(49,209,o),
(49,290,qs),
(49,380,o),
(112,499,o),
(218,575,o),
(356,613,o),
(504,629,o),
(652,629,o),
(716,629,q),
(707,717,ls),
(704,743,o),
(683,781,o),
(652,805,o),
(611,817,o),
(587,817,qs),
(563,817,o),
(517,811,o),
(479,793,o),
(453,761,o),
(449,736,q),
(97,736,l),
(99,756,o),
(111,801,o),
(129,845,o),
(151,887,o),
(163,903,q),
(170,914,o),
(186,932,o),
(194,941,qs),
(233,981,o),
(330,1032,o),
(437,1061,o),
(549,1072,o),
(603,1072,qs),
(666,1072,o),
(806,1054,o),
(934,1007,o),
(1039,924,o),
(1068,859,qs),
(1077,840,o),
(1088,712,o),
(1095,538,o),
(1098,341,o),
(1099,163,o),
(1099,26,o),
(1099,0,q),
(724,0,l),
(712,140,l),
(709,140,l),
(683,94,o),
(621,33,o),
(546,-4,o),
(457,-19,o),
(406,-19,qs)
);
},
{
closed = 1;
nodes = (
(541,212,o),
(617,233,o),
(678,275,o),
(716,337,o),
(716,379,qs),
(716,384,o),
(716,394,o),
(716,399,qs),
(716,439,l),
(579,440,l),
(551,440,o),
(478,427,o),
(413,397,o),
(369,348,o),
(369,312,qs),
(369,283,o),
(393,245,o),
(432,222,o),
(480,212,o),
(504,212,qs)
);
}
);
width = 1185;
},
{
layerId = "7F7FF3B5-2624-4A00-8D8B-13060CA2B611";
shapes = (
{
closed = 1;
nodes = (
(373,-21,o),
(235,19,o),
(130,100,o),
(69,222,o),
(70,303,qs),
(71,380,o),
(121,492,o),
(210,569,o),
(336,615,o),
(492,637,o),
(674,639,o),
(774,634,q),
(764,712,ls),
(759,750,o),
(722,826,o),
(663,888,o),
(582,926,o),
(533,926,qs),
(491,926,o),
(417,906,o),
(355,866,o),
(303,809,o),
(282,771,q),
(115,770,l),
(118,780,o),
(130,810,o),
(145,842,o),
(160,872,o),
(167,881,qs),
(175,891,o),
(189,909,o),
(195,917,qs),
(224,953,o),
(304,1008,o),
(395,1047,o),
(490,1067,o),
(533,1067,qs),
(589,1067,o),
(690,1045,o),
(779,994,o),
(855,911,o),
(887,849,qs),
(902,820,o),
(920,685,o),
(930,513,o),
(934,324,o),
(934,154,o),
(932,25,o),
(932,0,q),
(828,0,l),
(783,166,l),
(783,166,l),
(751,116,o),
(674,46,o),
(589,1,o),
(496,-21,o),
(448,-21,qs)
);
},
{
closed = 1;
nodes = (
(524,119,o),
(631,158,o),
(712,230,o),
(764,332,o),
(771,395,q),
(773,407,o),
(774,433,o),
(774,447,qs),
(774,492,l),
(579,492,ls),
(496,492,o),
(367,476,o),
(279,434,o),
(233,362,o),
(233,307,qs),
(233,261,o),
(271,191,o),
(334,143,o),
(417,119,o),
(462,119,qs)
);
}
);
width = 1044;
}
);
leftKerningGroup = a2;
rightKerningGroup = a;
unicode = 97;
},
{
glyphname = b;
layers = (
{
layerId = "2FE1F5E8-0BE1-472C-82D2-406E458C4580";
shapes = (
{
closed = 1;
nodes = (
(85,1463,l),
(482,1463,l),
(482,894,l),
(486,894,l),
(505,939,o),
(571,1006,o),
(652,1050,o),
(745,1072,o),
(793,1072,qs),
(931,1072,o),
(1133,979,o),
(1264,825,o),
(1326,629,o),
(1326,522,qs),
(1326,421,o),
(1261,224,o),
(1129,70,o),
(930,-24,o),
(798,-24,qs),
(752,-24,o),
(660,-5,o),
(576,31,o),
(507,90,o),
(483,131,q),
(479,131,l),
(416,0,l),
(85,0,l)
);
},
{
closed = 1;
nodes = (
(618,740,o),
(541,700,o),
(491,638,o),
(468,561,o),
(468,522,qs),
(468,483,o),
(491,406,o),
(541,345,o),
(618,306,o),
(670,306,qs),
(732,306,o),
(819,345,o),
(868,408,o),
(890,485,o),
(890,522,qs),
(890,560,o),
(868,636,o),
(821,700,o),
(736,740,o),
(670,740,qs)
);
}
);
width = 1365;
},
{
layerId = "7F7FF3B5-2624-4A00-8D8B-13060CA2B611";
shapes = (
{
closed = 1;
nodes = (
(123,1463,l),
(292,1463,l),
(292,888,l),
(294,888,l),
(323,936,o),
(401,1002,o),
(492,1048,o),
(595,1067,o),
(649,1067,qs),
(767,1067,o),
(952,983,o),
(1078,835,o),
(1144,637,o),
(1144,524,qs),
(1144,412,o),
(1078,213,o),
(952,65,o),
(767,-20,o),
(649,-20,qs),
(598,-20,o),
(492,0,o),
(398,42,o),
(317,108,o),
(290,154,q),
(288,154,l),
(238,0,l),
(123,0,l)
);
},
{
closed = 1;
nodes = (
(533,917,o),
(404,855,o),
(319,748,o),
(278,604,o),
(278,524,qs),
(278,442,o),
(319,300,o),
(403,193,o),
(532,131,o),
(620,131,qs),
(708,131,o),
(837,194,o),
(917,301,o),
(957,443,o),
(957,524,qs),
(957,604,o),
(917,747,o),
(835,854,o),
(708,917,o),
(620,917,qs)
);
}
);
width = 1206;
}
);
leftKerningGroup = b2;
rightKerningGroup = b;
unicode = 98;
},
{
glyphname = c;
layers = (
{
layerId = "2FE1F5E8-0BE1-472C-82D2-406E458C4580";
shapes = (
{
closed = 1;
nodes = (
(438,-24,o),
(185,113,o),
(45,360,o),
(45,524,qs),
(45,688,o),
(185,935,o),
(438,1072,o),
(605,1072,qs),
(720,1072,o),
(913,1006,o),
(1056,883,o),
(1137,715,o),
(1141,613,q),
(762,613,l),
(759,648,o),
(736,704,o),
(698,743,o),
(645,764,o),
(613,764,qs),
(561,764,o),
(486,707,o),
(446,600,o),
(446,524,qs),
(446,449,o),
(486,342,o),
(561,284,o),
(613,284,qs),
(645,284,o),
(698,306,o),
(736,345,o),
(759,402,o),
(762,439,q),
(1141,439,l),
(1141,336,o),
(1063,168,o),
(920,44,o),
(723,-24,o),
(605,-24,qs)
);
}
);
width = 1185;
},
{
layerId = "7F7FF3B5-2624-4A00-8D8B-13060CA2B611";
shapes = (
{
closed = 1;
nodes = (
(435,-24,o),
(194,115,o),
(61,362,o),
(61,522,qs),
(61,682,o),
(194,930,o),
(435,1072,o),
(593,1072,qs),
(691,1072,o),
(858,1017,o),
(986,919,o),
(1066,786,o),
(1075,707,q),
(889,707,l),
(880,753,o),
(833,831,o),
(758,887,o),
(658,919,o),
(593,919,qs),
(486,919,o),
(331,820,o),
(248,642,o),
(248,522,qs),
(248,402,o),
(331,226,o),
(484,129,o),
(593,129,qs),
(658,129,o),
(755,159,o),
(828,215,o),
(875,293,o),
(887,342,q),
(1075,342,l),
(1066,264,o),
(986,131,o),
(857,32,o),
(690,-24,o),
(593,-24,qs)
);
}
);
width = 1126;
}
);
leftKerningGroup = c2;
rightKerningGroup = c;
unicode = 99;
},
{
glyphname = d;
layers = (
{
layerId = "2FE1F5E8-0BE1-472C-82D2-406E458C4580";
shapes = (
{
closed = 1;
nodes = (
(1279,1463,l),
(1279,0,l),
(948,0,l),
(886,131,l),
(881,131,l),
(858,90,o),
(789,32,o),
(705,-5,o),
(613,-24,o),
(567,-24,qs),
(434,-24,o),
(235,70,o),
(104,224,o),
(38,421,o),
(38,522,qs),
(38,629,o),
(101,825,o),
(232,979,o),
(433,1072,o),
(571,1072,qs),
(620,1072,o),
(712,1050,o),
(794,1006,o),
(859,939,o),
(879,894,q),
(882,894,l),
(882,1463,l)
);
},
{
closed = 1;
nodes = (
(630,740,o),
(546,700,o),
(495,636,o),
(475,561,o),
(475,522,qs),
(475,484,o),
(495,409,o),
(547,345,o),
(631,306,o),
(693,306,qs),
(747,306,o),
(824,344,o),
(873,405,o),
(897,483,o),
(897,522,qs),
(897,561,o),
(873,639,o),
(824,700,o),
(748,740,o),
(693,740,qs)
);
}
);
width = 1365;
},
{
layerId = "7F7FF3B5-2624-4A00-8D8B-13060CA2B611";
shapes = (
{
closed = 1;
nodes = (
(1081,1463,l),
(1081,0,l),
(967,0,l),
(918,154,l),
(914,154,l),
(888,108,o),
(808,42,o),
(713,0,o),
(607,-20,o),
(556,-20,qs),
(438,-20,o),
(253,65,o),
(128,213,o),
(62,412,o),
(62,524,qs),
(62,637,o),
(128,835,o),
(253,983,o),
(438,1067,o),
(556,1067,qs),
(611,1067,o),
(713,1048,o),
(803,1002,o),
(882,936,o),
(911,888,q),
(912,888,l),
(912,1463,l)
);
},
{
closed = 1;
nodes = (
(497,917,o),
(371,854,o),
(288,747,o),
(248,604,o),
(248,524,qs),
(248,443,o),
(288,301,o),
(370,194,o),
(497,131,o),
(585,131,qs),
(673,131,o),
(802,193,o),
(886,300,o),
(927,442,o),
(927,524,qs),
(927,604,o),
(886,748,o),
(801,855,o),
(673,917,o),
(585,917,qs)
);
}
);
width = 1204;
}
);
leftKerningGroup = d2;
rightKerningGroup = d;
unicode = 100;
},
{
glyphname = e;
layers = (
{
layerId = "2FE1F5E8-0BE1-472C-82D2-406E458C4580";
shapes = (
{
closed = 1;
nodes = (
(440,-24,o),
(188,115,o),
(45,364,o),
(45,524,qs),
(45,685,o),
(186,931,o),
(434,1072,o),
(594,1072,qs),
(715,1072,o),
(917,993,o),
(1063,849,o),
(1143,653,o),
(1143,534,qs),
(1143,428,l),
(163,428,l),
(163,651,l),
(963,651,l),
(779,612,l),
(779,668,o),
(739,747,o),
(660,789,o),
(605,789,qs),
(551,789,o),
(471,747,o),
(432,668,o),
(432,612,qs),
(432,437,ls),
(432,379,o),
(476,295,o),
(560,252,o),
(618,252,qs),
(660,252,o),
(730,273,o),
(777,314,o),
(789,343,q),
(1137,326,l),
(1120,235,o),
(969,70,o),
(740,-24,o),
(602,-24,qs)
);
}
);
width = 1185;
},
{
layerId = "7F7FF3B5-2624-4A00-8D8B-13060CA2B611";
shapes = (
{
closed = 1;
nodes = (
(438,-24,o),
(192,117,o),
(61,364,o),
(61,522,qs),
(61,681,o),
(199,929,o),
(441,1072,o),
(598,1072,qs),
(722,1072,o),
(921,992,o),
(1061,845,o),
(1136,644,o),
(1136,522,qs),
(1136,476,l),
(161,476,l),
(161,620,l),
(1030,620,l),
(948,570,l),
(948,677,o),
(862,835,o),
(704,921,o),
(598,921,qs),
(492,921,o),
(336,835,o),
(249,677,o),
(249,570,qs),
(249,499,ls),
(249,391,o),
(334,223,o),
(495,129,o),
(612,129,qs),
(695,129,o),
(823,175,o),
(907,259,o),
(926,313,q),
(1116,313,l),
(1093,213,o),
(952,62,o),
(740,-24,o),
(612,-24,qs)
);
}
);
width = 1184;
}
);
leftKerningGroup = c2;
rightKerningGroup = e;
unicode = 101;
},
{
glyphname = f;
layers = (
{
layerId = "2FE1F5E8-0BE1-472C-82D2-406E458C4580";
shapes = (
{
closed = 1;
nodes = (
(909,1048,l),
(909,747,l),
(20,747,l),
(20,1048,l)
);
},
{
closed = 1;
nodes = (
(213,0,l),
(213,1141,ls),
(213,1258,o),
(295,1407,o),
(470,1478,o),
(608,1478,qs),
(675,1478,o),
(899,1481,o),
(926,1481,q),
(926,1178,l),
(909,1178,o),
(843,1178,o),
(717,1176,q),
(658,1176,o),
(610,1129,o),
(610,1072,qs),
(610,0,l)
);
}
);
width = 967;
},
{
layerId = "7F7FF3B5-2624-4A00-8D8B-13060CA2B611";
shapes = (
{
closed = 1;
nodes = (
(755,1049,l),
(741,904,l),
(58,903,l),
(58,1048,l)
);
},
{
closed = 1;
nodes = (
(260,0,l),
(260,1235,ls),
(260,1309,o),
(327,1419,o),
(450,1478,o),
(535,1478,qs),
(570,1478,o),
(746,1478,o),
(755,1478,q),
(755,1335,l),
(746,1335,o),
(570,1335,o),
(551,1335,qs),
(485,1335,o),
(428,1276,o),
(428,1209,qs),
(428,0,l)
);
}
);
width = 773;
}
);
unicode = 102;
},
{
glyphname = g;
layers = (
{
layerId = "2FE1F5E8-0BE1-472C-82D2-406E458C4580";
shapes = (
{
closed = 1;
nodes = (
(453,-428,o),
(230,-333,o),
(114,-172,o),
(105,-112,q),
(471,-71,l),
(480,-96,o),
(521,-134,o),
(585,-156,o),
(627,-156,qs),
(710,-156,o),
(791,-64,o),
(791,32,qs),
(791,194,l),
(790,194,l),
(767,132,o),
(680,53,o),
(567,16,o),
(499,16,qs),
(361,16,o),
(158,151,o),
(45,387,o),
(45,538,qs),
(45,692,o),
(161,933,o),
(362,1072,o),
(494,1072,qs),
(563,1072,o),
(671,1033,o),
(758,960,o),
(790,907,q),
(790,907,l),
(803,1048,l),
(1185,1048,l),
(1185,75,ls),
(1185,-101,o),
(1054,-323,o),
(805,-428,o),
(627,-428,qs)
);
},
{
closed = 1;
nodes = (
(657,343,o),
(750,394,o),
(801,485,o),
(801,546,qs),
(801,607,o),
(750,697,o),
(657,747,o),
(596,747,qs),
(537,747,o),
(453,697,o),
(405,607,o),
(405,546,qs),
(405,485,o),
(453,394,o),
(537,343,o),
(596,343,qs)
);
}
);
width = 1271;
},
{
layerId = "7F7FF3B5-2624-4A00-8D8B-13060CA2B611";
shapes = (
{
closed = 1;
nodes = (
(488,-428,o),
(298,-356,o),
(178,-214,o),
(168,-131,q),
(338,-111,l),
(352,-168,o),
(428,-243,o),
(538,-280,o),
(606,-280,qs),
(742,-280,o),
(911,-134,o),
(911,0,qs),
(911,159,l),
(910,159,l),
(871,98,o),
(760,19,o),
(628,-20,o),
(552,-20,qs),
(403,-20,o),
(178,118,o),
(53,362,o),
(53,524,qs),
(53,686,o),
(178,930,o),
(403,1067,o),
(552,1067,qs),
(627,1067,o),
(762,1030,o),
(875,948,o),
(912,884,q),
(913,884,l),
(985,1048,l),
(1077,1048,l),
(1077,0,ls),
(1077,-154,o),
(950,-343,o),
(727,-428,o),
(606,-428,qs)
);
},
{
closed = 1;
nodes = (
(686,132,o),
(843,229,o),
(923,405,o),
(923,524,qs),
(923,643,o),
(843,819,o),
(686,918,o),
(579,918,qs),
(480,918,o),
(327,828,o),
(241,653,o),
(241,524,qs),
(241,396,o),
(327,222,o),
(480,132,o),
(579,132,qs)
);
}
);
width = 1197;
}
);
leftKerningGroup = g2;
rightKerningGroup = g;
unicode = 103;
},
{
glyphname = h;
layers = (
{
layerId = "7F7FF3B5-2624-4A00-8D8B-13060CA2B611";
shapes = (
{
closed = 1;
nodes = (
(292,0,l),
(122,0,l),
(122,1478,l),
(292,1478,l),
(292,794,l),
(241,794,l),
(292,936,o),
(475,1067,o),
(599,1067,qs),
(706,1067,o),
(881,975,o),
(985,791,o),
(985,651,qs),
(985,0,l),
(817,0,l),
(817,639,ls),
(817,775,o),
(686,912,o),
(568,912,qs),
(491,912,o),
(366,852,o),
(292,720,o),
(292,613,qs)
);
}
);
width = 1097;
},
{
layerId = "2FE1F5E8-0BE1-472C-82D2-406E458C4580";
shapes = (
{
closed = 1;
nodes = (
(482,0,l),
(85,0,l),
(85,1478,l),
(482,1478,l),
(482,759,l),
(425,759,l),
(475,897,o),
(659,1072,o),
(818,1072,qs),
(935,1072,o),
(1092,971,o),
(1171,788,o),
(1171,660,qs),
(1171,0,l),
(774,0,l),
(774,571,ls),
(774,651,o),
(699,736,o),
(629,736,qs),
(581,736,o),
(516,697,o),
(482,616,o),
(482,555,qs)
);
}
);
width = 1256;
}
);
leftKerningGroup = b2;
rightKerningGroup = a;
unicode = 104;
},
{
glyphname = k;
layers = (
{
layerId = "2FE1F5E8-0BE1-472C-82D2-406E458C4580";
shapes = (
{
closed = 1;
nodes = (
(85,0,l),
(85,1478,l),
(482,1478,l),
(482,670,l),
(538,670,l),
(790,1048,l),
(1246,1048,l),
(890,531,l),
(1248,0,l),
(786,0,l),
(558,353,l),
(482,353,l),
(482,0,l)
);
}
);
width = 1296;
},
{
layerId = "7F7FF3B5-2624-4A00-8D8B-13060CA2B611";
shapes = (
{
closed = 1;
nodes = (
(123,0,l),
(132,1478,l),
(300,1478,l),
(292,595,l),
(405,595,l),
(807,1048,l),
(1022,1048,l),
(576,542,l),
(1028,0,l),
(814,0,l),
(449,437,l),
(292,437,l),
(292,0,l)
);
}
);
width = 1003;
}
);
leftKerningGroup = b2;
unicode = 107;
},
{
glyphname = l;
layers = (
{
layerId = "2FE1F5E8-0BE1-472C-82D2-406E458C4580";
shapes = (
{
closed = 1;
nodes = (
(482,1478,l),
(482,0,l),
(85,0,l),
(85,1478,l)
);
}
);
width = 568;
},
{
layerId = "7F7FF3B5-2624-4A00-8D8B-13060CA2B611";
shapes = (
{
closed = 1;
nodes = (
(292,1478,l),
(292,0,l),
(122,0,l),
(122,1478,l)
);
}
);
width = 412;
}
);
leftKerningGroup = b2;
rightKerningGroup = d;
unicode = 108;
},
{
glyphname = m;
layers = (
{
layerId = "7F7FF3B5-2624-4A00-8D8B-13060CA2B611";
shapes = (
{
closed = 1;
nodes = (
(123,0,l),
(123,1048,l),
(240,1048,l),
(288,834,l),
(267,834,l),
(298,909,o),
(399,1014,o),
(528,1067,o),
(599,1067,qs),
(721,1067,o),
(893,928,o),
(914,834,q),
(880,834,l),
(903,899,o),
(999,1005,o),
(1141,1067,o),
(1229,1067,qs),
(1326,1067,o),
(1483,985,o),
(1578,816,o),
(1578,687,qs),
(1578,0,l),
(1410,0,l),
(1410,687,ls),
(1410,810,o),
(1272,912,o),
(1182,912,qs),
(1105,912,o),
(995,849,o),
(935,739,o),
(935,667,qs),
(935,0,l),
(766,0,l),
(766,705,ls),
(766,799,o),
(640,912,o),
(545,912,qs),
(479,912,o),
(363,852,o),
(292,730,o),
(292,639,qs),
(292,0,l)
);
}
);
width = 1690;
},
{
layerId = "2FE1F5E8-0BE1-472C-82D2-406E458C4580";
shapes = (
{
closed = 1;
nodes = (
(85,0,l),
(85,1048,l),
(403,1048,l),
(466,794,l),
(453,794,l),
(477,889,o),
(578,1013,o),
(714,1072,o),
(790,1072,qs),
(907,1072,o),
(1088,935,o),
(1106,794,q),
(1077,794,l),
(1095,887,o),
(1199,1010,o),
(1349,1072,o),
(1433,1072,qs),
(1538,1072,o),
(1698,980,o),
(1788,814,o),
(1788,700,qs),
(1788,0,l),
(1391,0,l),
(1391,601,ls),
(1391,673,o),
(1318,756,o),
(1256,756,qs),
(1216,756,o),
(1158,719,o),
(1126,649,o),
(1126,601,qs),
(1126,0,l),
(749,0,l),
(749,601,ls),
(749,673,o),
(676,756,o),
(614,756,qs),
(574,756,o),
(514,719,o),
(482,649,o),
(482,601,qs),
(482,0,l)
);
}
);
width = 1873;
}
);
leftKerningGroup = m;
rightKerningGroup = a;
unicode = 109;
},
{
glyphname = n;
layers = (
{
layerId = "2FE1F5E8-0BE1-472C-82D2-406E458C4580";
shapes = (
{
closed = 1;
nodes = (
(482,0,l),
(85,0,l),
(85,1048,l),
(405,1048,l),
(478,759,l),
(425,759,l),
(475,897,o),
(659,1072,o),
(818,1072,qs),
(935,1072,o),
(1092,971,o),
(1171,788,o),
(1171,660,qs),
(1171,0,l),
(774,0,l),
(774,571,ls),
(774,651,o),
(699,736,o),
(629,736,qs),
(581,736,o),
(516,697,o),
(482,616,o),
(482,555,qs)
);
}
);
width = 1256;
},
{
layerId = "7F7FF3B5-2624-4A00-8D8B-13060CA2B611";
shapes = (
{
closed = 1;
nodes = (
(292,0,l),
(122,0,l),
(122,1048,l),
(230,1048,l),
(288,794,l),
(241,794,l),
(292,936,o),
(475,1067,o),
(599,1067,qs),
(706,1067,o),
(881,975,o),
(985,791,o),
(985,651,qs),
(985,0,l),
(817,0,l),
(817,639,ls),
(817,775,o),
(686,912,o),
(568,912,qs),
(491,912,o),
(366,852,o),
(292,720,o),
(292,613,qs)
);
}
);
width = 1097;
}
);
leftKerningGroup = m;
rightKerningGroup = a;
unicode = 110;
},
{
glyphname = o;
layers = (
{
layerId = "2FE1F5E8-0BE1-472C-82D2-406E458C4580";
shapes = (
{
closed = 1;
nodes = (
(492,-24,o),
(282,51,o),
(130,193,o),
(45,396,o),
(45,524,qs),
(45,652,o),
(130,855,o),
(283,997,o),
(493,1072,o),
(617,1072,qs),
(743,1072,o),
(952,997,o),
(1104,856,o),
(1189,652,o),
(1189,524,qs),
(1189,396,o),
(1104,192,o),
(952,51,o),
(743,-24,o),
(617,-24,qs)
);
},
{
closed = 1;
nodes = (
(663,322,o),
(736,352,o),
(787,405,o),
(815,479,o),
(815,524,qs),
(815,569,o),
(788,644,o),
(737,697,o),
(663,726,o),
(617,726,qs),
(571,726,o),
(498,697,o),
(447,644,o),
(420,570,o),
(420,524,qs),
(420,479,o),
(447,405,o),
(499,352,o),
(572,322,o),
(617,322,qs)
);
}
);
width = 1235;
},
{
layerId = "7F7FF3B5-2624-4A00-8D8B-13060CA2B611";
shapes = (
{
closed = 1;
nodes = (
(491,-24,o),
(289,55,o),
(143,199,o),
(62,400,o),
(62,522,qs),
(62,644,o),
(142,846,o),
(288,992,o),
(491,1072,o),
(613,1072,qs),
(735,1072,o),
(937,991,o),
(1082,845,o),
(1162,643,o),
(1162,522,qs),
(1162,400,o),
(1081,199,o),
(936,55,o),
(734,-24,o),
(613,-24,qs)
);
},
{
closed = 1;
nodes = (
(704,122,o),
(839,183,o),
(929,291,o),
(974,437,o),
(974,522,qs),
(974,607,o),
(930,755,o),
(840,864,o),
(704,927,o),
(613,927,qs),
(521,927,o),
(384,865,o),
(293,757,o),
(248,608,o),
(248,522,qs),
(248,435,o),
(293,289,o),
(385,182,o),
(522,122,o),
(613,122,qs)
);
}
);
width = 1224;
}
);
leftKerningGroup = c2;
rightKerningGroup = o;
unicode = 111;
},
{
glyphname = p;
layers = (
{
layerId = "7F7FF3B5-2624-4A00-8D8B-13060CA2B611";
shapes = (
{
closed = 1;
nodes = (
(123,-415,l),
(123,1048,l),
(238,1048,l),
(288,894,l),
(291,894,l),
(323,951,o),
(435,1029,o),
(575,1067,o),
(649,1067,qs),
(798,1067,o),
(1020,930,o),
(1144,686,o),
(1144,524,qs),
(1144,362,o),
(1020,118,o),
(798,-20,o),
(649,-20,qs),
(575,-20,o),
(443,19,o),
(332,98,o),
(294,159,q),
(292,159,l),
(292,-415,l)
);
},
{
closed = 1;
nodes = (
(719,132,o),
(871,222,o),
(957,396,o),
(957,524,qs),
(957,653,o),
(871,828,o),
(719,918,o),
(620,918,qs),
(514,918,o),
(359,819,o),
(278,643,o),
(278,524,qs),
(278,405,o),
(359,229,o),
(514,132,o),
(620,132,qs)
);
}
);
width = 1206;
},
{
layerId = "2FE1F5E8-0BE1-472C-82D2-406E458C4580";
shapes = (
{
closed = 1;
nodes = (
(85,-415,l),
(85,1048,l),
(416,1048,l),
(479,918,l),
(483,918,l),
(515,968,o),
(613,1037,o),
(742,1072,o),
(821,1072,qs),
(976,1072,o),
(1212,932,o),
(1346,687,o),
(1346,526,qs),
(1346,359,o),
(1216,112,o),
(978,-24,o),
(817,-24,qs),
(735,-24,o),
(605,18,o),
(510,97,o),
(486,154,q),
(482,154,l),
(482,-415,l)
);
},
{
closed = 1;
nodes = (
(748,300,o),
(837,354,o),
(884,456,o),
(884,526,qs),
(884,595,o),
(837,696,o),
(748,751,o),
(684,751,qs),
(619,751,o),
(519,696,o),
(468,595,o),
(468,526,qs),
(468,456,o),
(519,354,o),
(619,300,o),
(684,300,qs)
);
}
);
width = 1385;
}
);
rightKerningGroup = b;
unicode = 112;
},
{
glyphname = q;
layers = (
{
layerId = "2FE1F5E8-0BE1-472C-82D2-406E458C4580";
shapes = (
{
closed = 1;
nodes = (
(1185,-415,l),
(789,-415,l),
(789,154,l),
(784,154,l),
(759,97,o),
(679,18,o),
(568,-24,o),
(499,-24,qs),
(361,-24,o),
(157,112,o),
(45,359,o),
(45,526,qs),
(45,687,o),
(161,932,o),
(362,1072,o),
(493,1072,qs),
(563,1072,o),
(671,1037,o),
(756,968,o),
(788,918,q),
(792,918,l),
(878,1048,l),
(1185,1048,l)
);
},
{
closed = 1;
nodes = (
(670,288,o),
(754,347,o),
(801,454,o),
(801,526,qs),
(801,599,o),
(754,704,o),
(670,762,o),
(616,762,qs),
(563,762,o),
(486,704,o),
(446,599,o),
(446,526,qs),
(446,454,o),
(486,347,o),
(563,288,o),
(616,288,qs)
);
}
);
width = 1271;
},
{
layerId = "7F7FF3B5-2624-4A00-8D8B-13060CA2B611";
shapes = (
{
closed = 1;
nodes = (
(1082,-415,l),
(913,-415,l),
(913,159,l),
(911,159,l),
(872,98,o),
(762,19,o),
(629,-20,o),
(557,-20,qs),
(408,-20,o),
(184,118,o),
(61,362,o),
(61,524,qs),
(61,686,o),
(184,930,o),
(408,1067,o),
(557,1067,qs),
(629,1067,o),
(768,1029,o),
(880,951,o),
(915,894,q),
(917,894,l),
(967,1048,l),
(1082,1048,l)
);
},
{
closed = 1;
nodes = (
(690,132,o),
(847,229,o),
(928,405,o),
(928,524,qs),
(928,643,o),
(847,819,o),
(690,918,o),
(584,918,qs),
(486,918,o),
(333,828,o),
(247,653,o),
(247,524,qs),
(247,396,o),
(333,222,o),
(486,132,o),
(584,132,qs)
);
}
);
width = 1204;
}
);
leftKerningGroup = d2;
unicode = 113;
},
{
glyphname = r;
layers = (
{
layerId = "2FE1F5E8-0BE1-472C-82D2-406E458C4580";
shapes = (
{
closed = 1;
nodes = (
(85,0,l),
(85,1048,l),
(420,1048,l),
(470,858,l),
(471,858,l),
(502,964,o),
(622,1046,o),
(730,1048,qs),
(846,1050,o),
(894,1050,o),
(918,1050,q),
(936,732,l),
(722,730,o),
(685,730,qs),
(623,730,o),
(531,675,o),
(482,572,o),
(482,502,qs),
(482,0,l)
);
}
);
width = 962;
},
{
layerId = "7F7FF3B5-2624-4A00-8D8B-13060CA2B611";
shapes = (
{
closed = 1;
nodes = (
(123,0,l),
(123,1048,l),
(233,1048,l),
(274,900,l),
(274,900,l),
(317,965,o),
(459,1049,o),
(557,1049,qs),
(580,1049,o),
(589,1049,o),
(597,1049,q),
(614,890,l),
(614,890,o),
(511,889,qs),
(453,888,o),
(351,847,o),
(292,734,o),
(292,645,qs),
(292,0,l)
);
}
);
width = 661;
}
);
leftKerningGroup = m;
rightKerningGroup = r;
unicode = 114;
},
{
glyphname = s;
layers = (
{
layerId = "7F7FF3B5-2624-4A00-8D8B-13060CA2B611";
shapes = (
{
closed = 1;
nodes = (
(456,-24,o),
(316,4,o),
(190,72,o),
(94,183,o),
(76,266,q),
(230,290,l),
(250,243,o),
(308,179,o),
(379,139,o),
(465,122,o),
(513,122,qs),
(557,122,o),
(643,137,o),
(711,173,o),
(753,236,o),
(752,284,q),
(752,323,o),
(698,377,o),
(609,418,o),
(497,451,o),
(379,489,o),
(267,536,o),
(179,605,o),
(125,700,o),
(125,767,q),
(126,848,o),
(188,964,o),
(292,1038,o),
(430,1072,o),
(505,1072,qs),
(570,1072,o),
(693,1039,o),
(800,971,o),
(885,868,o),
(912,799,q),
(760,774,l),
(739,811,o),
(688,868,o),
(625,907,o),
(550,927,o),
(505,927,qs),
(468,927,o),
(393,914,o),
(333,879,o),
(295,821,o),
(294,776,q),
(294,734,o),
(347,677,o),
(436,635,o),
(549,601,o),
(666,564,o),
(780,517,o),
(868,449,o),
(922,353,o),
(922,286,qs),
(922,203,o),
(849,85,o),
(733,11,o),
(589,-24,o),
(517,-24,qs)
);
}
);
width = 982;
},
{
layerId = "2FE1F5E8-0BE1-472C-82D2-406E458C4580";
shapes = (
{
closed = 1;
nodes = (
(491,-26,o),
(306,12,o),
(151,99,o),
(46,241,o),
(36,343,q),
(426,343,l),
(431,315,o),
(458,275,o),
(498,249,o),
(547,237,o),
(573,237,qs),
(589,237,o),
(632,242,o),
(671,256,o),
(697,282,o),
(697,304,qs),
(697,331,o),
(642,361,o),
(553,379,o),
(438,394,o),
(319,419,o),
(204,460,o),
(115,531,o),
(60,639,o),
(60,718,qs),
(60,821,o),
(152,955,o),
(297,1035,o),
(473,1068,o),
(558,1068,qs),
(647,1068,o),
(827,1032,o),
(973,946,o),
(1068,805,o),
(1072,700,q),
(710,700,l),
(710,727,o),
(685,767,o),
(645,794,o),
(597,807,o),
(573,807,qs),
(558,807,o),
(517,802,o),
(480,787,o),
(455,761,o),
(455,740,qs),
(455,712,o),
(510,680,o),
(601,660,o),
(717,646,o),
(837,624,o),
(953,587,o),
(1044,523,o),
(1099,424,o),
(1099,351,qs),
(1099,247,o),
(1002,103,o),
(851,14,o),
(667,-26,o),
(580,-26,qs)
);
}
);
width = 1136;
}
);
leftKerningGroup = s2;
rightKerningGroup = s;
unicode = 115;
},
{
glyphname = t;
layers = (
{
layerId = "2FE1F5E8-0BE1-472C-82D2-406E458C4580";
shapes = (
{
closed = 1;
nodes = (
(940,1048,l),
(914,732,l),
(593,732,l),
(593,456,ls),
(593,410,o),
(631,302,o),
(685,302,qs),
(889,302,l),
(880,0,l),
(591,0,ls),
(384,0,o),
(196,223,o),
(196,386,qs),
(196,732,l),
(20,732,l),
(20,1048,l),
(196,1048,l),
(254,1335,l),
(593,1335,l),
(593,1048,l)
);
}
);
width = 973;
},
{
layerId = "7F7FF3B5-2624-4A00-8D8B-13060CA2B611";
shapes = (
{
closed = 1;
nodes = (
(709,1048,l),
(709,903,l),
(382,903,l),
(382,327,ls),
(382,266,o),
(434,154,o),
(499,148,q),
(723,148,l),
(709,1,l),
(517,0,ls),
(381,-1,o),
(214,181,o),
(214,299,qs),
(214,903,l),
(37,903,l),
(37,1048,l),
(214,1048,l),
(268,1335,l),
(382,1335,l),
(382,1048,l)
);
}
);
width = 781;
}
);
leftKerningGroup = t2;
rightKerningGroup = t;
unicode = 116;
},
{
glyphname = u;
layers = (
{
layerId = "2FE1F5E8-0BE1-472C-82D2-406E458C4580";
shapes = (
{
closed = 1;
nodes = (
(323,-24,o),
(164,76,o),
(85,261,o),
(85,387,qs),
(85,1048,l),
(482,1048,l),
(482,477,ls),
(482,398,o),
(559,312,o),
(629,312,qs),
(675,312,o),
(740,352,o),
(774,433,o),
(774,491,qs),
(774,1048,l),
(1171,1048,l),
(1171,0,l),
(845,0,l),
(779,289,l),
(831,289,l),
(781,152,o),
(598,-24,o),
(439,-24,qs)
);
}
);
width = 1256;
},
{
layerId = "7F7FF3B5-2624-4A00-8D8B-13060CA2B611";
shapes = (
{
closed = 1;
nodes = (
(391,-20,o),
(216,72,o),
(111,258,o),
(111,397,qs),
(111,1048,l),
(280,1048,l),
(280,409,ls),
(280,273,o),
(411,134,o),
(527,134,qs),
(605,134,o),
(729,196,o),
(805,330,o),
(805,435,qs),
(805,1048,l),
(973,1048,l),
(973,0,l),
(870,0,l),
(808,254,l),
(855,254,l),
(805,113,o),
(620,-20,o),
(497,-20,qs)
);
}
);
width = 1095;
}
);
leftKerningGroup = u2;
rightKerningGroup = u;
unicode = 117;
},
{
glyphname = v;
layers = (
{
layerId = "7F7FF3B5-2624-4A00-8D8B-13060CA2B611";
shapes = (
{
closed = 1;
nodes = (
(399,0,l),
(-5,1048,l),
(178,1048,l),
(502,169,l),
(533,169,l),
(863,1046,l),
(1032,1046,l),
(628,0,l)
);
}
);
width = 1028;
},
{
layerId = "2FE1F5E8-0BE1-472C-82D2-406E458C4580";
shapes = (
{
closed = 1;
nodes = (
(372,0,l),
(-4,1048,l),
(410,1048,l),
(609,204,l),
(613,204,l),
(852,1048,l),
(1260,1048,l),
(828,0,l)
);
}
);
width = 1198;
}
);
unicode = 118;
},
{
glyphname = w;
layers = (
{
layerId = "7F7FF3B5-2624-4A00-8D8B-13060CA2B611";
shapes = (
{
closed = 1;
nodes = (
(362,0,l),
(36,1048,l),
(212,1048,l),
(435,195,l),
(465,195,l),
(686,1048,l),
(854,1048,l),
(1073,203,l),
(1104,203,l),
(1329,1048,l),
(1505,1048,l),
(1179,0,l),
(1003,0,l),
(787,833,l),
(756,833,l),
(535,0,l)
);
}
);
width = 1541;
},
{
layerId = "2FE1F5E8-0BE1-472C-82D2-406E458C4580";
shapes = (
{
closed = 1;
nodes = (
(317,0,l),
(-4,1048,l),
(413,1048,l),
(559,385,l),
(571,385,l),
(717,1048,l),
(1062,1048,l),
(1221,382,l),
(1234,382,l),
(1358,1048,l),
(1782,1048,l),
(1461,0,l),
(1052,0,l),
(896,571,l),
(883,571,l),
(727,0,l)
);
}
);
width = 1779;
}
);
leftKerningGroup = w2;
rightKerningGroup = w;
unicode = 119;
},
{
glyphname = x;
layers = (
{
layerId = "2FE1F5E8-0BE1-472C-82D2-406E458C4580";
shapes = (
{
closed = 1;
nodes = (
(-4,0,l),
(405,604,l),
(396,476,l),
(25,1048,l),
(447,1048,l),
(498,952,l),
(534,880,o),
(599,754,o),
(630,690,q),
(527,690,l),
(560,754,o),
(623,880,o),
(663,952,q),
(714,1048,l),
(1131,1048,l),
(743,476,l),
(753,604,l),
(1147,0,l),
(721,0,l),
(670,95,ls),
(632,166,o),
(568,288,o),
(535,350,q),
(613,350,l),
(580,288,o),
(516,166,o),
(476,95,qs),
(421,0,l)
);
}
);
width = 1143;
},
{
layerId = "7F7FF3B5-2624-4A00-8D8B-13060CA2B611";
shapes = (
{
closed = 1;
nodes = (
(6,0,l),
(445,600,l),
(444,469,l),
(29,1048,l),
(228,1048,l),
(368,841,ls),
(411,779,o),
(493,658,o),
(535,595,q),
(451,595,l),
(494,658,o),
(577,779,o),
(619,841,q),
(763,1048,l),
(958,1048,l),
(543,469,l),
(543,601,l),
(976,0,l),
(779,0,l),
(612,238,l),
(571,298,o),
(491,415,o),
(450,476,q),
(535,476,l),
(494,415,o),
(412,298,o),
(370,238,qs),
(202,0,l)
);
}
);
width = 983;
}
);
unicode = 120;
},
{
glyphname = y;
layers = (
{
layerId = "7F7FF3B5-2624-4A00-8D8B-13060CA2B611";
shapes = (
{
closed = 1;
nodes = (
(36,-411,l),
(-5,-261,l),
(221,-266,l),
(248,-266,o),
(281,-270,o),
(303,-264,o),
(321,-238,o),
(345,-177,o),
(382,-73,o),
(412,8,q),
(412,8,o),
(413,8,o),
(412,8,q),
(7,1048,l),
(190,1048,l),
(216,979,o),
(267,840,o),
(317,701,o),
(366,562,o),
(415,422,o),
(463,282,o),
(487,211,q),
(515,211,l),
(539,281,o),
(586,421,o),
(634,561,o),
(683,701,o),
(732,840,o),
(782,979,o),
(807,1048,q),
(987,1048,l),
(512,-190,ls),
(482,-269,o),
(404,-359,o),
(322,-404,o),
(243,-415,o),
(213,-415,q)
);
}
);
width = 982;
},
{
layerId = "2FE1F5E8-0BE1-472C-82D2-406E458C4580";
shapes = (
{
closed = 1;
nodes = (
(126,-415,l),
(126,-113,l),
(285,-113,ls),
(307,-113,o),
(338,-106,o),
(360,-93,o),
(374,-73,o),
(385,-48,o),
(394,-17,o),
(400,0,q),
(401,0,o),
(398,0,o),
(398,0,q),
(-4,1048,l),
(409,1048,l),
(417,1021,o),
(446,918,o),
(481,791,o),
(519,651,o),
(554,524,o),
(583,421,o),
(591,394,q),
(606,394,l),
(616,425,o),
(646,531,o),
(682,658,o),
(722,796,o),
(757,921,o),
(786,1022,o),
(794,1048,q),
(1203,1048,l),
(759,-133,ls),
(733,-202,o),
(672,-307,o),
(587,-378,o),
(474,-415,o),
(396,-415,qs)
);
}
);
width = 1198;
}
);
leftKerningGroup = y2;
rightKerningGroup = y;
unicode = 121;
},
{
glyphname = z;
layers = (
{
layerId = "2FE1F5E8-0BE1-472C-82D2-406E458C4580";
shapes = (
{
closed = 1;
nodes = (
(97,0,l),
(97,254,l),
(571,744,l),
(571,747,l),
(97,747,l),
(97,1048,l),
(1032,1048,l),
(1032,778,l),
(571,302,l),
(571,300,l),
(1042,300,l),
(1042,0,l)
);
}
);
width = 1139;
},
{
layerId = "7F7FF3B5-2624-4A00-8D8B-13060CA2B611";
shapes = (
{
closed = 1;
nodes = (
(47,0,l),
(47,129,l),
(620,894,l),
(620,898,l),
(47,898,l),
(47,1048,l),
(828,1048,l),
(828,912,l),
(261,154,l),
(261,151,l),
(831,151,l),
(831,0,l)
);
}
);
width = 889;
}
);
leftKerningGroup = z2;
rightKerningGroup = z;
unicode = 122;
},
{
glyphname = braceleft;
layers = (
{
layerId = "7F7FF3B5-2624-4A00-8D8B-13060CA2B611";
shapes = (
{
closed = 1;
nodes = (
(119,717,l),
(240,717,o),
(334,817,o),
(334,935,qs),
(334,1167,ls),
(334,1265,o),
(372,1412,o),
(459,1507,o),
(604,1553,o),
(709,1553,q),
(709,1409,l),
(584,1409,o),
(498,1295,o),
(498,1167,qs),
(498,878,ls),
(498,820,o),
(465,721,o),
(384,646,o),
(235,603,o),
(119,603,q)
);
},
{
closed = 1;
nodes = (
(709,-292,l),
(604,-292,o),
(459,-245,o),
(372,-151,o),
(334,-4,o),
(334,95,qs),
(334,326,ls),
(334,443,o),
(240,546,o),
(119,546,q),
(119,659,l),
(236,659,o),
(384,615,o),
(465,539,o),
(498,439,o),
(498,382,qs),
(498,94,ls),
(498,-32,o),
(584,-147,o),
(709,-147,q)
);
},
{
closed = 1;
nodes = (
(119,545,l),
(119,718,l),
(290,718,l),
(290,545,l)
);
}
);
width = 808;
},
{
layerId = "2FE1F5E8-0BE1-472C-82D2-406E458C4580";
shapes = (
{
closed = 1;
nodes = (
(120,803,l),
(246,803,o),
(344,904,o),
(344,1010,qs),
(344,1137,ls),
(344,1294,o),
(442,1464,o),
(608,1538,o),
(817,1553,o),
(928,1553,q),
(928,1260,l),
(812,1260,o),
(731,1189,o),
(731,1086,qs),
(731,910,ls),
(731,858,o),
(682,744,o),
(552,651,o),
(313,591,o),
(120,591,q)
);
},
{
closed = 1;
nodes = (
(928,-292,l),
(817,-292,o),
(608,-276,o),
(442,-203,o),
(344,-30,o),
(344,125,qs),
(344,252,ls),
(344,358,o),
(246,459,o),
(120,459,q),
(120,670,l),
(313,670,o),
(552,612,o),
(683,519,o),
(731,404,o),
(731,352,qs),
(731,176,ls),
(731,74,o),
(812,2,o),
(928,2,q)
);
},
{
closed = 1;
nodes = (
(120,459,l),
(120,803,l),
(478,803,l),
(478,459,l)
);
}
);
width = 988;
}
);
rightKerningGroup = braceleft;
unicode = 123;
},
{
glyphname = bar;
layers = (
{
layerId = "7F7FF3B5-2624-4A00-8D8B-13060CA2B611";
shapes = (
{
closed = 1;
nodes = (
(324,1548,l),
(324,-224,l),
(180,-224,l),
(180,1548,l)
);
}
);
width = 505;
},
{
layerId = "2FE1F5E8-0BE1-472C-82D2-406E458C4580";
shapes = (
{
closed = 1;
nodes = (
(590,1548,l),
(590,-224,l),
(201,-224,l),
(201,1548,l)
);
}
);
width = 792;
}
);
unicode = 124;
},
{
glyphname = braceright;
layers = (
{
layerId = "7F7FF3B5-2624-4A00-8D8B-13060CA2B611";
shapes = (
{
closed = 1;
nodes = (
(691,603,l),
(573,603,o),
(425,646,o),
(343,721,o),
(311,820,o),
(311,878,qs),
(311,1167,ls),
(311,1295,o),
(224,1409,o),
(98,1409,q),
(98,1553,l),
(204,1553,o),
(348,1507,o),
(435,1412,o),
(473,1265,o),
(473,1167,qs),
(473,935,ls),
(473,817,o),
(571,717,o),
(691,717,q)
);
},
{
closed = 1;
nodes = (
(98,-147,l),
(224,-147,o),
(311,-32,o),
(311,95,qs),
(311,382,ls),
(311,439,o),
(343,539,o),
(425,615,o),
(573,659,o),
(691,659,q),
(691,546,l),
(571,545,o),
(473,443,o),
(473,326,qs),
(473,95,ls),
(473,-4,o),
(435,-151,o),
(348,-245,o),
(204,-292,o),
(98,-292,q)
);
},
{
closed = 1;
nodes = (
(691,546,l),
(517,545,l),
(517,718,l),
(691,717,l)
);
}
);
width = 809;
},
{
layerId = "2FE1F5E8-0BE1-472C-82D2-406E458C4580";
shapes = (
{
closed = 1;
nodes = (
(867,591,l),
(676,591,o),
(435,651,o),
(304,744,o),
(256,858,o),
(256,910,qs),
(256,1086,ls),
(256,1189,o),
(175,1260,o),
(60,1260,q),
(60,1553,l),
(172,1553,o),
(380,1538,o),
(546,1464,o),
(643,1294,o),
(643,1137,qs),
(643,1010,ls),
(643,904,o),
(741,803,o),
(867,803,q)
);
},
{
closed = 1;
nodes = (
(60,2,l),
(175,2,o),
(256,74,o),
(256,176,qs),
(256,352,ls),
(256,404,o),
(304,519,o),
(435,612,o),
(676,670,o),
(867,670,q),
(867,459,l),
(741,459,o),
(643,358,o),
(643,252,qs),
(643,125,ls),
(643,-30,o),
(546,-203,o),
(380,-276,o),
(172,-292,o),
(60,-292,q)
);
},
{
closed = 1;
nodes = (
(867,459,l),
(510,459,l),
(510,803,l),
(867,803,l)
);
}
);
width = 988;
}
);
leftKerningGroup = braceright;
unicode = 125;
},
{
glyphname = asciitilde;
layers = (
{
layerId = "7F7FF3B5-2624-4A00-8D8B-13060CA2B611";
shapes = (
{
closed = 1;
nodes = (
(75,439,l),
(74,559,o),
(155,705,o),
(287,770,o),
(363,770,qs),
(435,770,o),
(558,707,o),
(637,637,qs),
(690,591,o),
(753,553,o),
(791,553,qs),
(853,553,o),
(927,644,o),
(924,730,q),
(1081,730,l),
(1083,611,o),
(1001,465,o),
(869,399,o),
(795,399,qs),
(721,399,o),
(599,462,o),
(520,531,qs),
(467,578,o),
(403,615,o),
(365,615,qs),
(306,615,o),
(231,532,o),
(232,439,q)
);
}
);
width = 1159;
},
{
layerId = "2FE1F5E8-0BE1-472C-82D2-406E458C4580";
shapes = (
{
closed = 1;
nodes = (
(131,373,l),
(125,522,o),
(195,739,o),
(346,858,o),
(461,858,qs),
(525,858,o),
(651,807,o),
(729,736,q),
(763,707,o),
(816,667,o),
(854,667,qs),
(898,667,o),
(960,741,o),
(957,828,q),
(1246,828,l),
(1253,680,o),
(1177,462,o),
(1028,343,o),
(918,343,qs),
(846,343,o),
(719,400,o),
(645,464,q),
(605,501,o),
(561,533,o),
(524,533,qs),
(479,533,o),
(418,460,o),
(421,373,q)
);
}
);
width = 1377;
}
);
unicode = 126;
},
{
glyphname = exclamdown;
layers = (
{
layerId = "2FE1F5E8-0BE1-472C-82D2-406E458C4580";
shapes = (
{
closed = 1;
nodes = (
(64,-415,l),
(102,585,l),
(446,585,l),
(484,-415,l)
);
},
{
closed = 1;
nodes = (
(189,659,o),
(67,779,o),
(67,865,qs),
(67,950,o),
(189,1072,o),
(273,1072,qs),
(359,1072,o),
(481,950,o),
(481,865,qs),
(481,779,o),
(359,659,o),
(273,659,qs)
);
}
);
width = 548;
},
{
layerId = "7F7FF3B5-2624-4A00-8D8B-13060CA2B611";
shapes = (
{
closed = 1;
nodes = (
(162,-415,l),
(174,649,l),
(344,649,l),
(357,-415,l)
);
},
{
closed = 1;
nodes = (
(204,812,o),
(129,888,o),
(129,941,qs),
(129,995,o),
(204,1072,o),
(258,1072,qs),
(311,1072,o),
(390,995,o),
(390,941,qs),
(390,888,o),
(311,812,o),
(258,812,qs)
);
}
);
width = 519;
}
);
unicode = 161;
},
{
glyphname = cent;
layers = (
{
layerId = "2FE1F5E8-0BE1-472C-82D2-406E458C4580";
shapes = (
{
closed = 1;
nodes = (
(560,0,l),
(560,1478,l),
(663,1478,l),
(663,0,l)
);
},
{
closed = 1;
nodes = (
(438,192,o),
(185,329,o),
(45,575,o),
(45,740,qs),
(45,903,o),
(185,1150,o),
(438,1286,o),
(605,1286,qs),
(720,1286,o),
(913,1220,o),
(1056,1098,o),
(1137,930,o),
(1141,829,q),
(762,829,l),
(759,863,o),
(736,919,o),
(698,958,o),
(645,979,o),
(613,979,qs),
(561,979,o),
(486,922,o),
(446,815,o),
(446,740,qs),
(446,665,o),
(486,556,o),
(561,500,o),
(613,500,qs),
(645,500,o),
(698,522,o),
(736,561,o),
(759,618,o),
(762,654,q),
(1141,654,l),
(1141,551,o),
(1063,382,o),
(920,259,o),
(723,192,o),
(605,192,qs)
);
}
);
width = 1185;
},
{
layerId = "7F7FF3B5-2624-4A00-8D8B-13060CA2B611";
shapes = (
{
closed = 1;
nodes = (
(467,0,l),
(467,1478,l),
(613,1478,l),
(613,0,l)
);
},
{
closed = 1;
nodes = (
(399,191,o),
(180,331,o),
(59,576,o),
(59,736,qs),
(59,898,o),
(180,1146,o),
(399,1285,o),
(545,1285,qs),
(634,1285,o),
(786,1232,o),
(902,1133,o),
(975,1000,o),
(986,921,q),
(815,921,l),
(807,968,o),
(764,1045,o),
(695,1101,o),
(604,1133,o),
(545,1133,qs),
(446,1133,o),
(305,1035,o),
(229,857,o),
(229,736,qs),
(229,617,o),
(305,441,o),
(445,343,o),
(545,343,qs),
(604,343,o),
(693,373,o),
(756,430,o),
(800,508,o),
(813,555,q),
(986,555,l),
(975,479,o),
(902,345,o),
(785,246,o),
(633,191,o),
(545,191,qs)
);
}
);
width = 1061;
}
);
unicode = 162;
},
{
glyphname = sterling;
layers = (
{
layerId = "2FE1F5E8-0BE1-472C-82D2-406E458C4580";
shapes = (
{
closed = 1;
nodes = (
(50,325,l),
(128,325,o),
(203,384,o),
(197,444,q),
(161,957,ls),
(148,1137,o),
(296,1379,o),
(555,1503,o),
(709,1503,qs),
(864,1503,o),
(1106,1372,o),
(1243,1133,o),
(1243,968,q),
(866,968,l),
(866,1084,o),
(787,1176,o),
(717,1176,qs),
(670,1176,o),
(598,1137,o),
(561,1051,o),
(564,980,qs),
(581,521,l),
(583,448,o),
(523,355,o),
(415,300,o),
(276,272,o),
(125,264,o),
(50,264,q)
);
},
{
closed = 1;
nodes = (
(49,0,l),
(49,326,l),
(852,326,ls),
(865,326,o),
(881,342,o),
(881,355,qs),
(881,405,l),
(1252,405,l),
(1252,343,ls),
(1252,178,o),
(1056,0,o),
(875,0,qs)
);
},
{
closed = 1;
nodes = (
(49,564,l),
(49,865,l),
(821,865,l),
(821,564,l)
);
}
);
width = 1288;
},
{
layerId = "7F7FF3B5-2624-4A00-8D8B-13060CA2B611";
shapes = (
{
closed = 1;
nodes = (
(98,159,l),
(178,159,o),
(273,251,o),
(268,359,qs),
(240,1046,ls),
(234,1178,o),
(345,1384,o),
(551,1498,o),
(686,1498,qs),
(813,1498,o),
(1006,1384,o),
(1116,1181,o),
(1116,1048,q),
(948,1048,l),
(948,1183,o),
(806,1340,o),
(686,1340,qs),
(598,1340,o),
(470,1269,o),
(404,1139,o),
(408,1050,qs),
(437,362,ls),
(440,295,o),
(407,204,o),
(344,149,o),
(258,122,o),
(155,111,o),
(98,111,q)
);
},
{
closed = 1;
nodes = (
(98,0,l),
(98,159,l),
(866,159,ls),
(913,159,o),
(952,198,o),
(952,244,qs),
(952,307,l),
(1116,307,l),
(1116,260,ls),
(1116,130,o),
(995,0,o),
(865,0,qs)
);
},
{
closed = 1;
nodes = (
(98,667,l),
(98,812,l),
(854,812,l),
(854,667,l)
);
}
);
width = 1183;
}
);
unicode = 163;
},
{
glyphname = currency;
layers = (
{
layerId = "2FE1F5E8-0BE1-472C-82D2-406E458C4580";
shapes = (
{
closed = 1;
nodes = (
(664,-20,o),
(439,75,o),
(268,244,o),
(172,471,o),
(173,603,q),
(172,735,o),
(268,962,o),
(439,1130,o),
(664,1225,o),
(792,1225,qs),
(919,1225,o),
(1141,1130,o),
(1314,962,o),
(1410,735,o),
(1411,603,q),
(1410,471,o),
(1314,244,o),
(1141,75,o),
(919,-20,o),
(792,-20,qs)
);
},
{
closed = 1;
nodes = (
(907,189,o),
(1097,296,o),
(1211,485,o),
(1211,603,qs),
(1211,723,o),
(1097,909,o),
(907,1017,o),
(792,1017,qs),
(674,1017,o),
(483,909,o),
(373,723,o),
(373,603,qs),
(373,485,o),
(483,296,o),
(674,189,o),
(792,189,qs)
);
},
{
closed = 1;
nodes = (
(1246,901,l),
(1094,1056,l),
(1300,1262,l),
(1456,1106,l)
);
},
{
closed = 1;
nodes = (
(1300,-32,l),
(1094,173,l),
(1246,326,l),
(1456,125,l)
);
},
{
closed = 1;
nodes = (
(284,-32,l),
(131,125,l),
(339,326,l),
(494,173,l)
);
},
{
closed = 1;
nodes = (
(339,901,l),
(131,1106,l),
(284,1262,l),
(494,1056,l)
);
}
);
width = 1580;
},
{
layerId = "7F7FF3B5-2624-4A00-8D8B-13060CA2B611";
shapes = (
{
closed = 1;
nodes = (
(546,-20,o),
(331,75,o),
(170,244,o),
(79,471,o),
(79,603,qs),
(79,735,o),
(170,962,o),
(331,1130,o),
(546,1225,o),
(667,1225,qs),
(790,1225,o),
(1005,1130,o),
(1167,962,o),
(1259,735,o),
(1259,603,qs),
(1259,471,o),
(1167,244,o),
(1005,75,o),
(790,-20,o),
(667,-20,qs)
);
},
{
closed = 1;
nodes = (
(786,139,o),
(980,265,o),
(1094,477,o),
(1094,603,qs),
(1094,732,o),
(980,943,o),
(786,1067,o),
(667,1067,qs),
(549,1067,o),
(353,943,o),
(237,732,o),
(237,603,qs),
(237,477,o),
(353,265,o),
(549,139,o),
(667,139,qs)
);
},
{
closed = 1;
nodes = (
(1086,919,l),
(971,1040,l),
(1170,1244,l),
(1288,1124,l)
);
},
{
closed = 1;
nodes = (
(1170,-15,l),
(971,191,l),
(1086,310,l),
(1288,107,l)
);
},
{
closed = 1;
nodes = (
(171,-15,l),
(57,107,l),
(255,310,l),
(374,191,l)
);
},
{
closed = 1;
nodes = (
(255,919,l),
(57,1124,l),
(171,1244,l),
(374,1040,l)
);
}
);
width = 1345;
}
);
unicode = 164;
},
{
glyphname = yen;
layers = (
{
layerId = "2FE1F5E8-0BE1-472C-82D2-406E458C4580";
shapes = (
{
closed = 1;
nodes = (
(415,1478,l),
(670,786,l),
(412,558,l),
(15,1478,l)
);
},
{
closed = 1;
nodes = (
(499,796,l),
(749,1478,l),
(1151,1478,l),
(749,558,l)
);
},
{
closed = 1;
nodes = (
(772,779,l),
(772,0,l),
(377,0,l),
(377,779,l)
);
},
{
closed = 1;
nodes = (
(1044,779,l),
(1044,570,l),
(67,570,l),
(67,779,l)
);
},
{
closed = 1;
nodes = (
(1044,494,l),
(1044,284,l),
(67,284,l),
(67,494,l)
);
}
);
width = 1163;
},
{
layerId = "7F7FF3B5-2624-4A00-8D8B-13060CA2B611";
shapes = (
{
closed = 1;
nodes = (
(260,1478,l),
(638,655,l),
(500,597,l),
(61,1478,l)
);
},
{
closed = 1;
nodes = (
(540,655,l),
(919,1478,l),
(1118,1478,l),
(679,597,l)
);
},
{
closed = 1;
nodes = (
(679,776,l),
(679,0,l),
(500,0,l),
(500,776,l)
);
},
{
closed = 1;
nodes = (
(1002,736,l),
(1002,605,l),
(177,605,l),
(177,736,l)
);
},
{
closed = 1;
nodes = (
(1002,450,l),
(1002,320,l),
(177,320,l),
(177,450,l)
);
}
);
width = 1179;
}
);
unicode = 165;
},
{
glyphname = brokenbar;
layers = (
{
layerId = "2FE1F5E8-0BE1-472C-82D2-406E458C4580";
shapes = (
{
closed = 1;
nodes = (
(213,421,l),
(564,421,l),
(564,-278,l),
(213,-278,l)
);
},
{
closed = 1;
nodes = (
(564,1478,l),
(564,781,l),
(213,781,l),
(213,1478,l)
);
}
);
width = 776;
},
{
layerId = "7F7FF3B5-2624-4A00-8D8B-13060CA2B611";
shapes = (
{
closed = 1;
nodes = (
(180,399,l),
(339,399,l),
(339,-278,l),
(180,-278,l)
);
},
{
closed = 1;
nodes = (
(339,1478,l),
(339,806,l),
(180,806,l),
(180,1478,l)
);
}
);
width = 519;
}
);
unicode = 166;
},
{
glyphname = section;
layers = (
{
layerId = "2FE1F5E8-0BE1-472C-82D2-406E458C4580";
shapes = (
{
closed = 1;
nodes = (
(404,-298,o),
(188,-194,o),
(65,-8,o),
(65,114,q),
(404,114,l),
(404,68,o),
(482,16,o),
(548,16,qs),
(608,16,o),
(675,59,o),
(675,98,qs),
(675,124,o),
(646,166,o),
(586,201,o),
(536,213,qs),
(291,273,l),
(214,293,o),
(101,375,o),
(40,492,o),
(40,564,qs),
(40,641,o),
(102,739,o),
(191,790,o),
(233,795,q),
(233,796,l),
(166,842,o),
(74,988,o),
(74,1106,qs),
(74,1292,o),
(317,1503,o),
(530,1503,qs),
(747,1503,o),
(992,1286,o),
(992,1099,q),
(651,1099,l),
(651,1141,o),
(590,1189,o),
(531,1189,qs),
(478,1189,o),
(417,1146,o),
(417,1105,qs),
(417,1076,o),
(450,1027,o),
(521,988,o),
(572,975,q),
(816,919,ls),
(889,902,o),
(998,823,o),
(1056,712,o),
(1056,644,qs),
(1056,571,o),
(994,465,o),
(903,403,o),
(858,396,q),
(858,395,l),
(914,364,o),
(986,270,o),
(1020,155,o),
(1020,95,qs),
(1020,-23,o),
(901,-201,o),
(690,-298,o),
(549,-298,qs)
);
},
{
closed = 1;
nodes = (
(651,466,ls),
(668,462,o),
(712,473,o),
(750,506,o),
(756,534,qs),
(762,560,o),
(748,613,o),
(695,660,o),
(643,671,q),
(446,720,l),
(427,724,o),
(380,717,o),
(339,685,o),
(332,654,q),
(323,621,o),
(349,561,o),
(406,520,o),
(447,510,q)
);
}
);
width = 1096;
},
{
layerId = "7F7FF3B5-2624-4A00-8D8B-13060CA2B611";
shapes = (
{
closed = 1;
nodes = (
(375,-300,o),
(197,-215,o),
(101,-58,o),
(101,51,q),
(270,51,l),
(270,-45,o),
(390,-147,o),
(498,-147,qs),
(592,-147,o),
(706,-66,o),
(706,13,qs),
(706,66,o),
(656,140,o),
(584,192,o),
(550,211,qs),
(270,373,l),
(205,413,o),
(110,512,o),
(59,631,o),
(59,692,qs),
(59,751,o),
(106,866,o),
(197,947,o),
(260,954,q),
(260,955,l),
(211,1008,o),
(153,1115,o),
(153,1190,qs),
(153,1332,o),
(354,1498,o),
(518,1498,qs),
(693,1498,o),
(895,1309,o),
(895,1146,q),
(726,1146,l),
(726,1239,o),
(617,1345,o),
(518,1345,qs),
(428,1345,o),
(325,1260,o),
(325,1187,qs),
(325,1136,o),
(374,1061,o),
(446,1009,o),
(481,988,qs),
(760,823,ls),
(825,785,o),
(921,684,o),
(971,569,o),
(971,508,qs),
(971,447,o),
(920,334,o),
(830,257,o),
(769,248,q),
(769,247,l),
(804,215,o),
(855,141,o),
(880,57,o),
(880,7,qs),
(880,-85,o),
(787,-224,o),
(613,-300,o),
(498,-300,qs)
);
},
{
closed = 1;
nodes = (
(624,348,ls),
(655,330,o),
(745,354,o),
(813,436,o),
(813,502,qs),
(813,542,o),
(781,611,o),
(722,671,o),
(677,697,qs),
(394,859,l),
(361,879,o),
(279,850,o),
(217,769,o),
(217,703,qs),
(217,664,o),
(247,593,o),
(309,530,o),
(356,502,q)
);
}
);
width = 1048;
}
);
unicode = 167;
},
{
glyphname = copyright;
layers = (
{
layerId = "2FE1F5E8-0BE1-472C-82D2-406E458C4580";
shapes = (
{
closed = 1;
nodes = (
(526,847,o),
(631,1026,o),
(811,1131,o),
(919,1131,qs),
(1015,1131,o),
(1176,1046,o),
(1281,900,o),
(1290,809,q),
(1050,809,l),
(1041,849,o),
(967,901,o),
(919,901,qs),
(875,901,o),
(800,859,o),
(756,785,o),
(756,740,qs),
(756,696,o),
(800,622,o),
(875,578,o),
(919,578,qs),
(967,578,o),
(1041,630,o),
(1050,669,q),
(1290,669,l),
(1281,578,o),
(1176,433,o),
(1015,348,o),
(919,348,qs),
(811,348,o),
(631,454,o),
(526,631,o),
(526,739,qs)
);
},
{
closed = 1;
nodes = (
(755,-23,o),
(480,94,o),
(269,306,o),
(151,581,o),
(151,740,qs),
(151,898,o),
(269,1173,o),
(480,1384,o),
(755,1502,o),
(912,1502,qs),
(1071,1502,o),
(1346,1384,o),
(1557,1173,o),
(1675,898,o),
(1675,740,qs),
(1675,581,o),
(1557,306,o),
(1346,94,o),
(1071,-23,o),
(912,-23,qs)
);
},
{
closed = 1;
nodes = (
(1011,265,o),
(1183,338,o),
(1315,469,o),
(1387,641,o),
(1387,740,qs),
(1387,838,o),
(1315,1009,o),
(1183,1140,o),
(1011,1214,o),
(912,1214,qs),
(815,1214,o),
(643,1140,o),
(511,1009,o),
(439,838,o),
(439,740,qs),
(439,641,o),
(511,469,o),
(643,338,o),
(815,265,o),
(912,265,qs)
);
}
);
width = 1826;
},
{
layerId = "7F7FF3B5-2624-4A00-8D8B-13060CA2B611";
shapes = (
{
closed = 1;
nodes = (
(398,858,o),
(513,1052,o),
(709,1167,o),
(828,1167,qs),
(930,1167,o),
(1104,1078,o),
(1217,928,o),
(1232,832,q),
(1057,832,l),
(1042,905,o),
(910,1000,o),
(828,1000,qs),
(755,1000,o),
(637,929,o),
(565,811,o),
(565,739,qs),
(565,667,o),
(637,549,o),
(755,479,o),
(828,479,qs),
(910,479,o),
(1027,572,o),
(1041,647,q),
(1215,647,l),
(1204,551,o),
(1097,398,o),
(930,310,o),
(828,310,qs),
(709,310,o),
(513,425,o),
(398,621,o),
(398,739,qs)
);
},
{
closed = 1;
nodes = (
(661,-23,o),
(386,94,o),
(175,306,o),
(57,581,o),
(57,740,qs),
(57,898,o),
(175,1173,o),
(386,1384,o),
(661,1502,o),
(818,1502,qs),
(977,1502,o),
(1253,1384,o),
(1463,1173,o),
(1582,898,o),
(1582,740,qs),
(1582,581,o),
(1463,306,o),
(1253,94,o),
(977,-23,o),
(818,-23,qs)
);
},
{
closed = 1;
nodes = (
(942,145,o),
(1158,236,o),
(1322,400,o),
(1414,616,o),
(1414,740,qs),
(1414,862,o),
(1322,1078,o),
(1158,1242,o),
(942,1336,o),
(818,1336,qs),
(696,1336,o),
(480,1242,o),
(315,1078,o),
(223,862,o),
(223,740,qs),
(223,616,o),
(315,400,o),
(480,236,o),
(696,145,o),
(818,145,qs)
);
}
);
width = 1639;
}
);
leftKerningGroup = copyright2;
rightKerningGroup = copyright;
unicode = 169;
},
{
glyphname = ordfeminine;
layers = (
{
layerId = "2FE1F5E8-0BE1-472C-82D2-406E458C4580";
shapes = (
{
closed = 1;
nodes = (
(244,627,o),
(114,680,o),
(42,791,o),
(42,875,qs),
(42,968,o),
(127,1079,o),
(272,1136,o),
(361,1141,q),
(437,1147,o),
(528,1163,o),
(569,1191,o),
(569,1215,qs),
(569,1218,ls),
(569,1250,o),
(512,1285,o),
(466,1285,qs),
(418,1285,o),
(359,1244,o),
(354,1205,q),
(75,1205,l),
(83,1299,o),
(176,1430,o),
(353,1499,o),
(479,1499,qs),
(573,1499,o),
(720,1460,o),
(819,1385,o),
(868,1275,o),
(868,1204,qs),
(868,642,l),
(572,642,l),
(572,759,l),
(570,759,l),
(530,688,o),
(412,627,o),
(328,627,qs)
);
},
{
closed = 1;
nodes = (
(462,819,o),
(530,847,o),
(571,902,o),
(571,941,qs),
(571,1010,l),
(557,1005,o),
(519,994,o),
(468,985,o),
(437,978,q),
(384,969,o),
(327,926,o),
(327,890,qs),
(327,858,o),
(382,819,o),
(424,819,qs)
);
}
);
width = 940;
},
{
layerId = "7F7FF3B5-2624-4A00-8D8B-13060CA2B611";
shapes = (
{
closed = 1;
nodes = (
(264,635,o),
(132,691,o),
(55,805,o),
(55,888,qs),
(55,985,o),
(151,1086,o),
(304,1130,o),
(387,1140,qs),
(466,1150,o),
(556,1161,o),
(597,1188,o),
(597,1218,qs),
(597,1226,ls),
(597,1287,o),
(506,1368,o),
(425,1368,qs),
(343,1368,o),
(241,1290,o),
(236,1232,q),
(75,1232,l),
(79,1310,o),
(168,1433,o),
(322,1503,o),
(426,1503,qs),
(505,1503,o),
(626,1463,o),
(713,1389,o),
(758,1286,o),
(758,1224,qs),
(758,648,l),
(598,648,l),
(598,768,l),
(595,768,l),
(569,718,o),
(455,635,o),
(346,635,qs)
);
},
{
closed = 1;
nodes = (
(453,768,o),
(551,821,o),
(597,910,o),
(597,963,qs),
(597,1062,l),
(586,1053,o),
(526,1037,o),
(439,1023,o),
(390,1016,qs),
(324,1007,o),
(218,949,o),
(218,884,qs),
(218,829,o),
(305,768,o),
(378,768,qs)
);
}
);
width = 850;
}
);
unicode = 170;
},
{
glyphname = logicalnot;
layers = (
{
layerId = "2FE1F5E8-0BE1-472C-82D2-406E458C4580";
shapes = (
{
closed = 1;
nodes = (
(839,313,l),
(839,501,l),
(205,501,l),
(205,808,l),
(1162,808,l),
(1162,313,l)
);
}
);
width = 1377;
},
{
layerId = "7F7FF3B5-2624-4A00-8D8B-13060CA2B611";
shapes = (
{
closed = 1;
nodes = (
(748,313,l),
(748,585,l),
(79,585,l),
(79,740,l),
(909,740,l),
(909,313,l)
);
}
);
width = 997;
}
);
unicode = 172;
},
{
glyphname = registered;
layers = (
{
layerId = "2FE1F5E8-0BE1-472C-82D2-406E458C4580";
shapes = (
{
closed = 1;
nodes = (
(533,343,o),
(324,434,o),
(167,592,o),
(78,801,o),
(78,921,qs),
(78,1040,o),
(167,1250,o),
(324,1408,o),
(533,1498,o),
(653,1498,qs),
(773,1498,o),
(983,1408,o),
(1141,1250,o),
(1231,1040,o),
(1231,921,qs),
(1231,801,o),
(1141,592,o),
(983,434,o),
(773,343,o),
(653,343,qs)
);
},
{
closed = 1;
nodes = (
(770,506,o),
(958,617,o),
(1070,806,o),
(1070,921,qs),
(1070,1036,o),
(958,1224,o),
(769,1336,o),
(653,1336,qs),
(539,1336,o),
(351,1224,o),
(238,1036,o),
(238,921,qs),
(238,807,o),
(351,618,o),
(539,506,o),
(653,506,qs)
);
},
{
closed = 1;
nodes = (
(737,657,l),
(633,899,l),
(798,899,l),
(914,657,l)
);
},
{
closed = 1;
nodes = (
(428,657,l),
(428,1189,l),
(671,1189,ls),
(741,1189,o),
(840,1142,o),
(896,1056,o),
(896,997,qs),
(896,941,o),
(839,859,o),
(735,813,o),
(663,813,qs),
(533,813,l),
(533,944,l),
(659,944,ls),
(690,944,o),
(730,973,o),
(730,997,qs),
(730,1022,o),
(690,1052,o),
(659,1052,qs),
(599,1052,l),
(599,657,l)
);
}
);
width = 1307;
},
{
layerId = "7F7FF3B5-2624-4A00-8D8B-13060CA2B611";
shapes = (
{
closed = 1;
nodes = (
(515,343,o),
(306,434,o),
(148,592,o),
(57,801,o),
(57,921,qs),
(57,1040,o),
(148,1250,o),
(306,1408,o),
(515,1498,o),
(635,1498,qs),
(755,1498,o),
(965,1408,o),
(1123,1250,o),
(1213,1040,o),
(1213,921,qs),
(1213,801,o),
(1123,592,o),
(965,434,o),
(755,343,o),
(635,343,qs)
);
},
{
closed = 1;
nodes = (
(757,482,o),
(955,601,o),
(1074,799,o),
(1074,921,qs),
(1074,1042,o),
(955,1241,o),
(757,1360,o),
(635,1360,qs),
(513,1360,o),
(315,1241,o),
(196,1042,o),
(196,921,qs),
(196,799,o),
(315,601,o),
(513,482,o),
(635,482,qs)
);
},
{
closed = 1;
nodes = (
(737,658,l),
(613,899,l),
(754,899,l),
(882,658,l)
);
},
{
closed = 1;
nodes = (
(423,658,l),
(423,1190,l),
(655,1190,ls),
(721,1190,o),
(816,1146,o),
(867,1064,o),
(867,1008,qs),
(867,952,o),
(813,874,o),
(714,830,o),
(647,830,qs),
(506,830,l),
(506,939,l),
(645,939,ls),
(686,939,o),
(733,976,o),
(733,1008,qs),
(733,1038,o),
(686,1077,o),
(645,1077,qs),
(555,1077,l),
(555,658,l)
);
}
);
width = 1270;
}
);
leftKerningGroup = copyright2;
rightKerningGroup = copyright;
unicode = 174;
},
{
glyphname = degree;
layers = (
{
layerId = "7F7FF3B5-2624-4A00-8D8B-13060CA2B611";
shapes = (
{
closed = 1;
nodes = (
(331,825,o),
(179,916,o),
(88,1066,o),
(88,1156,qs),
(88,1249,o),
(179,1401,o),
(331,1491,o),
(422,1491,qs),
(512,1491,o),
(664,1401,o),
(753,1250,o),
(753,1156,qs),
(753,1066,o),
(664,916,o),
(512,825,o),
(422,825,qs)
);
},
{
closed = 1;
nodes = (
(473,970,o),
(558,1020,o),
(609,1106,o),
(609,1156,qs),
(609,1210,o),
(558,1296,o),
(472,1345,o),
(422,1345,qs),
(371,1345,o),
(285,1296,o),
(234,1210,o),
(234,1156,qs),
(234,1106,o),
(285,1020,o),
(371,970,o),
(422,970,qs)
);
}
);
width = 841;
},
{
layerId = "2FE1F5E8-0BE1-472C-82D2-406E458C4580";
shapes = (
{
closed = 1;
nodes = (
(353,749,o),
(184,847,o),
(85,1015,o),
(85,1117,qs),
(85,1219,o),
(184,1387,o),
(353,1486,o),
(455,1486,qs),
(556,1486,o),
(724,1387,o),
(823,1219,o),
(823,1117,qs),
(823,1015,o),
(724,847,o),
(556,749,o),
(455,749,qs)
);
},
{
closed = 1;
nodes = (
(489,993,o),
(546,1028,o),
(580,1084,o),
(580,1117,qs),
(580,1152,o),
(546,1208,o),
(489,1240,o),
(455,1240,qs),
(421,1240,o),
(364,1208,o),
(332,1152,o),
(332,1117,qs),
(332,1084,o),
(364,1028,o),
(421,993,o),
(455,992,q)
);
}
);
width = 908;
}
);
unicode = 176;
},
{
glyphname = plusminus;
layers = (
{
layerId = "7F7FF3B5-2624-4A00-8D8B-13060CA2B611";
shapes = (
{
closed = 1;
nodes = (
(89,69,l),
(89,230,l),
(1020,230,l),
(1020,69,l)
);
},
{
closed = 1;
nodes = (
(89,653,l),
(89,814,l),
(1020,814,l),
(1020,653,l)
);
},
{
closed = 1;
nodes = (
(474,357,l),
(474,1109,l),
(635,1109,l),
(635,357,l)
);
}
);
width = 1109;
},
{
layerId = "2FE1F5E8-0BE1-472C-82D2-406E458C4580";
shapes = (
{
closed = 1;
nodes = (
(151,45,l),
(151,348,l),
(1225,348,l),
(1225,45,l)
);
},
{
closed = 1;
nodes = (
(151,659,l),
(151,947,l),
(1225,947,l),
(1225,659,l)
);
},
{
closed = 1;
nodes = (
(526,439,l),
(526,1167,l),
(849,1167,l),
(849,439,l)
);
}
);
width = 1377;
}
);
unicode = 177;
},
{
glyphname = two.sups;
layers = (
{
layerId = "7F7FF3B5-2624-4A00-8D8B-13060CA2B611";
shapes = (
{
closed = 1;
nodes = (
(89,867,l),
(89,993,l),
(415,1244,l),
(456,1277,o),
(519,1331,o),
(553,1389,o),
(553,1426,qs),
(553,1482,o),
(473,1548,o),
(404,1548,qs),
(332,1548,o),
(246,1467,o),
(246,1394,q),
(87,1394,l),
(87,1527,o),
(260,1685,o),
(404,1685,qs),
(541,1685,o),
(714,1550,o),
(714,1434,qs),
(714,1392,o),
(690,1320,o),
(641,1254,o),
(567,1187,o),
(519,1151,qs),
(324,1008,l),
(324,1007,l),
(719,1007,l),
(719,867,l)
);
}
);
width = 809;
},
{
layerId = "2FE1F5E8-0BE1-472C-82D2-406E458C4580";
shapes = (
{
closed = 1;
nodes = (
(64,847,l),
(64,1037,l),
(400,1282,ls),
(417,1295,o),
(466,1328,o),
(506,1375,o),
(506,1409,qs),
(506,1445,o),
(454,1487,o),
(412,1487,qs),
(364,1487,o),
(305,1427,o),
(305,1368,q),
(53,1368,l),
(53,1522,o),
(245,1697,o),
(413,1697,qs),
(564,1697,o),
(761,1553,o),
(761,1425,qs),
(761,1374,o),
(731,1295,o),
(677,1226,o),
(603,1168,o),
(560,1139,qs),
(437,1059,l),
(437,1058,l),
(763,1058,l),
(763,847,l)
);
}
);
width = 824;
}
);
unicode = 178;
},
{
glyphname = three.sups;
layers = (
{
layerId = "7F7FF3B5-2624-4A00-8D8B-13060CA2B611";
shapes = (
{
closed = 1;
nodes = (
(316,855,o),
(168,930,o),
(90,1057,o),
(90,1134,q),
(256,1134,l),
(256,1066,o),
(345,988,o),
(423,988,qs),
(497,988,o),
(589,1053,o),
(589,1105,qs),
(589,1155,o),
(488,1216,o),
(408,1216,qs),
(330,1216,l),
(330,1341,l),
(408,1341,ls),
(482,1341,o),
(570,1395,o),
(570,1443,qs),
(570,1494,o),
(488,1555,o),
(422,1555,qs),
(354,1555,o),
(271,1487,o),
(271,1431,q),
(108,1431,l),
(108,1504,o),
(186,1619,o),
(328,1685,o),
(422,1685,qs),
(511,1685,o),
(652,1629,o),
(732,1527,o),
(732,1462,qs),
(732,1394,o),
(639,1302,o),
(564,1287,q),
(564,1285,l),
(657,1276,o),
(758,1166,o),
(758,1095,qs),
(758,1026,o),
(673,918,o),
(524,855,o),
(424,855,qs)
);
}
);
width = 840;
},
{
layerId = "2FE1F5E8-0BE1-472C-82D2-406E458C4580";
shapes = (
{
closed = 1;
nodes = (
(292,834,o),
(129,924,o),
(56,1067,o),
(56,1147,q),
(313,1147,l),
(313,1095,o),
(373,1036,o),
(423,1036,qs),
(468,1036,o),
(527,1076,o),
(527,1107,qs),
(527,1140,o),
(462,1178,o),
(410,1178,qs),
(316,1178,l),
(316,1361,l),
(410,1361,ls),
(463,1361,o),
(522,1395,o),
(522,1428,qs),
(522,1460,o),
(468,1502,o),
(428,1502,qs),
(386,1502,o),
(329,1454,o),
(329,1419,q),
(71,1419,l),
(71,1497,o),
(155,1623,o),
(315,1697,o),
(427,1697,qs),
(530,1697,o),
(685,1637,o),
(772,1533,o),
(772,1463,qs),
(772,1385,o),
(668,1294,o),
(593,1287,q),
(593,1285,l),
(695,1278,o),
(799,1160,o),
(799,1085,qs),
(799,1013,o),
(706,899,o),
(537,834,o),
(424,834,qs)
);
}
);
width = 839;
}
);
unicode = 179;
},
{
glyphname = uni00B5;
layers = (
{
layerId = "7F7FF3B5-2624-4A00-8D8B-13060CA2B611";
shapes = (
{
closed = 1;
nodes = (
(137,-415,l),
(137,1048,l),
(306,1048,l),
(306,435,ls),
(306,330,o),
(375,196,o),
(495,134,o),
(572,134,qs),
(648,134,o),
(764,196,o),
(831,330,o),
(831,435,qs),
(831,1048,l),
(999,1048,l),
(999,246,ls),
(999,191,o),
(1048,147,o),
(1108,147,qs),
(1136,147,l),
(1136,0,l),
(1108,0,ls),
(970,0,o),
(834,126,o),
(834,246,qs),
(834,347,l),
(875,347,l),
(875,236,o),
(814,95,o),
(720,16,o),
(614,-18,o),
(570,-18,qs),
(525,-18,o),
(420,16,o),
(327,95,o),
(266,236,o),
(266,347,q),
(306,347,l),
(306,-415,l)
);
}
);
width = 1148;
},
{
layerId = "2FE1F5E8-0BE1-472C-82D2-406E458C4580";
shapes = (
{
closed = 1;
nodes = (
(85,-415,l),
(85,1048,l),
(482,1048,l),
(482,468,ls),
(482,415,o),
(514,337,o),
(581,295,o),
(629,295,qs),
(677,295,o),
(741,337,o),
(774,415,o),
(774,468,qs),
(774,1048,l),
(1171,1048,l),
(1171,368,ls),
(1171,336,o),
(1204,302,o),
(1235,302,qs),
(1293,302,l),
(1293,0,l),
(1089,0,ls),
(940,0,o),
(794,163,o),
(794,313,qs),
(794,414,l),
(849,414,l),
(849,303,o),
(816,154,o),
(757,68,o),
(684,31,o),
(644,31,qs),
(601,31,o),
(524,68,o),
(462,154,o),
(426,303,o),
(426,414,q),
(482,414,l),
(482,-415,l)
);
}
);
width = 1293;
}
);
unicode = 181;
},
{
glyphname = paragraph;
layers = (
{
layerId = "2FE1F5E8-0BE1-472C-82D2-406E458C4580";
shapes = (
{
closed = 1;
nodes = (
(1078,1189,l),
(632,1189,l),
(632,548,l),
(545,548,ls),
(379,548,o),
(151,669,o),
(36,880,o),
(36,1014,qs),
(36,1147,o),
(151,1357,o),
(379,1478,o),
(545,1478,qs),
(1078,1478,l)
);
},
{
closed = 1;
nodes = (
(811,0,l),
(811,1478,l),
(1098,1478,l),
(1098,0,l)
);
}
);
width = 1177;
},
{
layerId = "7F7FF3B5-2624-4A00-8D8B-13060CA2B611";
shapes = (
{
closed = 1;
nodes = (
(980,1320,l),
(629,1320,l),
(629,548,l),
(546,548,ls),
(389,548,o),
(171,669,o),
(57,880,o),
(57,1014,qs),
(57,1147,o),
(171,1357,o),
(389,1478,o),
(546,1478,qs),
(980,1478,l)
);
},
{
closed = 1;
nodes = (
(808,0,l),
(808,1478,l),
(989,1478,l),
(989,0,l)
);
}
);
width = 1134;
}
);
unicode = 182;
},
{
glyphname = one.sups;
layers = (
{
layerId = "7F7FF3B5-2624-4A00-8D8B-13060CA2B611";
shapes = (
{
closed = 1;
nodes = (
(443,1673,l),
(443,867,l),
(277,867,l),
(277,1515,l),
(276,1515,l),
(66,1395,l),
(66,1547,l),
(286,1673,l)
);
}
);
width = 554;
},
{
layerId = "2FE1F5E8-0BE1-472C-82D2-406E458C4580";
shapes = (
{
closed = 1;
nodes = (
(498,1682,l),
(498,847,l),
(233,847,l),
(233,1445,l),
(232,1445,l),
(36,1336,l),
(36,1559,l),
(255,1682,l)
);
}
);
width = 558;
}
);
unicode = 185;
},
{
glyphname = ordmasculine;
layers = (
{
layerId = "2FE1F5E8-0BE1-472C-82D2-406E458C4580";
shapes = (
{
closed = 1;
nodes = (
(356,623,o),
(152,730,o),
(38,927,o),
(38,1061,qs),
(38,1195,o),
(152,1391,o),
(355,1499,o),
(490,1499,qs),
(625,1499,o),
(828,1391,o),
(942,1195,o),
(942,1061,qs),
(942,928,o),
(828,730,o),
(625,623,o),
(490,623,qs)
);
},
{
closed = 1;
nodes = (
(531,861,o),
(596,907,o),
(635,995,o),
(635,1060,qs),
(635,1127,o),
(596,1216,o),
(531,1261,o),
(490,1261,qs),
(449,1261,o),
(382,1216,o),
(344,1127,o),
(344,1060,qs),
(344,995,o),
(382,907,o),
(449,861,o),
(490,861,qs)
);
}
);
width = 979;
},
{
layerId = "7F7FF3B5-2624-4A00-8D8B-13060CA2B611";
shapes = (
{
closed = 1;
nodes = (
(316,630,o),
(137,740,o),
(36,939,o),
(36,1066,qs),
(36,1196,o),
(137,1393,o),
(316,1505,o),
(435,1505,qs),
(556,1505,o),
(735,1393,o),
(835,1196,o),
(835,1066,qs),
(835,939,o),
(735,740,o),
(556,630,o),
(435,630,qs)
);
},
{
closed = 1;
nodes = (
(509,770,o),
(614,843,o),
(671,977,o),
(671,1066,qs),
(671,1156,o),
(614,1292,o),
(509,1365,o),
(435,1365,qs),
(364,1365,o),
(258,1292,o),
(200,1156,o),
(200,1066,qs),
(200,975,o),
(257,842,o),
(364,770,o),
(435,770,qs)
);
}
);
width = 872;
}
);
unicode = 186;
},
{
glyphname = questiondown;
layers = (
{
layerId = "2FE1F5E8-0BE1-472C-82D2-406E458C4580";
shapes = (
{
closed = 1;
nodes = (
(816,580,l),
(816,522,ls),
(816,433,o),
(776,312,o),
(679,223,o),
(592,180,qs),
(524,146,o),
(459,57,o),
(459,4,qs),
(459,-39,o),
(500,-105,o),
(571,-141,o),
(619,-141,qs),
(673,-141,o),
(752,-96,o),
(796,-16,o),
(796,38,q),
(1165,38,l),
(1165,-104,o),
(1028,-323,o),
(779,-450,o),
(613,-450,qs),
(457,-450,o),
(215,-347,o),
(80,-163,o),
(80,-44,qs),
(80,71,o),
(172,249,o),
(267,310,qs),
(325,348,o),
(420,416,o),
(477,493,o),
(477,544,qs),
(477,580,l)
);
},
{
closed = 1;
nodes = (
(726,1067,o),
(846,946,o),
(846,860,qs),
(846,775,o),
(726,654,o),
(641,654,qs),
(554,654,o),
(434,775,o),
(434,860,qs),
(434,946,o),
(554,1067,o),
(641,1067,qs)
);
}
);
width = 1229;
},
{
layerId = "7F7FF3B5-2624-4A00-8D8B-13060CA2B611";
shapes = (
{
closed = 1;
nodes = (
(615,651,l),
(615,541,ls),
(615,432,o),
(555,313,o),
(447,235,o),
(380,185,q),
(296,125,o),
(229,-4,o),
(229,-69,qs),
(229,-140,o),
(295,-243,o),
(418,-298,o),
(501,-298,qs),
(593,-298,o),
(724,-225,o),
(792,-90,o),
(792,5,q),
(969,5,l),
(969,-132,o),
(853,-339,o),
(642,-455,o),
(501,-455,qs),
(371,-455,o),
(170,-356,o),
(58,-183,o),
(58,-69,qs),
(58,38,o),
(167,223,o),
(269,293,qs),
(336,340,o),
(412,408,o),
(442,489,o),
(442,555,qs),
(442,651,l)
);
},
{
closed = 1;
nodes = (
(581,1065,o),
(653,993,o),
(653,941,qs),
(653,888,o),
(581,817,o),
(528,817,qs),
(478,817,o),
(404,888,o),
(404,941,qs),
(404,993,o),
(478,1065,o),
(528,1065,qs)
);
}
);
width = 1037;
}
);
unicode = 191;
},
{
glyphname = AE;
layers = (
{
layerId = "7F7FF3B5-2624-4A00-8D8B-13060CA2B611";
shapes = (
{
closed = 1;
nodes = (
(17,0,l),
(687,1478,l),
(1894,1478,l),
(1894,1320,l),
(1111,1320,l),
(1111,825,l),
(1836,825,l),
(1836,667,l),
(1111,667,l),
(1111,159,l),
(1894,159,l),
(1894,0,l),
(932,0,l),
(932,1320,l),
(793,1320,l),
(204,0,l)
);
},
{
closed = 1;
nodes = (
(346,444,l),
(346,603,l),
(1023,603,l),
(1023,444,l)
);
}
);
width = 2002;
},
{
layerId = "2FE1F5E8-0BE1-472C-82D2-406E458C4580";
shapes = (
{
closed = 1;
nodes = (
(0,0,l),
(575,1478,l),
(2091,1478,l),
(2091,1129,l),
(1359,1129,l),
(1359,907,l),
(2034,907,l),
(2034,570,l),
(1359,570,l),
(1359,350,l),
(2091,350,l),
(2091,0,l),
(964,0,l),
(964,1129,l),
(842,1129,l),
(424,0,l)
);
},
{
closed = 1;
nodes = (
(353,276,l),
(353,575,l),
(1076,575,l),
(1076,276,l)
);
}
);
width = 2150;
}
);
rightKerningGroup = E;
unicode = 198;
},
{
glyphname = multiply;
layers = (
{
layerId = "7F7FF3B5-2624-4A00-8D8B-13060CA2B611";
shapes = (
{
closed = 1;
nodes = (
(880,114,l),
(67,928,l),
(176,1040,l),
(989,224,l)
);
},
{
closed = 1;
nodes = (
(176,114,l),
(67,224,l),
(880,1039,l),
(989,928,l)
);
}
);
width = 1058;
},
{
layerId = "2FE1F5E8-0BE1-472C-82D2-406E458C4580";
shapes = (
{
closed = 1;
nodes = (
(1015,32,l),
(120,923,l),
(364,1169,l),
(1257,273,l)
);
},
{
closed = 1;
nodes = (
(364,32,l),
(120,273,l),
(1015,1169,l),
(1257,923,l)
);
}
);
width = 1377;
}
);
unicode = 215;
},
{
glyphname = Thorn;
layers = (
{
layerId = "2FE1F5E8-0BE1-472C-82D2-406E458C4580";
shapes = (
{
closed = 1;
nodes = (
(82,1478,l),
(484,1478,l),
(484,0,l),
(82,0,l)
);
},
{
closed = 1;
nodes = (
(268,1231,l),
(653,1231,ls),
(845,1231,o),
(1111,1109,o),
(1248,899,o),
(1248,759,qs),
(1248,621,o),
(1111,411,o),
(845,292,o),
(653,292,qs),
(268,292,l),
(268,586,l),
(653,586,l),
(733,587,o),
(825,639,o),
(865,718,o),
(865,756,qs),
(865,797,o),
(825,879,o),
(733,932,o),
(653,932,qs),
(268,932,l)
);
}
);
width = 1385;
},
{
layerId = "7F7FF3B5-2624-4A00-8D8B-13060CA2B611";
shapes = (
{
closed = 1;
nodes = (
(147,1478,l),
(328,1478,l),
(328,0,l),
(147,0,l)
);
},
{
closed = 1;
nodes = (
(233,1173,l),
(613,1173,ls),
(770,1173,o),
(988,1057,o),
(1099,865,o),
(1099,749,qs),
(1099,631,o),
(988,439,o),
(770,323,o),
(613,323,qs),
(233,323,l),
(233,482,l),
(613,482,ls),
(715,482,o),
(858,544,o),
(930,660,o),
(930,744,qs),
(930,829,o),
(858,948,o),
(715,1014,o),
(613,1014,qs),
(233,1014,l)
);
}
);
width = 1157;
}
);
unicode = 222;
},
{
glyphname = germandbls;
layers = (
{
layerId = "2FE1F5E8-0BE1-472C-82D2-406E458C4580";
shapes = (
{
closed = 1;
nodes = (
(80,0,l),
(80,1079,ls),
(80,1211,o),
(217,1398,o),
(469,1498,o),
(643,1498,qs),
(800,1498,o),
(1070,1409,o),
(1235,1226,o),
(1235,1086,qs),
(1235,979,o),
(1131,822,o),
(1034,799,q),
(1034,781,l),
(1181,775,o),
(1344,564,o),
(1344,406,qs),
(1344,269,o),
(1214,88,o),
(987,0,o),
(839,0,qs),
(621,0,l),
(621,312,l),
(754,312,ls),
(839,312,o),
(939,390,o),
(939,457,qs),
(939,525,o),
(828,601,o),
(732,601,qs),
(627,601,l),
(627,890,l),
(695,890,ls),
(733,890,o),
(791,927,o),
(823,988,o),
(823,1028,qs),
(823,1094,o),
(736,1175,o),
(657,1175,qs),
(573,1175,o),
(479,1084,o),
(479,1005,qs),
(479,0,l)
);
}
);
width = 1379;
},
{
layerId = "7F7FF3B5-2624-4A00-8D8B-13060CA2B611";
shapes = (
{
closed = 1;
nodes = (
(123,0,l),
(123,1099,ls),
(123,1224,o),
(232,1403,o),
(425,1498,o),
(550,1498,qs),
(673,1498,o),
(867,1406,o),
(980,1236,o),
(980,1117,qs),
(980,991,o),
(850,819,o),
(745,781,q),
(745,769,l),
(888,754,o),
(1068,561,o),
(1068,406,qs),
(1068,291,o),
(960,106,o),
(766,0,o),
(637,0,qs),
(475,0,l),
(475,159,l),
(641,159,ls),
(758,159,o),
(896,299,o),
(896,406,qs),
(896,522,o),
(743,669,o),
(611,669,qs),
(483,669,l),
(483,832,l),
(574,832,ls),
(647,832,o),
(753,906,o),
(809,1026,o),
(809,1092,qs),
(809,1195,o),
(673,1340,o),
(554,1340,qs),
(442,1340,o),
(294,1206,o),
(294,1099,qs),
(294,0,l)
);
}
);
width = 1092;
}
);
unicode = 223;
},
{
glyphname = ae;
layers = (
{
layerId = "7F7FF3B5-2624-4A00-8D8B-13060CA2B611";
shapes = (
{
closed = 1;
nodes = (
(335,-15,o),
(162,67,o),
(69,211,o),
(69,302,qs),
(69,376,o),
(134,494,o),
(258,576,o),
(435,621,o),
(547,621,qs),
(1600,621,l),
(1527,570,l),
(1527,677,o),
(1451,835,o),
(1313,921,o),
(1217,921,qs),
(1125,921,o),
(987,835,o),
(909,677,o),
(909,570,qs),
(909,499,ls),
(909,391,o),
(985,224,o),
(1127,129,o),
(1230,129,qs),
(1304,129,o),
(1417,175,o),
(1492,259,o),
(1507,313,q),
(1676,313,l),
(1656,214,o),
(1531,62,o),
(1344,-24,o),
(1230,-24,qs),
(1116,-24,o),
(936,56,o),
(811,201,o),
(778,298,q),
(778,741,l),
(813,841,o),
(940,989,o),
(1114,1072,o),
(1217,1072,qs),
(1326,1072,o),
(1503,992,o),
(1628,845,o),
(1694,644,o),
(1694,522,qs),
(1694,476,l),
(547,476,ls),
(447,476,o),
(312,436,o),
(243,357,o),
(243,300,qs),
(243,217,o),
(358,137,o),
(459,137,qs),
(561,137,o),
(690,210,o),
(750,329,o),
(750,397,qs),
(750,722,ls),
(750,779,o),
(696,868,o),
(591,919,o),
(519,919,qs),
(445,919,o),
(333,869,o),
(267,788,o),
(264,734,q),
(91,734,l),
(96,831,o),
(205,980,o),
(394,1067,o),
(519,1067,qs),
(641,1067,o),
(809,982,o),
(894,827,o),
(894,722,q),
(868,229,l),
(853,229,l),
(832,169,o),
(762,78,o),
(663,17,o),
(536,-15,o),
(459,-15,qs)
);
}
);
width = 1771;
},
{
layerId = "2FE1F5E8-0BE1-472C-82D2-406E458C4580";
shapes = (
{
closed = 1;
nodes = (
(322,-19,o),
(145,48,o),
(49,185,o),
(49,290,qs),
(49,393,o),
(141,531,o),
(308,614,o),
(537,651,o),
(675,651,qs),
(1597,651,l),
(1414,612,l),
(1414,668,o),
(1373,747,o),
(1296,789,o),
(1240,789,qs),
(1187,789,o),
(1107,747,o),
(1066,668,o),
(1066,612,qs),
(1066,437,ls),
(1066,379,o),
(1110,295,o),
(1195,252,o),
(1254,252,qs),
(1296,252,o),
(1365,273,o),
(1412,314,o),
(1424,343,q),
(1773,343,l),
(1756,235,o),
(1604,70,o),
(1374,-24,o),
(1237,-24,qs),
(1150,-24,o),
(993,29,o),
(876,123,o),
(843,182,q),
(843,884,l),
(891,943,o),
(1002,1028,o),
(1140,1072,o),
(1230,1072,qs),
(1350,1072,o),
(1551,993,o),
(1698,849,o),
(1779,653,o),
(1779,534,qs),
(1779,428,l),
(588,428,ls),
(539,428,o),
(463,399,o),
(421,348,o),
(421,313,qs),
(421,273,o),
(485,228,o),
(536,228,qs),
(579,228,o),
(657,261,o),
(708,324,o),
(708,372,qs),
(708,720,ls),
(708,743,o),
(678,777,o),
(624,796,o),
(588,796,qs),
(549,796,o),
(491,774,o),
(461,731,o),
(457,700,q),
(93,700,l),
(101,799,o),
(214,968,o),
(426,1072,o),
(580,1072,qs),
(709,1072,o),
(890,982,o),
(988,815,o),
(988,700,qs),
(988,290,l),
(935,290,l),
(901,192,o),
(790,70,o),
(653,5,o),
(511,-19,o),
(446,-19,qs)
);
}
);
width = 1821;
}
);
leftKerningGroup = a2;
rightKerningGroup = e;
unicode = 230;
},
{
glyphname = eth;
layers = (
{
layerId = "2FE1F5E8-0BE1-472C-82D2-406E458C4580";
shapes = (
{
closed = 1;
nodes = (
(919,1384,l),
(186,998,l),
(186,1161,l),
(919,1544,l)
);
},
{
closed = 1;
nodes = (
(435,-23,o),
(184,109,o),
(45,349,o),
(45,508,qs),
(45,648,o),
(155,880,o),
(359,1017,o),
(501,1017,qs),
(556,1017,o),
(654,995,o),
(735,952,o),
(767,923,q),
(781,923,l),
(726,1034,o),
(521,1210,o),
(287,1330,o),
(186,1360,q),
(186,1552,l),
(380,1527,o),
(733,1371,o),
(1009,1121,o),
(1169,789,o),
(1169,586,qs),
(1169,404,o),
(1033,130,o),
(778,-23,o),
(600,-24,q)
);
},
{
closed = 1;
nodes = (
(670,268,o),
(756,332,o),
(803,453,o),
(803,538,qs),
(803,618,o),
(759,732,o),
(675,792,o),
(611,792,qs),
(548,792,o),
(463,731,o),
(421,618,o),
(421,538,qs),
(421,454,o),
(467,332,o),
(553,268,o),
(611,268,qs)
);
}
);
width = 1215;
},
{
layerId = "7F7FF3B5-2624-4A00-8D8B-13060CA2B611";
shapes = (
{
closed = 1;
nodes = (
(916,1405,l),
(325,1119,l),
(275,1226,l),
(865,1513,l)
);
},
{
closed = 1;
nodes = (
(398,-23,o),
(180,114,o),
(61,354,o),
(61,508,qs),
(61,666,o),
(180,905,o),
(380,1039,o),
(503,1039,qs),
(588,1039,o),
(712,982,o),
(798,896,o),
(822,852,q),
(838,852,l),
(807,942,o),
(678,1152,o),
(459,1362,o),
(287,1449,q),
(361,1570,l),
(483,1507,o),
(720,1314,o),
(916,1053,o),
(1031,731,o),
(1031,542,qs),
(1031,362,o),
(909,110,o),
(692,-23,o),
(547,-24,q)
);
},
{
closed = 1;
nodes = (
(652,130,o),
(794,228,o),
(865,394,o),
(865,497,qs),
(865,591,o),
(800,775,o),
(661,898,o),
(547,898,qs),
(441,898,o),
(300,790,o),
(231,612,o),
(231,508,qs),
(231,411,o),
(295,237,o),
(436,130,o),
(547,129,q)
);
}
);
width = 1093;
}
);
leftKerningGroup = c2;
unicode = 240;
},
{
glyphname = divide;
layers = (
{
layerId = "7F7FF3B5-2624-4A00-8D8B-13060CA2B611";
shapes = (
{
closed = 1;
nodes = (
(1001,659,l),
(1001,497,l),
(79,497,l),
(79,659,l)
);
},
{
closed = 1;
nodes = (
(485,75,o),
(411,151,o),
(411,204,qs),
(411,257,o),
(485,332,o),
(539,332,qs),
(592,332,o),
(666,257,o),
(666,204,qs),
(666,151,o),
(592,75,o),
(539,75,qs)
);
},
{
closed = 1;
nodes = (
(485,822,o),
(411,899,o),
(411,952,qs),
(411,1006,o),
(485,1079,o),
(539,1079,qs),
(592,1079,o),
(666,1006,o),
(666,952,qs),
(666,899,o),
(592,822,o),
(539,823,q)
);
}
);
width = 1080;
},
{
layerId = "2FE1F5E8-0BE1-472C-82D2-406E458C4580";
shapes = (
{
closed = 1;
nodes = (
(1222,750,l),
(1222,450,l),
(154,450,l),
(154,750,l)
);
},
{
closed = 1;
nodes = (
(603,-23,o),
(484,96,o),
(484,183,qs),
(484,265,o),
(603,382,o),
(689,382,qs),
(772,382,o),
(890,265,o),
(890,183,qs),
(890,96,o),
(772,-23,o),
(689,-24,q)
);
},
{
closed = 1;
nodes = (
(604,817,o),
(484,939,o),
(484,1022,qs),
(484,1107,o),
(604,1225,o),
(689,1225,qs),
(773,1225,o),
(890,1107,o),
(890,1022,qs),
(890,939,o),
(773,817,o),
(689,818,q)
);
}
);
width = 1377;
}
);
unicode = 247;
},
{
glyphname = thorn;
layers = (
{
layerId = "2FE1F5E8-0BE1-472C-82D2-406E458C4580";
shapes = (
{
closed = 1;
nodes = (
(705,-24,o),
(593,18,o),
(511,97,o),
(488,154,q),
(484,154,l),
(484,-415,l),
(85,-415,l),
(85,1478,l),
(484,1478,l),
(484,918,l),
(489,918,l),
(521,968,o),
(602,1037,o),
(710,1072,o),
(778,1072,qs),
(909,1072,o),
(1111,932,o),
(1226,687,o),
(1226,526,qs),
(1226,359,o),
(1115,112,o),
(911,-24,o),
(774,-24,qs)
);
},
{
closed = 1;
nodes = (
(710,288,o),
(786,347,o),
(825,454,o),
(825,526,qs),
(825,599,o),
(786,704,o),
(710,762,o),
(656,762,qs),
(602,762,o),
(519,704,o),
(470,599,o),
(470,526,qs),
(470,454,o),
(519,347,o),
(602,288,o),
(656,288,qs)
);
}
);
width = 1273;
},
{
layerId = "7F7FF3B5-2624-4A00-8D8B-13060CA2B611";
shapes = (
{
closed = 1;
nodes = (
(554,-20,o),
(432,19,o),
(331,98,o),
(294,159,q),
(292,159,l),
(292,-415,l),
(122,-415,l),
(122,1478,l),
(292,1478,l),
(292,894,l),
(294,894,l),
(328,951,o),
(428,1029,o),
(554,1067,o),
(621,1067,qs),
(758,1067,o),
(962,930,o),
(1075,686,o),
(1075,524,qs),
(1075,362,o),
(962,118,o),
(758,-20,o),
(621,-20,qs)
);
},
{
closed = 1;
nodes = (
(686,132,o),
(825,222,o),
(905,396,o),
(905,524,qs),
(905,653,o),
(825,828,o),
(686,918,o),
(596,918,qs),
(497,918,o),
(356,819,o),
(278,643,o),
(278,524,qs),
(278,405,o),
(356,229,o),
(497,132,o),
(596,132,qs)
);
}
);
width = 1136;
}
);
leftKerningGroup = b2;
rightKerningGroup = b;
unicode = 254;
},
{
glyphname = Hbar;
layers = (
{
layerId = "2FE1F5E8-0BE1-472C-82D2-406E458C4580";
shapes = (
{
closed = 1;
nodes = (
(1622,1258,l),
(1622,1067,l),
(40,1067,l),
(40,1258,l)
);
},
{
closed = 1;
nodes = (
(163,0,l),
(163,1478,l),
(575,1478,l),
(575,926,l),
(1067,926,l),
(1067,1478,l),
(1481,1478,l),
(1481,0,l),
(1067,0,l),
(1067,576,l),
(575,576,l),
(575,0,l)
);
}
);
width = 1661;
},
{
layerId = "7F7FF3B5-2624-4A00-8D8B-13060CA2B611";
shapes = (
{
closed = 1;
nodes = (
(1326,1167,l),
(1326,1016,l),
(-57,1016,l),
(-57,1167,l)
);
},
{
closed = 1;
nodes = (
(62,0,l),
(62,1478,l),
(240,1478,l),
(240,837,l),
(1028,837,l),
(1028,1478,l),
(1206,1478,l),
(1206,0,l),
(1028,0,l),
(1028,678,l),
(240,678,l),
(240,0,l)
);
}
);
width = 1266;
}
);
unicode = 294;
},
{
glyphname = dotlessi;
layers = (
{
layerId = "7F7FF3B5-2624-4A00-8D8B-13060CA2B611";
shapes = (
{
closed = 1;
nodes = (
(123,0,l),
(123,1048,l),
(292,1048,l),
(292,0,l)
);
}
);
width = 412;
},
{
layerId = "2FE1F5E8-0BE1-472C-82D2-406E458C4580";
shapes = (
{
closed = 1;
nodes = (
(85,0,l),
(85,1048,l),
(482,1048,l),
(482,0,l)
);
}
);
width = 568;
}
);
leftKerningGroup = m;
rightKerningGroup = u;
unicode = 305;
},
{
glyphname = kgreenlandic;
layers = (
{
layerId = "7F7FF3B5-2624-4A00-8D8B-13060CA2B611";
shapes = (
{
closed = 1;
nodes = (
(306,1048,l),
(306,0,l),
(136,0,l),
(136,1048,l)
);
},
{
closed = 1;
nodes = (
(1006,1048,l),
(467,446,l),
(238,446,l),
(238,600,l),
(404,600,l),
(800,1048,l)
);
},
{
closed = 1;
nodes = (
(791,0,l),
(377,453,l),
(462,592,l),
(1000,0,l)
);
}
);
width = 1014;
},
{
layerId = "2FE1F5E8-0BE1-472C-82D2-406E458C4580";
shapes = (
{
closed = 1;
nodes = (
(484,1048,l),
(484,0,l),
(85,0,l),
(85,1048,l)
);
},
{
closed = 1;
nodes = (
(1273,1048,l),
(801,365,l),
(441,365,l),
(401,667,l),
(577,667,l),
(816,1048,l)
);
},
{
closed = 1;
nodes = (
(794,0,l),
(580,390,l),
(918,551,l),
(1273,0,l)
);
}
);
width = 1253;
}
);
unicode = 312;
},
{
glyphname = Eng;
layers = (
{
layerId = "2FE1F5E8-0BE1-472C-82D2-406E458C4580";
shapes = (
{
closed = 1;
nodes = (
(790,-97,l),
(808,-97,o),
(879,-97,o),
(925,-97,qs),
(967,-97,o),
(1008,-57,o),
(1008,-16,qs),
(1008,111,l),
(1421,111,l),
(1421,-38,ls),
(1421,-226,o),
(1214,-415,o),
(1005,-415,qs),
(938,-415,o),
(822,-415,o),
(790,-415,q)
);
},
{
closed = 1;
nodes = (
(80,0,l),
(80,1478,l),
(501,1478,l),
(860,899,ls),
(884,860,o),
(957,730,o),
(1037,581,o),
(1072,516,q),
(1022,401,l),
(1017,482,o),
(1011,687,o),
(1008,879,o),
(1008,938,qs),
(1008,1478,l),
(1421,1478,l),
(1421,0,l),
(1000,0,l),
(664,541,ls),
(634,589,o),
(546,740,o),
(445,927,o),
(395,1024,q),
(477,1048,l),
(484,944,o),
(491,743,o),
(491,585,o),
(491,541,qs),
(491,0,l)
);
}
);
width = 1500;
},
{
layerId = "7F7FF3B5-2624-4A00-8D8B-13060CA2B611";
shapes = (
{
closed = 1;
nodes = (
(907,-260,l),
(921,-260,o),
(990,-260,o),
(1005,-260,qs),
(1068,-260,o),
(1118,-214,o),
(1118,-161,qs),
(1118,127,l),
(1296,127,l),
(1296,-169,ls),
(1296,-289,o),
(1153,-415,o),
(1016,-415,qs),
(981,-415,o),
(928,-415,o),
(907,-415,q)
);
},
{
closed = 1;
nodes = (
(148,0,l),
(148,1478,l),
(353,1478,l),
(962,516,ls),
(982,485,o),
(1043,383,o),
(1113,266,o),
(1144,208,q),
(1127,173,l),
(1126,225,o),
(1120,366,o),
(1118,492,o),
(1118,524,qs),
(1118,1478,l),
(1296,1478,l),
(1296,0,l),
(1089,0,l),
(548,856,l),
(526,889,o),
(451,1011,o),
(351,1176,o),
(294,1275,q),
(315,1322,l),
(320,1206,o),
(324,1026,o),
(326,896,o),
(326,858,qs),
(326,0,l)
);
}
);
width = 1442;
}
);
rightKerningGroup = H;
unicode = 330;
},
{
glyphname = eng;
layers = (
{
layerId = "7F7FF3B5-2624-4A00-8D8B-13060CA2B611";
shapes = (
{
closed = 1;
nodes = (
(594,-260,l),
(609,-260,o),
(688,-260,o),
(703,-260,qs),
(766,-260,o),
(817,-214,o),
(817,-161,qs),
(817,0,l),
(985,0,l),
(985,-169,ls),
(985,-289,o),
(841,-415,o),
(703,-415,qs),
(669,-415,o),
(615,-415,o),
(594,-415,q)
);
},
{
closed = 1;
nodes = (
(292,0,l),
(122,0,l),
(122,1048,l),
(288,1048,l),
(288,794,l),
(241,794,l),
(292,936,o),
(475,1067,o),
(599,1067,qs),
(706,1067,o),
(881,975,o),
(985,791,o),
(985,651,qs),
(985,0,l),
(817,0,l),
(817,639,ls),
(817,775,o),
(686,912,o),
(568,912,qs),
(491,912,o),
(366,852,o),
(292,720,o),
(292,613,qs)
);
}
);
width = 1097;
},
{
layerId = "2FE1F5E8-0BE1-472C-82D2-406E458C4580";
shapes = (
{
closed = 1;
nodes = (
(595,-104,l),
(625,-104,o),
(657,-104,o),
(690,-104,qs),
(732,-104,o),
(774,-60,o),
(774,-16,qs),
(774,0,l),
(1171,0,l),
(1171,-38,ls),
(1171,-226,o),
(979,-415,o),
(770,-415,qs),
(702,-415,o),
(629,-415,o),
(595,-415,q)
);
},
{
closed = 1;
nodes = (
(482,0,l),
(85,0,l),
(85,1048,l),
(478,1048,l),
(478,759,l),
(425,759,l),
(475,897,o),
(659,1072,o),
(818,1072,qs),
(935,1072,o),
(1092,971,o),
(1171,788,o),
(1171,660,qs),
(1171,0,l),
(774,0,l),
(774,571,ls),
(774,651,o),
(699,736,o),
(629,736,qs),
(581,736,o),
(516,697,o),
(482,616,o),
(482,555,qs)
);
}
);
width = 1256;
}
);
leftKerningGroup = m;
rightKerningGroup = a;
unicode = 331;
},
{
glyphname = OE;
layers = (
{
layerId = "2FE1F5E8-0BE1-472C-82D2-406E458C4580";
shapes = (
{
closed = 1;
nodes = (
(789,0,ls),
(561,0,o),
(224,183,o),
(40,513,o),
(40,739,qs),
(40,964,o),
(226,1296,o),
(566,1478,o),
(794,1478,qs),
(1198,1478,l),
(1198,1137,l),
(819,1137,ls),
(696,1137,o),
(533,1051,o),
(457,875,o),
(457,739,qs),
(457,604,o),
(531,427,o),
(688,342,o),
(809,342,qs),
(1193,342,l),
(1193,0,l)
);
},
{
closed = 1;
nodes = (
(952,0,l),
(952,1478,l),
(2098,1478,l),
(2098,1129,l),
(1365,1129,l),
(1365,907,l),
(2041,907,l),
(2041,570,l),
(1365,570,l),
(1365,350,l),
(2098,350,l),
(2098,0,l)
);
}
);
width = 2158;
},
{
layerId = "7F7FF3B5-2624-4A00-8D8B-13060CA2B611";
shapes = (
{
closed = 1;
nodes = (
(766,0,ls),
(541,0,o),
(226,179,o),
(62,511,o),
(62,742,qs),
(62,971,o),
(224,1302,o),
(531,1478,o),
(746,1478,qs),
(1034,1478,l),
(1034,1320,l),
(758,1320,ls),
(584,1320,o),
(352,1180,o),
(233,921,o),
(233,742,qs),
(233,561,o),
(353,300,o),
(594,159,o),
(778,159,qs),
(1026,159,l),
(1026,0,l)
);
},
{
closed = 1;
nodes = (
(948,0,l),
(948,1478,l),
(1910,1478,l),
(1910,1320,l),
(1127,1320,l),
(1127,837,l),
(1852,837,l),
(1852,678,l),
(1127,678,l),
(1127,159,l),
(1910,159,l),
(1910,0,l)
);
}
);
width = 2018;
}
);
leftKerningGroup = C2;
rightKerningGroup = E;
unicode = 338;
},
{
glyphname = tbar;
layers = (
{
layerId = "2FE1F5E8-0BE1-472C-82D2-406E458C4580";
shapes = (
{
closed = 1;
nodes = (
(810,662,l),
(810,447,l),
(20,447,l),
(20,662,l)
);
},
{
closed = 1;
nodes = (
(810,1048,l),
(810,747,l),
(20,747,l),
(20,1048,l)
);
},
{
closed = 1;
nodes = (
(196,1335,l),
(593,1335,l),
(593,382,ls),
(593,336,o),
(631,302,o),
(685,302,qs),
(711,302,o),
(794,302,o),
(810,302,q),
(810,0,l),
(783,0,o),
(659,0,o),
(591,0,qs),
(384,0,o),
(196,150,o),
(196,313,qs)
);
}
);
width = 849;
},
{
layerId = "7F7FF3B5-2624-4A00-8D8B-13060CA2B611";
shapes = (
{
closed = 1;
nodes = (
(606,740,l),
(606,594,l),
(38,594,l),
(38,740,l)
);
},
{
closed = 1;
nodes = (
(606,1048,l),
(606,903,l),
(38,903,l),
(38,1048,l)
);
},
{
closed = 1;
nodes = (
(226,1335,l),
(394,1335,l),
(394,254,ls),
(394,194,o),
(445,145,o),
(510,145,qs),
(533,145,o),
(584,145,o),
(606,145,q),
(606,0,l),
(581,0,o),
(519,0,o),
(494,0,qs),
(358,0,o),
(226,118,o),
(226,236,qs)
);
}
);
width = 664;
}
);
leftKerningGroup = t2;
rightKerningGroup = t;
unicode = 359;
},
{
glyphname = uni0181;
layers = (
{
layerId = "2FE1F5E8-0BE1-472C-82D2-406E458C4580";
shapes = (
{
closed = 1;
nodes = (
(20,1010,l),
(20,1129,ls),
(20,1280,o),
(182,1478,o),
(332,1478,qs),
(555,1478,l),
(555,1141,l),
(481,1141,ls),
(449,1141,o),
(415,1107,o),
(415,1076,qs),
(415,1010,l)
);
},
{
closed = 1;
nodes = (
(555,0,l),
(555,1478,l),
(1196,1478,ls),
(1365,1478,o),
(1595,1384,o),
(1713,1217,o),
(1713,1109,qs),
(1713,1024,o),
(1641,886,o),
(1514,796,o),
(1427,779,q),
(1427,777,l),
(1522,774,o),
(1674,681,o),
(1762,523,o),
(1762,419,qs),
(1762,298,o),
(1641,108,o),
(1413,0,o),
(1253,0,qs)
);
},
{
closed = 1;
nodes = (
(957,310,l),
(1175,310,ls),
(1251,310,o),
(1340,390,o),
(1340,456,qs),
(1340,501,o),
(1299,566,o),
(1226,601,o),
(1175,601,qs),
(957,601,l)
);
},
{
closed = 1;
nodes = (
(957,894,l),
(1150,894,ls),
(1196,894,o),
(1263,927,o),
(1300,989,o),
(1300,1031,qs),
(1300,1094,o),
(1218,1169,o),
(1150,1169,qs),
(957,1169,l)
);
}
);
width = 1798;
},
{
layerId = "7F7FF3B5-2624-4A00-8D8B-13060CA2B611";
shapes = (
{
closed = 1;
nodes = (
(56,1042,l),
(56,1225,ls),
(56,1352,o),
(195,1478,o),
(337,1478,qs),
(437,1478,l),
(437,1320,l),
(337,1320,ls),
(273,1320,o),
(221,1274,o),
(221,1220,qs),
(221,1042,l)
);
},
{
closed = 1;
nodes = (
(437,0,l),
(437,1478,l),
(970,1478,ls),
(1119,1478,o),
(1332,1383,o),
(1447,1206,o),
(1447,1086,qs),
(1447,1001,o),
(1389,877,o),
(1282,792,o),
(1206,767,q),
(1206,764,l),
(1292,750,o),
(1427,666,o),
(1507,522,o),
(1507,415,qs),
(1507,289,o),
(1391,103,o),
(1156,0,o),
(978,0,qs)
);
},
{
closed = 1;
nodes = (
(615,159,l),
(978,159,ls),
(1147,159,o),
(1325,285,o),
(1325,408,qs),
(1325,490,o),
(1247,609,o),
(1097,673,o),
(988,673,qs),
(615,673,l)
);
},
{
closed = 1;
nodes = (
(615,830,l),
(978,830,ls),
(1070,830,o),
(1200,888,o),
(1270,999,o),
(1270,1075,qs),
(1270,1188,o),
(1116,1320,o),
(978,1320,qs),
(615,1320,l)
);
}
);
width = 1600;
}
);
unicode = 385;
},
{
glyphname = uni0182;
layers = (
{
layerId = "2FE1F5E8-0BE1-472C-82D2-406E458C4580";
shapes = (
{
closed = 1;
nodes = (
(80,0,l),
(80,1478,l),
(1119,1478,l),
(1119,1155,l),
(481,1155,l),
(481,983,l),
(631,983,ls),
(818,983,o),
(1097,861,o),
(1253,644,o),
(1253,497,qs),
(1253,350,o),
(1097,126,o),
(818,0,o),
(631,0,qs)
);
},
{
closed = 1;
nodes = (
(481,315,l),
(631,315,ls),
(703,315,o),
(801,362,o),
(854,446,o),
(854,501,qs),
(854,575,o),
(740,675,o),
(631,675,qs),
(481,675,l)
);
}
);
width = 1298;
},
{
layerId = "7F7FF3B5-2624-4A00-8D8B-13060CA2B611";
shapes = (
{
closed = 1;
nodes = (
(159,0,l),
(159,1478,l),
(1052,1478,l),
(1052,1320,l),
(337,1320,l),
(337,858,l),
(712,858,ls),
(873,858,o),
(1092,754,o),
(1205,565,o),
(1205,437,qs),
(1205,308,o),
(1092,111,o),
(873,0,o),
(712,0,qs)
);
},
{
closed = 1;
nodes = (
(337,156,l),
(712,156,ls),
(815,156,o),
(954,237,o),
(1028,367,o),
(1028,439,qs),
(1028,545,o),
(865,699,o),
(712,699,qs),
(337,699,l)
);
}
);
width = 1288;
}
);
unicode = 386;
},
{
glyphname = uni0183;
layers = (
{
layerId = "2FE1F5E8-0BE1-472C-82D2-406E458C4580";
shapes = (
{
closed = 1;
nodes = (
(289,1176,l),
(85,1478,l),
(978,1478,l),
(978,1176,l)
);
},
{
closed = 1;
nodes = (
(702,-24,o),
(588,18,o),
(503,102,o),
(480,163,q),
(479,163,l),
(479,0,l),
(85,0,l),
(85,1478,l),
(482,1478,l),
(482,910,l),
(483,910,l),
(517,967,o),
(601,1037,o),
(709,1072,o),
(776,1072,qs),
(908,1072,o),
(1109,932,o),
(1225,687,o),
(1225,526,qs),
(1225,359,o),
(1112,112,o),
(909,-24,o),
(772,-24,qs)
);
},
{
closed = 1;
nodes = (
(709,288,o),
(784,347,o),
(823,454,o),
(823,526,qs),
(823,599,o),
(784,704,o),
(709,762,o),
(654,762,qs),
(601,762,o),
(516,704,o),
(468,599,o),
(468,526,qs),
(468,454,o),
(516,347,o),
(601,288,o),
(654,288,qs)
);
}
);
width = 1271;
},
{
layerId = "7F7FF3B5-2624-4A00-8D8B-13060CA2B611";
shapes = (
{
closed = 1;
nodes = (
(224,1327,l),
(136,1478,l),
(948,1478,l),
(948,1327,l)
);
},
{
closed = 1;
nodes = (
(568,-20,o),
(444,19,o),
(342,98,o),
(303,159,q),
(302,159,l),
(302,0,l),
(137,0,l),
(137,1478,l),
(306,1478,l),
(306,894,l),
(308,894,l),
(342,951,o),
(442,1029,o),
(568,1067,o),
(635,1067,qs),
(772,1067,o),
(977,930,o),
(1089,686,o),
(1089,524,qs),
(1089,362,o),
(977,118,o),
(772,-20,o),
(635,-20,qs)
);
},
{
closed = 1;
nodes = (
(700,132,o),
(839,222,o),
(919,396,o),
(919,524,qs),
(919,653,o),
(839,828,o),
(700,918,o),
(610,918,qs),
(511,918,o),
(370,819,o),
(292,643,o),
(292,524,qs),
(292,405,o),
(370,229,o),
(511,132,o),
(610,132,qs)
);
}
);
width = 1174;
}
);
unicode = 387;
},
{
glyphname = uni0184;
layers = (
{
layerId = "2FE1F5E8-0BE1-472C-82D2-406E458C4580";
shapes = (
{
closed = 1;
nodes = (
(292,884,l),
(0,1053,l),
(246,1478,l),
(635,1478,l)
);
},
{
closed = 1;
nodes = (
(710,1007,l),
(1079,1007,ls),
(1258,1007,o),
(1519,884,o),
(1661,659,o),
(1661,504,qs),
(1661,350,o),
(1531,124,o),
(1292,0,o),
(1127,0,qs),
(461,0,l),
(461,1478,l),
(874,1478,l),
(874,335,l),
(1056,335,ls),
(1151,335,o),
(1262,428,o),
(1262,508,qs),
(1262,561,o),
(1212,639,o),
(1119,680,o),
(1056,680,qs),
(710,680,l)
);
}
);
width = 1706;
},
{
layerId = "7F7FF3B5-2624-4A00-8D8B-13060CA2B611";
shapes = (
{
closed = 1;
nodes = (
(179,950,l),
(32,1034,l),
(287,1478,l),
(482,1478,l)
);
},
{
closed = 1;
nodes = (
(523,888,l),
(936,888,ls),
(1090,888,o),
(1313,783,o),
(1430,587,o),
(1430,453,qs),
(1430,313,o),
(1313,110,o),
(1090,0,o),
(936,0,qs),
(391,0,l),
(391,1478,l),
(569,1478,l),
(569,159,l),
(928,159,ls),
(1077,159,o),
(1252,317,o),
(1252,453,qs),
(1252,538,o),
(1172,663,o),
(1028,730,o),
(928,730,qs),
(523,730,l)
);
}
);
width = 1514;
}
);
unicode = 388;
},
{
glyphname = uni0185;
layers = (
{
layerId = "2FE1F5E8-0BE1-472C-82D2-406E458C4580";
shapes = (
{
closed = 1;
nodes = (
(272,550,l),
(-4,709,l),
(192,1048,l),
(534,1048,l)
);
},
{
closed = 1;
nodes = (
(620,729,l),
(928,729,ls),
(1075,729,o),
(1278,643,o),
(1384,482,o),
(1384,364,qs),
(1384,248,o),
(1278,85,o),
(1075,0,o),
(928,0,qs),
(392,0,l),
(392,1048,l),
(789,1048,l),
(789,298,l),
(917,298,ls),
(960,298,o),
(1007,334,o),
(1007,369,qs),
(1007,402,o),
(960,439,o),
(917,439,qs),
(620,439,l)
);
}
);
width = 1429;
},
{
layerId = "7F7FF3B5-2624-4A00-8D8B-13060CA2B611";
shapes = (
{
closed = 1;
nodes = (
(179,600,l),
(42,679,l),
(254,1048,l),
(436,1048,l)
);
},
{
closed = 1;
nodes = (
(498,690,l),
(822,690,ls),
(939,690,o),
(1116,603,o),
(1216,449,o),
(1216,350,qs),
(1216,247,o),
(1116,89,o),
(939,0,o),
(822,0,qs),
(351,0,l),
(351,1048,l),
(520,1048,l),
(520,159,l),
(817,159,ls),
(923,159,o),
(1048,263,o),
(1048,350,qs),
(1048,434,o),
(923,531,o),
(817,531,qs),
(498,531,l)
);
}
);
width = 1300;
}
);
unicode = 389;
},
{
glyphname = uni0186;
layers = (
{
layerId = "2FE1F5E8-0BE1-472C-82D2-406E458C4580";
shapes = (
{
closed = 1;
nodes = (
(927,1503,o),
(1253,1325,o),
(1443,986,o),
(1443,740,qs),
(1443,492,o),
(1253,153,o),
(927,-24,o),
(725,-24,qs),
(582,-24,o),
(344,60,o),
(164,213,o),
(52,426,o),
(38,558,q),
(454,558,l),
(462,505,o),
(507,422,o),
(574,364,o),
(663,333,o),
(717,333,qs),
(817,333,o),
(954,428,o),
(1027,611,o),
(1027,740,qs),
(1027,868,o),
(955,1050,o),
(818,1146,o),
(717,1146,qs),
(663,1146,o),
(575,1116,o),
(508,1057,o),
(463,975,o),
(454,923,q),
(38,923,l),
(54,1054,o),
(164,1266,o),
(345,1420,o),
(582,1503,o),
(725,1503,qs)
);
}
);
width = 1483;
},
{
layerId = "7F7FF3B5-2624-4A00-8D8B-13060CA2B611";
shapes = (
{
closed = 1;
nodes = (
(910,1503,o),
(1218,1306,o),
(1390,963,o),
(1390,740,qs),
(1390,517,o),
(1219,172,o),
(911,-24,o),
(707,-24,qs),
(591,-24,o),
(387,45,o),
(225,177,o),
(118,362,o),
(97,479,q),
(280,479,l),
(298,398,o),
(375,273,o),
(486,186,o),
(626,144,o),
(707,144,qs),
(862,144,o),
(1088,294,o),
(1212,564,o),
(1212,740,qs),
(1212,917,o),
(1088,1185,o),
(862,1336,o),
(707,1336,qs),
(626,1336,o),
(487,1293,o),
(376,1206,o),
(298,1083,o),
(279,1002,q),
(97,1002,l),
(117,1117,o),
(225,1302,o),
(387,1433,o),
(591,1503,o),
(707,1503,qs)
);
}
);
width = 1493;
}
);
unicode = 390;
},
{
glyphname = uni0187;
layers = (
{
layerId = "2FE1F5E8-0BE1-472C-82D2-406E458C4580";
shapes = (
{
closed = 1;
nodes = (
(1050,921,l),
(1050,1285,ls),
(1050,1475,o),
(1241,1662,o),
(1451,1662,qs),
(1518,1662,o),
(1633,1662,o),
(1665,1662,q),
(1665,1351,l),
(1647,1351,o),
(1575,1351,o),
(1530,1351,qs),
(1487,1351,o),
(1445,1307,o),
(1445,1264,qs),
(1445,921,l)
);
},
{
closed = 1;
nodes = (
(556,-24,o),
(230,153,o),
(40,492,o),
(40,739,qs),
(40,986,o),
(230,1326,o),
(556,1503,o),
(758,1503,qs),
(900,1503,o),
(1138,1419,o),
(1318,1265,o),
(1430,1052,o),
(1445,921,q),
(1029,921,l),
(1020,973,o),
(975,1057,o),
(908,1115,o),
(819,1146,o),
(767,1146,qs),
(666,1146,o),
(528,1050,o),
(457,868,o),
(457,739,qs),
(457,610,o),
(527,428,o),
(666,333,o),
(767,333,qs),
(819,333,o),
(907,362,o),
(974,422,o),
(1018,504,o),
(1029,555,q),
(1445,555,l),
(1429,424,o),
(1318,212,o),
(1137,59,o),
(900,-24,o),
(758,-24,qs)
);
}
);
width = 1483;
},
{
layerId = "7F7FF3B5-2624-4A00-8D8B-13060CA2B611";
shapes = (
{
closed = 1;
nodes = (
(1230,1000,l),
(1230,1416,ls),
(1230,1538,o),
(1373,1662,o),
(1512,1662,qs),
(1545,1662,o),
(1590,1662,o),
(1611,1662,q),
(1611,1516,l),
(1594,1516,o),
(1526,1516,o),
(1512,1516,qs),
(1448,1516,o),
(1394,1470,o),
(1394,1416,qs),
(1394,1000,l)
);
},
{
closed = 1;
nodes = (
(581,-24,o),
(273,172,o),
(102,516,o),
(102,739,qs),
(102,963,o),
(272,1306,o),
(581,1503,o),
(785,1503,qs),
(901,1503,o),
(1105,1433,o),
(1265,1301,o),
(1373,1117,o),
(1394,1000,q),
(1212,1000,l),
(1194,1080,o),
(1117,1206,o),
(1006,1293,o),
(865,1336,o),
(785,1336,qs),
(630,1336,o),
(402,1184,o),
(280,916,o),
(280,739,qs),
(280,563,o),
(402,294,o),
(630,144,o),
(785,144,qs),
(865,144,o),
(1005,186,o),
(1116,272,o),
(1194,396,o),
(1213,477,q),
(1394,477,l),
(1374,361,o),
(1265,176,o),
(1105,45,o),
(901,-24,o),
(785,-24,qs)
);
}
);
width = 1493;
}
);
unicode = 391;
},
{
glyphname = uni0188;
layers = (
{
layerId = "2FE1F5E8-0BE1-472C-82D2-406E458C4580";
shapes = (
{
closed = 1;
nodes = (
(799,613,l),
(784,876,ls),
(773,1065,o),
(939,1253,o),
(1147,1253,qs),
(1215,1253,o),
(1328,1253,o),
(1362,1253,q),
(1362,941,l),
(1344,941,o),
(1273,941,o),
(1226,941,qs),
(1184,941,o),
(1141,898,o),
(1141,854,qs),
(1141,613,l)
);
},
{
closed = 1;
nodes = (
(438,-24,o),
(185,113,o),
(45,360,o),
(45,524,qs),
(45,688,o),
(185,935,o),
(438,1072,o),
(605,1072,qs),
(720,1072,o),
(913,1006,o),
(1056,883,o),
(1137,715,o),
(1141,613,q),
(762,613,l),
(759,648,o),
(736,704,o),
(698,743,o),
(645,764,o),
(613,764,qs),
(561,764,o),
(486,707,o),
(446,600,o),
(446,524,qs),
(446,449,o),
(486,342,o),
(561,284,o),
(613,284,qs),
(645,284,o),
(698,306,o),
(736,345,o),
(759,402,o),
(762,439,q),
(1141,439,l),
(1141,336,o),
(1063,168,o),
(920,44,o),
(723,-24,o),
(605,-24,qs)
);
}
);
width = 1402;
},
{
layerId = "7F7FF3B5-2624-4A00-8D8B-13060CA2B611";
shapes = (
{
closed = 1;
nodes = (
(866,707,l),
(851,1007,l),
(843,1127,o),
(990,1253,o),
(1128,1253,qs),
(1162,1253,o),
(1206,1253,o),
(1227,1253,q),
(1227,1106,l),
(1212,1106,o),
(1143,1106,o),
(1128,1106,qs),
(1065,1106,o),
(1011,1058,o),
(1011,1007,qs),
(1011,707,l)
);
},
{
closed = 1;
nodes = (
(424,-24,o),
(205,115,o),
(84,362,o),
(84,522,qs),
(84,682,o),
(205,930,o),
(424,1072,o),
(570,1072,qs),
(659,1072,o),
(811,1017,o),
(927,919,o),
(1000,786,o),
(1011,707,q),
(840,707,l),
(832,753,o),
(789,831,o),
(720,887,o),
(629,919,o),
(570,919,qs),
(471,919,o),
(330,820,o),
(254,642,o),
(254,522,qs),
(254,402,o),
(330,226,o),
(470,129,o),
(570,129,qs),
(629,129,o),
(718,159,o),
(781,215,o),
(825,293,o),
(838,342,q),
(1011,342,l),
(1000,264,o),
(927,131,o),
(810,32,o),
(658,-24,o),
(570,-24,qs)
);
}
);
width = 1290;
}
);
unicode = 392;
},
{
glyphname = uni018A;
layers = (
{
layerId = "2FE1F5E8-0BE1-472C-82D2-406E458C4580";
shapes = (
{
closed = 1;
nodes = (
(20,1010,l),
(20,1129,ls),
(20,1280,o),
(182,1478,o),
(332,1478,qs),
(555,1478,l),
(555,1141,l),
(481,1141,ls),
(449,1141,o),
(415,1107,o),
(415,1076,qs),
(415,1010,l)
);
},
{
closed = 1;
nodes = (
(729,0,l),
(729,342,l),
(1114,342,ls),
(1235,342,o),
(1389,427,o),
(1464,604,o),
(1464,739,qs),
(1464,875,o),
(1387,1051,o),
(1226,1137,o),
(1101,1137,qs),
(722,1137,l),
(722,1478,l),
(1127,1478,ls),
(1354,1478,o),
(1695,1296,o),
(1881,964,o),
(1881,739,qs),
(1881,513,o),
(1697,183,o),
(1362,0,o),
(1133,0,qs)
);
},
{
closed = 1;
nodes = (
(968,1478,l),
(968,0,l),
(555,0,l),
(555,1478,l)
);
}
);
width = 1920;
},
{
layerId = "7F7FF3B5-2624-4A00-8D8B-13060CA2B611";
shapes = (
{
closed = 1;
nodes = (
(56,1042,l),
(56,1225,ls),
(56,1352,o),
(195,1478,o),
(337,1478,qs),
(437,1478,l),
(437,1320,l),
(337,1320,ls),
(273,1320,o),
(221,1274,o),
(221,1220,qs),
(221,1042,l)
);
},
{
closed = 1;
nodes = (
(538,0,l),
(538,159,l),
(881,159,ls),
(1065,159,o),
(1305,300,o),
(1424,561,o),
(1424,742,qs),
(1424,921,o),
(1306,1180,o),
(1075,1320,o),
(901,1320,qs),
(530,1320,l),
(530,1478,l),
(912,1478,ls),
(1128,1478,o),
(1436,1302,o),
(1602,971,o),
(1602,742,qs),
(1602,511,o),
(1434,179,o),
(1118,0,o),
(894,0,qs)
);
},
{
closed = 1;
nodes = (
(615,1478,l),
(615,0,l),
(437,0,l),
(437,1478,l)
);
}
);
width = 1703;
}
);
unicode = 394;
},
{
glyphname = uni018B;
layers = (
{
layerId = "2FE1F5E8-0BE1-472C-82D2-406E458C4580";
shapes = (
{
closed = 1;
nodes = (
(1280,0,l),
(729,0,ls),
(543,0,o),
(264,127,o),
(109,352,o),
(109,497,qs),
(109,642,o),
(264,860,o),
(543,983,o),
(729,983,qs),
(894,983,l),
(894,1175,l),
(240,1175,l),
(240,1491,l),
(1280,1491,l)
);
},
{
closed = 1;
nodes = (
(894,310,l),
(894,675,l),
(729,675,l),
(618,676,o),
(493,575,o),
(493,501,qs),
(493,446,o),
(550,360,o),
(655,310,o),
(729,310,qs)
);
}
);
width = 1385;
},
{
layerId = "7F7FF3B5-2624-4A00-8D8B-13060CA2B611";
shapes = (
{
closed = 1;
nodes = (
(1143,0,l),
(591,0,ls),
(434,0,o),
(214,111,o),
(100,308,o),
(100,437,qs),
(100,565,o),
(214,757,o),
(434,863,o),
(591,863,qs),
(939,863,l),
(939,1278,l),
(254,1278,l),
(254,1447,l),
(1143,1447,l)
);
},
{
closed = 1;
nodes = (
(939,164,l),
(939,697,l),
(591,697,l),
(439,696,o),
(306,545,o),
(306,439,qs),
(306,368,o),
(362,243,o),
(489,164,o),
(591,164,qs)
);
}
);
width = 1243;
}
);
unicode = 395;
},
{
glyphname = uni018C;
layers = (
{
layerId = "2FE1F5E8-0BE1-472C-82D2-406E458C4580";
shapes = (
{
closed = 1;
nodes = (
(982,1176,l),
(292,1176,l),
(292,1478,l),
(1185,1478,l)
);
},
{
closed = 1;
nodes = (
(361,-24,o),
(158,112,o),
(45,359,o),
(45,526,qs),
(45,687,o),
(161,932,o),
(362,1072,o),
(494,1072,qs),
(563,1072,o),
(670,1037,o),
(754,967,o),
(788,910,q),
(789,910,l),
(789,1478,l),
(1185,1478,l),
(1185,0,l),
(792,0,l),
(792,163,l),
(791,163,l),
(768,102,o),
(682,18,o),
(568,-24,o),
(499,-24,qs)
);
},
{
closed = 1;
nodes = (
(670,288,o),
(754,347,o),
(801,454,o),
(801,526,qs),
(801,599,o),
(754,704,o),
(670,762,o),
(616,762,qs),
(563,762,o),
(486,704,o),
(446,599,o),
(446,526,qs),
(446,454,o),
(486,347,o),
(563,288,o),
(616,288,qs)
);
}
);
width = 1271;
},
{
layerId = "7F7FF3B5-2624-4A00-8D8B-13060CA2B611";
shapes = (
{
closed = 1;
nodes = (
(948,1327,l),
(224,1327,l),
(224,1478,l),
(1036,1478,l)
);
},
{
closed = 1;
nodes = (
(402,-20,o),
(196,118,o),
(84,362,o),
(84,524,qs),
(84,686,o),
(196,930,o),
(402,1067,o),
(538,1067,qs),
(607,1067,o),
(730,1029,o),
(832,951,o),
(865,894,q),
(867,894,l),
(867,1478,l),
(1036,1478,l),
(1036,0,l),
(871,0,l),
(871,159,l),
(868,159,l),
(832,98,o),
(729,19,o),
(607,-20,o),
(538,-20,qs)
);
},
{
closed = 1;
nodes = (
(660,132,o),
(803,229,o),
(881,405,o),
(881,524,qs),
(881,643,o),
(803,819,o),
(660,918,o),
(564,918,qs),
(472,918,o),
(333,828,o),
(254,653,o),
(254,524,qs),
(254,396,o),
(333,222,o),
(472,132,o),
(564,132,qs)
);
}
);
width = 1174;
}
);
unicode = 396;
},
{
glyphname = uni018D;
layers = (
{
layerId = "2FE1F5E8-0BE1-472C-82D2-406E458C4580";
shapes = (
{
closed = 1;
nodes = (
(1159,-373,l),
(278,-373,l),
(278,-75,l),
(680,-75,l),
(663,-65,o),
(617,-46,o),
(552,-12,o),
(506,24,q),
(362,132,o),
(176,391,o),
(176,546,qs),
(176,566,l),
(177,732,o),
(303,984,o),
(550,1123,o),
(729,1123,qs),
(906,1123,o),
(1152,997,o),
(1280,774,o),
(1280,623,qs),
(1280,603,ls),
(1280,457,o),
(1172,236,o),
(999,103,o),
(903,84,q),
(903,84,o),
(877,84,o),
(865,84,q),
(894,63,o),
(978,-15,o),
(1067,-100,o),
(1141,-173,o),
(1159,-191,q)
);
},
{
closed = 1;
nodes = (
(907,566,l),
(908,632,o),
(885,751,o),
(810,825,o),
(729,825,qs),
(655,825,o),
(578,758,o),
(550,641,o),
(550,566,qs),
(550,546,ls),
(550,438,o),
(636,295,o),
(697,266,qs),
(706,262,o),
(723,260,o),
(732,260,qs),
(799,260,o),
(877,335,o),
(908,465,o),
(907,546,q)
);
}
);
width = 1454;
},
{
layerId = "7F7FF3B5-2624-4A00-8D8B-13060CA2B611";
shapes = (
{
closed = 1;
nodes = (
(872,-373,l),
(169,-373,l),
(169,-221,l),
(608,-221,l),
(595,-204,o),
(527,-134,o),
(444,-60,o),
(413,-35,q),
(254,105,o),
(49,377,o),
(49,546,qs),
(49,566,ls),
(49,730,o),
(163,982,o),
(377,1124,o),
(528,1124,qs),
(680,1124,o),
(897,982,o),
(1010,730,o),
(1010,566,qs),
(1010,546,l),
(1011,427,o),
(905,226,o),
(706,93,o),
(564,75,qs),
(548,73,o),
(539,71,o),
(528,71,q),
(571,31,o),
(663,-48,o),
(753,-131,o),
(836,-213,o),
(871,-254,q)
);
},
{
closed = 1;
nodes = (
(812,566,ls),
(812,680,o),
(753,860,o),
(629,965,o),
(528,965,qs),
(432,965,o),
(306,860,o),
(246,680,o),
(246,566,qs),
(246,546,ls),
(246,428,o),
(355,254,o),
(424,208,q),
(444,202,o),
(485,196,o),
(511,196,qs),
(616,196,o),
(749,294,o),
(812,454,o),
(812,546,qs)
);
}
);
width = 1058;
}
);
unicode = 397;
},
{
glyphname = uni018E;
layers = (
{
layerId = "2FE1F5E8-0BE1-472C-82D2-406E458C4580";
shapes = (
{
closed = 1;
nodes = (
(1205,1478,l),
(1205,0,l),
(60,0,l),
(60,350,l),
(792,350,l),
(792,571,l),
(115,571,l),
(115,908,l),
(792,908,l),
(792,1129,l),
(60,1129,l),
(60,1478,l)
);
}
);
width = 1284;
},
{
layerId = "7F7FF3B5-2624-4A00-8D8B-13060CA2B611";
shapes = (
{
closed = 1;
nodes = (
(1043,1478,l),
(1043,0,l),
(82,0,l),
(82,159,l),
(864,159,l),
(864,642,l),
(139,642,l),
(139,800,l),
(864,800,l),
(864,1320,l),
(82,1320,l),
(82,1478,l)
);
}
);
width = 1203;
}
);
unicode = 398;
},
{
glyphname = uni018F;
layers = (
{
layerId = "2FE1F5E8-0BE1-472C-82D2-406E458C4580";
shapes = (
{
closed = 1;
nodes = (
(592,-24,o),
(339,66,o),
(155,234,o),
(56,468,o),
(56,612,qs),
(56,825,l),
(1128,825,l),
(1128,531,l),
(373,531,l),
(459,539,l),
(459,478,o),
(527,384,o),
(654,333,o),
(740,333,qs),
(846,333,o),
(978,422,o),
(1040,602,o),
(1040,739,qs),
(1040,869,o),
(980,1051,o),
(849,1146,o),
(740,1146,qs),
(683,1146,o),
(596,1121,o),
(533,1076,o),
(495,1010,o),
(487,968,q),
(66,968,l),
(76,1089,o),
(190,1285,o),
(373,1427,o),
(611,1503,o),
(747,1503,qs),
(948,1503,o),
(1271,1326,o),
(1456,986,o),
(1456,739,qs),
(1456,505,o),
(1285,163,o),
(967,-24,o),
(747,-24,qs)
);
}
);
width = 1496;
},
{
layerId = "7F7FF3B5-2624-4A00-8D8B-13060CA2B611";
shapes = (
{
closed = 1;
nodes = (
(608,-24,o),
(378,66,o),
(204,230,o),
(107,450,o),
(107,580,qs),
(107,740,l),
(1302,740,l),
(1302,581,l),
(226,581,l),
(284,583,l),
(284,453,o),
(410,254,o),
(616,144,o),
(740,144,qs),
(887,144,o),
(1107,294,o),
(1229,563,o),
(1229,739,qs),
(1229,916,o),
(1104,1184,o),
(879,1336,o),
(731,1336,qs),
(651,1336,o),
(507,1286,o),
(393,1197,o),
(313,1075,o),
(296,1000,q),
(115,1000,l),
(135,1111,o),
(244,1296,o),
(406,1429,o),
(614,1503,o),
(731,1503,qs),
(928,1503,o),
(1234,1306,o),
(1407,963,o),
(1407,739,qs),
(1407,516,o),
(1237,172,o),
(936,-24,o),
(740,-24,qs)
);
}
);
width = 1509;
}
);
unicode = 399;
},
{
glyphname = uni0190;
layers = (
{
layerId = "2FE1F5E8-0BE1-472C-82D2-406E458C4580";
shapes = (
{
closed = 1;
nodes = (
(466,-24,o),
(193,91,o),
(40,291,o),
(40,417,qs),
(40,505,o),
(118,659,o),
(270,762,o),
(381,773,q),
(381,776,l),
(255,791,o),
(85,957,o),
(85,1092,qs),
(85,1213,o),
(228,1397,o),
(480,1503,o),
(643,1503,qs),
(823,1503,o),
(1081,1376,o),
(1218,1160,o),
(1218,1024,q),
(834,1024,l),
(834,1077,o),
(784,1159,o),
(698,1205,o),
(643,1205,qs),
(591,1205,o),
(510,1163,o),
(463,1089,o),
(463,1042,qs),
(463,994,o),
(513,926,o),
(609,888,o),
(675,888,qs),
(818,888,l),
(818,611,l),
(675,611,ls),
(607,611,o),
(504,571,o),
(448,498,o),
(448,447,qs),
(448,400,o),
(500,325,o),
(591,283,o),
(649,283,qs),
(714,283,o),
(810,337,o),
(859,439,o),
(859,508,q),
(1246,508,l),
(1246,371,o),
(1124,127,o),
(859,-24,o),
(647,-24,qs)
);
}
);
width = 1296;
},
{
layerId = "7F7FF3B5-2624-4A00-8D8B-13060CA2B611";
shapes = (
{
closed = 1;
nodes = (
(466,-24,o),
(235,88,o),
(102,288,o),
(102,417,qs),
(102,504,o),
(179,648,o),
(318,746,o),
(413,761,q),
(413,764,l),
(290,801,o),
(147,975,o),
(147,1087,qs),
(147,1209,o),
(272,1394,o),
(488,1503,o),
(624,1503,qs),
(764,1503,o),
(979,1387,o),
(1101,1182,o),
(1101,1048,q),
(928,1048,l),
(928,1141,o),
(856,1275,o),
(720,1345,o),
(625,1345,qs),
(533,1345,o),
(397,1281,o),
(322,1161,o),
(322,1077,qs),
(322,1006,o),
(402,898,o),
(546,838,o),
(641,838,qs),
(759,838,l),
(759,679,l),
(641,679,ls),
(532,679,o),
(369,613,o),
(276,497,o),
(276,417,qs),
(276,331,o),
(362,203,o),
(516,133,o),
(617,133,qs),
(723,133,o),
(874,212,o),
(952,360,o),
(952,464,q),
(1133,464,l),
(1133,321,o),
(1000,101,o),
(766,-24,o),
(613,-24,qs)
);
}
);
width = 1241;
}
);
unicode = 400;
},
{
glyphname = uni0191;
layers = (
{
layerId = "2FE1F5E8-0BE1-472C-82D2-406E458C4580";
shapes = (
{
closed = 1;
nodes = (
(-139,-97,l),
(-122,-97,o),
(-49,-97,o),
(-4,-97,qs),
(38,-97,o),
(80,-57,o),
(80,-16,qs),
(80,111,l),
(491,111,l),
(491,-38,ls),
(491,-226,o),
(285,-415,o),
(75,-415,qs),
(6,-415,o),
(-106,-415,o),
(-139,-415,q)
);
},
{
closed = 1;
nodes = (
(80,0,l),
(80,1478,l),
(1190,1478,l),
(1190,1129,l),
(491,1129,l),
(491,867,l),
(1150,867,l),
(1150,531,l),
(491,531,l),
(491,0,l)
);
}
);
width = 1230;
},
{
layerId = "7F7FF3B5-2624-4A00-8D8B-13060CA2B611";
shapes = (
{
closed = 1;
nodes = (
(-54,-260,l),
(-38,-260,o),
(30,-260,o),
(45,-260,qs),
(109,-260,o),
(159,-214,o),
(159,-161,qs),
(159,127,l),
(337,127,l),
(337,-169,ls),
(337,-289,o),
(194,-415,o),
(56,-415,qs),
(22,-415,o),
(-34,-415,o),
(-54,-415,q)
);
},
{
closed = 1;
nodes = (
(159,0,l),
(159,1478,l),
(1088,1478,l),
(1088,1320,l),
(337,1320,l),
(337,837,l),
(1029,837,l),
(1029,678,l),
(337,678,l),
(337,0,l)
);
}
);
width = 1151;
}
);
unicode = 401;
},
{
glyphname = florin;
layers = (
{
layerId = "2FE1F5E8-0BE1-472C-82D2-406E458C4580";
shapes = (
{
closed = 1;
nodes = (
(905,1074,l),
(905,809,l),
(680,809,l),
(680,5,ls),
(680,-201,o),
(460,-415,o),
(264,-415,qs),
(222,-415,o),
(140,-411,o),
(91,-401,q),
(105,-107,l),
(125,-111,o),
(175,-119,o),
(198,-119,qs),
(273,-119,o),
(302,-50,o),
(302,5,qs),
(302,809,l),
(144,809,l),
(144,1074,l),
(302,1074,l),
(302,1151,l),
(303,1345,o),
(548,1544,o),
(770,1544,qs),
(820,1544,o),
(900,1534,o),
(943,1526,q),
(923,1244,l),
(900,1250,o),
(853,1253,o),
(810,1253,qs),
(752,1253,o),
(680,1202,o),
(680,1151,qs),
(680,1074,l)
);
}
);
width = 1034;
},
{
layerId = "7F7FF3B5-2624-4A00-8D8B-13060CA2B611";
shapes = (
{
closed = 1;
nodes = (
(517,1074,l),
(517,927,l),
(315,927,l),
(315,-71,ls),
(315,-239,o),
(151,-415,o),
(0,-415,qs),
(-31,-415,o),
(-84,-411,o),
(-113,-401,q),
(-98,-246,l),
(-83,-252,o),
(-14,-256,o),
(0,-256,qs),
(58,-256,o),
(136,-159,o),
(136,-71,qs),
(136,927,l),
(-44,927,l),
(-44,1074,l),
(136,1074,l),
(136,1183,l),
(135,1359,o),
(311,1543,o),
(444,1543,qs),
(486,1543,o),
(587,1529,o),
(614,1518,q),
(570,1364,l),
(556,1367,o),
(517,1373,o),
(491,1373,qs),
(404,1373,o),
(315,1279,o),
(315,1183,qs),
(315,1074,l)
);
}
);
width = 684;
}
);
unicode = 402;
},
{
glyphname = uni0193;
layers = (
{
layerId = "2FE1F5E8-0BE1-472C-82D2-406E458C4580";
shapes = (
{
closed = 1;
nodes = (
(1043,968,l),
(1043,1285,ls),
(1043,1475,o),
(1235,1662,o),
(1445,1662,qs),
(1512,1662,o),
(1625,1662,o),
(1658,1662,q),
(1658,1351,l),
(1640,1351,o),
(1569,1351,o),
(1524,1351,qs),
(1480,1351,o),
(1437,1307,o),
(1437,1264,qs),
(1437,968,l)
);
},
{
closed = 1;
nodes = (
(546,-24,o),
(219,163,o),
(40,505,o),
(40,739,qs),
(40,986,o),
(230,1326,o),
(557,1503,o),
(758,1503,qs),
(894,1503,o),
(1131,1427,o),
(1316,1285,o),
(1428,1089,o),
(1437,968,q),
(1017,968,l),
(1009,1010,o),
(971,1076,o),
(910,1121,o),
(830,1146,o),
(775,1146,qs),
(670,1146,o),
(529,1051,o),
(457,869,o),
(457,739,qs),
(457,608,o),
(530,426,o),
(675,333,o),
(780,333,qs),
(867,333,o),
(986,384,o),
(1046,478,o),
(1046,539,q),
(1131,531,l),
(778,531,l),
(778,825,l),
(1449,825,l),
(1449,612,ls),
(1449,420,o),
(1278,134,o),
(971,-24,o),
(767,-24,qs)
);
}
);
width = 1504;
},
{
layerId = "7F7FF3B5-2624-4A00-8D8B-13060CA2B611";
shapes = (
{
closed = 1;
nodes = (
(1227,1000,l),
(1227,1416,ls),
(1227,1538,o),
(1371,1662,o),
(1509,1662,qs),
(1543,1662,o),
(1588,1662,o),
(1609,1662,q),
(1609,1516,l),
(1593,1516,o),
(1524,1516,o),
(1509,1516,qs),
(1446,1516,o),
(1392,1470,o),
(1392,1416,qs),
(1392,1000,l)
);
},
{
closed = 1;
nodes = (
(581,-24,o),
(276,172,o),
(102,516,o),
(102,739,qs),
(102,963,o),
(274,1306,o),
(581,1503,o),
(777,1503,qs),
(896,1503,o),
(1101,1429,o),
(1264,1296,o),
(1373,1111,o),
(1392,1000,q),
(1212,1000,l),
(1195,1075,o),
(1117,1197,o),
(1001,1286,o),
(859,1336,o),
(777,1336,qs),
(630,1336,o),
(404,1184,o),
(280,916,o),
(280,739,qs),
(280,563,o),
(404,294,o),
(630,144,o),
(777,144,qs),
(901,144,o),
(1104,254,o),
(1225,453,o),
(1225,583,q),
(1282,581,l),
(838,581,l),
(838,740,l),
(1402,740,l),
(1402,580,ls),
(1402,406,o),
(1236,134,o),
(953,-24,o),
(777,-24,qs)
);
}
);
width = 1509;
}
);
unicode = 403;
},
{
glyphname = uni0194;
layers = (
{
layerId = "2FE1F5E8-0BE1-472C-82D2-406E458C4580";
shapes = (
{
closed = 1;
nodes = (
(82,1478,l),
(544,1478,l),
(925,680,ls),
(1030,462,o),
(1170,134,o),
(1240,-89,o),
(1240,-151,qs),
(1240,-232,o),
(1134,-362,o),
(945,-439,o),
(818,-439,qs),
(625,-439,o),
(382,-278,o),
(382,-139,qs),
(382,-113,o),
(396,-49,o),
(434,57,o),
(507,228,o),
(627,491,o),
(717,682,qs),
(1089,1478,l),
(1553,1478,l),
(859,167,l),
(835,120,o),
(798,19,o),
(778,-78,o),
(778,-117,qs),
(778,-151,o),
(797,-184,o),
(818,-184,qs),
(839,-184,o),
(859,-152,o),
(859,-114,qs),
(859,-75,o),
(839,22,o),
(803,124,o),
(779,167,q)
);
}
);
width = 1637;
},
{
layerId = "7F7FF3B5-2624-4A00-8D8B-13060CA2B611";
shapes = (
{
closed = 1;
nodes = (
(0,1478,l),
(194,1478,l),
(699,280,ls),
(755,148,o),
(841,-29,o),
(888,-150,o),
(888,-196,qs),
(888,-273,o),
(824,-382,o),
(706,-439,o),
(621,-439,qs),
(495,-439,o),
(353,-313,o),
(353,-196,qs),
(353,-167,o),
(371,-103,o),
(402,-24,o),
(446,75,o),
(504,201,o),
(538,280,qs),
(1048,1478,l),
(1242,1478,l),
(653,113,ls),
(617,29,o),
(564,-87,o),
(533,-168,o),
(533,-196,qs),
(533,-230,o),
(581,-278,o),
(621,-278,qs),
(660,-278,o),
(709,-228,o),
(709,-196,qs),
(709,-168,o),
(681,-90,o),
(630,26,o),
(591,113,q)
);
}
);
width = 1243;
}
);
unicode = 404;
},
{
glyphname = uni0195;
layers = (
{
layerId = "2FE1F5E8-0BE1-472C-82D2-406E458C4580";
shapes = (
{
closed = 1;
nodes = (
(1137,-24,o),
(916,91,o),
(806,294,o),
(806,426,qs),
(806,580,ls),
(806,660,o),
(720,752,o),
(644,752,qs),
(596,752,o),
(523,710,o),
(482,633,o),
(482,580,qs),
(482,0,l),
(85,0,l),
(85,1478,l),
(482,1478,l),
(482,849,l),
(484,849,l),
(522,953,o),
(692,1072,o),
(813,1072,qs),
(929,1072,o),
(1105,966,o),
(1203,779,o),
(1203,660,qs),
(1203,426,ls),
(1203,390,o),
(1230,333,o),
(1281,303,o),
(1316,303,qs),
(1398,303,o),
(1493,471,o),
(1533,787,o),
(1533,1005,qs),
(1533,1048,l),
(1930,1048,l),
(1930,1005,ls),
(1930,663,o),
(1811,205,o),
(1538,-24,o),
(1304,-24,qs)
);
}
);
width = 2014;
},
{
layerId = "7F7FF3B5-2624-4A00-8D8B-13060CA2B611";
shapes = (
{
closed = 1;
nodes = (
(1112,-20,o),
(945,76,o),
(845,279,o),
(845,439,qs),
(845,639,ls),
(845,775,o),
(706,912,o),
(588,912,qs),
(511,912,o),
(382,852,o),
(306,720,o),
(306,613,qs),
(306,0,l),
(137,0,l),
(137,1478,l),
(306,1478,l),
(306,879,l),
(310,879,l),
(344,956,o),
(499,1067,o),
(622,1067,qs),
(729,1067,o),
(906,975,o),
(1014,791,o),
(1014,651,qs),
(1014,439,ls),
(1014,309,o),
(1085,177,o),
(1184,133,o),
(1226,133,qs),
(1317,133,o),
(1472,291,o),
(1568,652,o),
(1568,958,qs),
(1568,1048,l),
(1737,1048,l),
(1737,958,ls),
(1737,604,o),
(1599,174,o),
(1363,-20,o),
(1215,-20,qs)
);
}
);
width = 1874;
}
);
unicode = 405;
},
{
glyphname = uni0198;
layers = (
{
layerId = "2FE1F5E8-0BE1-472C-82D2-406E458C4580";
shapes = (
{
closed = 1;
nodes = (
(80,0,l),
(80,1478,l),
(481,1478,l),
(481,907,l),
(501,907,l),
(919,1331,ls),
(1008,1421,o),
(1203,1504,o),
(1416,1486,o),
(1533,1424,q),
(1413,1143,l),
(1344,1176,o),
(1263,1134,o),
(1216,1087,qs),
(918,786,l),
(1520,0,l),
(1040,0,l),
(659,501,l),
(481,315,l),
(481,0,l)
);
}
);
width = 1526;
},
{
layerId = "7F7FF3B5-2624-4A00-8D8B-13060CA2B611";
shapes = (
{
closed = 1;
nodes = (
(159,0,l),
(159,1478,l),
(337,1478,l),
(337,744,l),
(355,744,l),
(941,1391,ls),
(999,1454,o),
(1133,1504,o),
(1269,1483,o),
(1327,1441,q),
(1256,1307,l),
(1209,1339,o),
(1109,1324,o),
(1054,1264,qs),
(633,812,l),
(1253,0,l),
(1036,0,l),
(522,687,l),
(337,479,l),
(337,0,l)
);
}
);
width = 1326;
}
);
unicode = 408;
},
{
glyphname = uni0199;
layers = (
{
layerId = "2FE1F5E8-0BE1-472C-82D2-406E458C4580";
shapes = (
{
closed = 1;
nodes = (
(85,825,l),
(85,1101,ls),
(85,1291,o),
(279,1478,o),
(488,1478,qs),
(555,1478,o),
(670,1478,o),
(702,1478,q),
(702,1167,l),
(685,1167,o),
(613,1167,o),
(568,1167,qs),
(525,1167,o),
(482,1123,o),
(482,1079,qs),
(482,825,l)
);
},
{
closed = 1;
nodes = (
(441,238,l),
(441,707,l),
(486,707,l),
(752,1048,l),
(1200,1048,l),
(756,493,l),
(645,493,l)
);
},
{
closed = 1;
nodes = (
(85,0,l),
(85,1048,l),
(482,1048,l),
(482,0,l)
);
},
{
closed = 1;
nodes = (
(762,0,l),
(511,406,l),
(769,685,l),
(1213,0,l)
);
}
);
width = 1193;
},
{
layerId = "7F7FF3B5-2624-4A00-8D8B-13060CA2B611";
shapes = (
{
closed = 1;
nodes = (
(137,841,l),
(137,1233,ls),
(137,1353,o),
(285,1478,o),
(422,1478,qs),
(457,1478,o),
(502,1478,o),
(522,1478,q),
(522,1331,l),
(506,1331,o),
(438,1331,o),
(422,1331,qs),
(359,1331,o),
(306,1285,o),
(306,1233,qs),
(306,841,l)
);
},
{
closed = 1;
nodes = (
(294,377,l),
(294,576,l),
(308,576,l),
(795,1048,l),
(1013,1048,l),
(503,551,l),
(487,551,l)
);
},
{
closed = 1;
nodes = (
(137,0,l),
(137,1048,l),
(306,1048,l),
(306,0,l)
);
},
{
closed = 1;
nodes = (
(833,0,l),
(405,513,l),
(525,631,l),
(1048,0,l)
);
}
);
width = 1056;
}
);
unicode = 409;
},
{
glyphname = uni019C;
layers = (
{
layerId = "2FE1F5E8-0BE1-472C-82D2-406E458C4580";
shapes = (
{
closed = 1;
nodes = (
(1463,284,l),
(1463,1478,l),
(1838,1478,l),
(1838,0,l),
(1506,0,l)
);
},
{
closed = 1;
nodes = (
(1610,502,l),
(1610,353,o),
(1506,115,o),
(1315,-20,o),
(1178,-20,qs),
(1064,-20,o),
(895,65,o),
(801,255,o),
(801,412,qs),
(801,1478,l),
(1171,1478,l),
(1171,412,ls),
(1171,373,o),
(1199,312,o),
(1260,278,o),
(1305,278,qs),
(1382,278,o),
(1472,335,o),
(1512,437,o),
(1511,501,q)
);
},
{
closed = 1;
nodes = (
(954,502,l),
(954,349,o),
(853,112,o),
(658,-20,o),
(519,-20,qs),
(387,-20,o),
(221,66,o),
(141,256,o),
(141,412,qs),
(141,1478,l),
(510,1478,l),
(510,412,ls),
(510,373,o),
(539,312,o),
(600,278,o),
(645,278,qs),
(701,278,o),
(779,311,o),
(828,370,o),
(849,453,o),
(849,501,q)
);
}
);
width = 1975;
},
{
layerId = "7F7FF3B5-2624-4A00-8D8B-13060CA2B611";
shapes = (
{
closed = 1;
nodes = (
(1454,211,l),
(1454,1478,l),
(1652,1478,l),
(1652,0,l),
(1464,0,l)
);
},
{
closed = 1;
nodes = (
(1562,502,l),
(1562,353,o),
(1479,115,o),
(1300,-20,o),
(1153,-20,qs),
(1048,-20,o),
(888,65,o),
(799,266,o),
(799,439,qs),
(799,1478,l),
(996,1478,l),
(996,439,ls),
(996,321,o),
(1052,194,o),
(1138,145,o),
(1185,145,qs),
(1292,145,o),
(1415,239,o),
(1471,401,o),
(1471,501,q)
);
},
{
closed = 1;
nodes = (
(908,502,l),
(909,353,o),
(825,115,o),
(644,-20,o),
(497,-20,qs),
(391,-20,o),
(232,66,o),
(145,267,o),
(145,439,qs),
(145,1478,l),
(343,1478,l),
(343,439,l),
(344,321,o),
(398,194,o),
(482,145,o),
(528,145,qs),
(609,145,o),
(720,199,o),
(788,295,o),
(818,425,o),
(818,501,q)
);
}
);
width = 1798;
}
);
unicode = 412;
},
{
glyphname = uni019D;
layers = (
{
layerId = "2FE1F5E8-0BE1-472C-82D2-406E458C4580";
shapes = (
{
closed = 1;
nodes = (
(-139,-97,l),
(-122,-97,o),
(-49,-97,o),
(-4,-97,qs),
(38,-97,o),
(80,-57,o),
(80,-16,qs),
(80,111,l),
(491,111,l),
(491,-38,ls),
(491,-226,o),
(285,-415,o),
(75,-415,qs),
(7,-415,o),
(-106,-415,o),
(-139,-415,q)
);
},
{
closed = 1;
nodes = (
(80,0,l),
(80,1478,l),
(501,1478,l),
(860,899,ls),
(884,860,o),
(957,730,o),
(1037,581,o),
(1072,516,q),
(1022,401,l),
(1017,482,o),
(1011,687,o),
(1008,879,o),
(1008,938,qs),
(1008,1478,l),
(1421,1478,l),
(1421,0,l),
(1000,0,l),
(664,541,ls),
(634,589,o),
(546,740,o),
(445,927,o),
(395,1024,q),
(477,1048,l),
(484,944,o),
(491,743,o),
(491,585,o),
(491,541,qs),
(491,0,l)
);
}
);
width = 1500;
},
{
layerId = "7F7FF3B5-2624-4A00-8D8B-13060CA2B611";
shapes = (
{
closed = 1;
nodes = (
(-54,-260,l),
(-38,-260,o),
(30,-260,o),
(45,-260,qs),
(109,-260,o),
(159,-214,o),
(159,-161,qs),
(159,127,l),
(337,127,l),
(337,-169,ls),
(337,-289,o),
(194,-415,o),
(56,-415,qs),
(22,-415,o),
(-34,-415,o),
(-54,-415,q)
);
},
{
closed = 1;
nodes = (
(159,0,l),
(159,1478,l),
(364,1478,l),
(973,516,ls),
(993,485,o),
(1054,383,o),
(1124,266,o),
(1155,208,q),
(1138,173,l),
(1137,225,o),
(1131,366,o),
(1129,492,o),
(1129,524,qs),
(1129,1478,l),
(1307,1478,l),
(1307,0,l),
(1100,0,l),
(559,856,l),
(537,889,o),
(462,1011,o),
(362,1176,o),
(305,1275,q),
(326,1322,l),
(331,1206,o),
(335,1026,o),
(337,896,o),
(337,858,qs),
(337,0,l)
);
}
);
width = 1468;
}
);
unicode = 413;
},
{
glyphname = Ohorn;
layers = (
{
layerId = "7F7FF3B5-2624-4A00-8D8B-13060CA2B611";
shapes = (
{
closed = 1;
nodes = (
(773,1503,l),
(834,1503,o),
(920,1495,o),
(1011,1485,o),
(1148,1478,o),
(1258,1478,qs),
(1277,1478,o),
(1277,1496,qs),
(1277,1717,l),
(1446,1717,l),
(1446,1508,ls),
(1446,1425,o),
(1362,1340,o),
(1277,1340,qs),
(1234,1340,o),
(1164,1345,o),
(1068,1350,o),
(907,1355,o),
(773,1355,q)
);
},
{
closed = 1;
nodes = (
(577,-24,o),
(274,173,o),
(102,517,o),
(102,739,qs),
(102,962,o),
(274,1305,o),
(577,1503,o),
(773,1503,qs),
(970,1503,o),
(1273,1305,o),
(1446,962,o),
(1446,739,qs),
(1446,517,o),
(1273,173,o),
(970,-24,o),
(773,-24,qs)
);
},
{
closed = 1;
nodes = (
(907,144,o),
(1131,281,o),
(1266,547,o),
(1266,739,qs),
(1266,930,o),
(1131,1197,o),
(907,1336,o),
(773,1336,qs),
(639,1336,o),
(415,1197,o),
(280,930,o),
(280,739,qs),
(280,547,o),
(415,281,o),
(639,144,o),
(773,144,qs)
);
}
);
width = 1547;
},
{
layerId = "2FE1F5E8-0BE1-472C-82D2-406E458C4580";
shapes = (
{
closed = 1;
nodes = (
(758,1503,l),
(800,1503,o),
(874,1495,o),
(948,1485,o),
(1037,1478,o),
(1099,1478,qs),
(1131,1478,o),
(1131,1511,qs),
(1131,1717,l),
(1476,1717,l),
(1476,1458,ls),
(1476,1347,o),
(1327,1248,o),
(1220,1248,qs),
(1163,1248,o),
(1048,1256,o),
(931,1265,o),
(816,1273,o),
(758,1273,q)
);
},
{
closed = 1;
nodes = (
(556,-24,o),
(230,153,o),
(40,492,o),
(40,739,qs),
(40,986,o),
(230,1326,o),
(556,1503,o),
(758,1503,qs),
(960,1503,o),
(1285,1326,o),
(1476,986,o),
(1476,739,qs),
(1476,491,o),
(1285,152,o),
(960,-24,o),
(758,-24,qs)
);
},
{
closed = 1;
nodes = (
(856,333,o),
(990,431,o),
(1059,611,o),
(1059,739,qs),
(1059,866,o),
(990,1049,o),
(856,1146,o),
(758,1146,qs),
(661,1146,o),
(527,1049,o),
(457,866,o),
(457,739,qs),
(457,611,o),
(527,431,o),
(661,333,o),
(758,333,qs)
);
}
);
width = 1516;
}
);
unicode = 416;
},
{
glyphname = ohorn;
layers = (
{
layerId = "7F7FF3B5-2624-4A00-8D8B-13060CA2B611";
shapes = (
{
closed = 1;
nodes = (
(570,1072,l),
(618,1072,o),
(666,1067,o),
(711,1060,o),
(794,1056,o),
(879,1056,qs),
(911,1056,o),
(911,1086,qs),
(911,1285,l),
(1071,1285,l),
(1071,1097,ls),
(1071,1022,o),
(990,952,o),
(902,952,qs),
(818,952,o),
(655,952,o),
(570,952,q)
);
},
{
closed = 1;
nodes = (
(424,-24,o),
(206,115,o),
(84,362,o),
(84,522,qs),
(84,682,o),
(206,930,o),
(424,1072,o),
(570,1072,qs),
(715,1072,o),
(933,930,o),
(1056,682,o),
(1056,522,qs),
(1056,362,o),
(933,115,o),
(715,-24,o),
(570,-24,qs)
);
},
{
closed = 1;
nodes = (
(669,129,o),
(811,226,o),
(885,403,o),
(885,522,qs),
(885,642,o),
(811,819,o),
(669,919,o),
(570,919,qs),
(471,919,o),
(330,820,o),
(255,642,o),
(255,522,qs),
(255,402,o),
(330,226,o),
(470,129,o),
(570,129,qs)
);
}
);
width = 1140;
},
{
layerId = "2FE1F5E8-0BE1-472C-82D2-406E458C4580";
shapes = (
{
closed = 1;
nodes = (
(617,1072,l),
(663,1072,o),
(740,1065,o),
(805,1056,o),
(860,1049,o),
(883,1049,qs),
(930,1049,o),
(930,1096,qs),
(930,1285,l),
(1229,1285,l),
(1229,1096,ls),
(1229,987,o),
(1077,858,o),
(948,858,qs),
(866,858,o),
(700,858,o),
(617,858,q)
);
},
{
closed = 1;
nodes = (
(447,-24,o),
(190,110,o),
(45,356,o),
(45,524,qs),
(45,691,o),
(190,938,o),
(447,1072,o),
(617,1072,qs),
(789,1072,o),
(1045,938,o),
(1189,691,o),
(1189,524,qs),
(1189,356,o),
(1045,110,o),
(789,-24,o),
(617,-24,qs)
);
},
{
closed = 1;
nodes = (
(665,286,o),
(742,339,o),
(789,445,o),
(789,524,qs),
(789,603,o),
(742,709,o),
(665,762,o),
(617,762,qs),
(571,762,o),
(491,709,o),
(446,603,o),
(446,524,qs),
(446,445,o),
(491,339,o),
(571,286,o),
(617,286,qs)
);
}
);
width = 1235;
}
);
unicode = 417;
},
{
glyphname = uni01A2;
layers = (
{
layerId = "2FE1F5E8-0BE1-472C-82D2-406E458C4580";
shapes = (
{
closed = 1;
nodes = (
(1351,958,l),
(1351,176,l),
(1312,135,o),
(1147,45,o),
(911,-20,o),
(764,-20,qs),
(601,-20,o),
(344,75,o),
(167,256,o),
(73,519,o),
(73,685,qs),
(73,769,l),
(468,770,l),
(468,685,l),
(469,567,o),
(524,387,o),
(658,288,o),
(778,288,qs),
(849,288,o),
(950,321,o),
(976,337,q),
(976,958,l)
);
},
{
closed = 1;
nodes = (
(1351,531,l),
(976,526,l),
(976,1143,l),
(942,1169,o),
(835,1189,o),
(779,1189,qs),
(653,1189,o),
(519,1096,o),
(468,920,o),
(468,794,qs),
(468,690,l),
(73,692,l),
(73,794,ls),
(73,962,o),
(167,1224,o),
(344,1405,o),
(601,1498,o),
(764,1498,qs),
(912,1498,o),
(1148,1434,o),
(1313,1344,o),
(1351,1302,q)
);
},
{
closed = 1;
nodes = (
(1883,1478,l),
(1883,-415,l),
(1514,-415,l),
(1514,1008,l),
(1139,825,l),
(1139,1256,l),
(1605,1478,l)
);
}
);
width = 1962;
},
{
layerId = "7F7FF3B5-2624-4A00-8D8B-13060CA2B611";
shapes = (
{
closed = 1;
nodes = (
(1216,754,l),
(1216,196,l),
(1172,128,o),
(1020,30,o),
(827,-20,o),
(719,-20,qs),
(572,-20,o),
(344,76,o),
(184,257,o),
(102,512,o),
(102,673,qs),
(102,796,l),
(306,799,l),
(306,673,l),
(307,506,o),
(401,270,o),
(590,145,o),
(730,145,qs),
(819,145,o),
(971,196,o),
(1020,248,q),
(1020,754,l)
);
},
{
closed = 1;
nodes = (
(1216,736,l),
(1020,736,l),
(1020,1226,l),
(978,1276,o),
(825,1331,o),
(734,1331,qs),
(593,1331,o),
(402,1213,o),
(306,978,o),
(306,806,qs),
(306,690,l),
(102,690,l),
(102,806,ls),
(102,968,o),
(188,1226,o),
(352,1405,o),
(588,1498,o),
(736,1498,qs),
(839,1498,o),
(1028,1445,o),
(1174,1347,o),
(1216,1282,q)
);
},
{
closed = 1;
nodes = (
(1556,1478,l),
(1556,-415,l),
(1358,-415,l),
(1358,1282,l),
(1126,1198,l),
(1126,1365,l),
(1404,1478,l)
);
}
);
width = 1716;
}
);
unicode = 418;
},
{
glyphname = uni01A3;
layers = (
{
layerId = "2FE1F5E8-0BE1-472C-82D2-406E458C4580";
shapes = (
{
closed = 1;
nodes = (
(639,280,o),
(702,303,o),
(720,326,q),
(720,680,l),
(1094,680,l),
(1094,246,l),
(1057,175,o),
(940,54,o),
(751,-20,o),
(605,-20,qs),
(427,-20,o),
(191,120,o),
(73,369,o),
(73,528,qs),
(73,546,ls),
(73,720,o),
(191,978,o),
(427,1124,o),
(605,1124,qs),
(736,1124,o),
(936,1020,o),
(1067,878,o),
(1094,818,q),
(1094,597,l),
(720,633,l),
(720,759,l),
(700,792,o),
(639,825,o),
(590,825,qs),
(522,825,o),
(460,752,o),
(442,625,o),
(442,546,qs),
(442,528,ls),
(442,470,o),
(456,356,o),
(520,280,o),
(595,280,qs)
);
},
{
closed = 1;
nodes = (
(1560,1109,l),
(1560,-415,l),
(1185,-415,l),
(1185,712,l),
(935,641,l),
(935,954,l),
(1318,1109,l)
);
}
);
width = 1632;
},
{
layerId = "7F7FF3B5-2624-4A00-8D8B-13060CA2B611";
shapes = (
{
closed = 1;
nodes = (
(577,139,o),
(646,163,o),
(677,183,q),
(677,541,l),
(876,541,l),
(876,134,l),
(837,89,o),
(731,20,o),
(601,-20,o),
(522,-20,qs),
(367,-20,o),
(156,129,o),
(49,374,o),
(49,516,qs),
(49,558,ls),
(49,715,o),
(154,971,o),
(370,1123,o),
(531,1123,qs),
(608,1123,o),
(734,1087,o),
(838,1017,o),
(876,970,q),
(876,506,l),
(677,506,l),
(677,919,l),
(648,940,o),
(573,965,o),
(526,965,qs),
(418,965,o),
(296,849,o),
(248,663,o),
(248,558,qs),
(248,516,l),
(249,397,o),
(318,228,o),
(445,139,o),
(531,139,qs)
);
},
{
closed = 1;
nodes = (
(1193,1109,l),
(1193,-415,l),
(996,-415,l),
(996,852,l),
(779,725,l),
(779,977,l),
(1036,1109,l)
);
}
);
width = 1243;
}
);
unicode = 419;
},
{
glyphname = uni01A4;
layers = (
{
layerId = "2FE1F5E8-0BE1-472C-82D2-406E458C4580";
shapes = (
{
closed = 1;
nodes = (
(24,1010,l),
(24,1129,ls),
(24,1280,o),
(185,1478,o),
(335,1478,qs),
(560,1478,l),
(560,1141,l),
(484,1141,ls),
(454,1141,o),
(419,1107,o),
(419,1076,qs),
(419,1010,l)
);
},
{
closed = 1;
nodes = (
(555,0,l),
(555,1478,l),
(1184,1478,ls),
(1361,1478,o),
(1618,1352,o),
(1759,1121,o),
(1759,963,qs),
(1759,805,o),
(1618,572,o),
(1361,446,o),
(1184,446,qs),
(793,446,l),
(793,786,l),
(1153,786,ls),
(1216,786,o),
(1305,830,o),
(1355,908,o),
(1355,963,qs),
(1355,1017,o),
(1305,1096,o),
(1216,1139,o),
(1153,1139,qs),
(968,1139,l),
(968,0,l)
);
}
);
width = 1792;
},
{
layerId = "7F7FF3B5-2624-4A00-8D8B-13060CA2B611";
shapes = (
{
closed = 1;
nodes = (
(56,1042,l),
(56,1225,ls),
(56,1352,o),
(195,1478,o),
(337,1478,qs),
(437,1478,l),
(437,1320,l),
(337,1320,ls),
(273,1320,o),
(221,1274,o),
(221,1220,qs),
(221,1042,l)
);
},
{
closed = 1;
nodes = (
(437,0,l),
(437,1478,l),
(967,1478,ls),
(1121,1478,o),
(1346,1369,o),
(1469,1168,o),
(1469,1030,qs),
(1469,891,o),
(1343,690,o),
(1114,581,o),
(958,581,qs),
(526,581,l),
(526,740,l),
(961,740,ls),
(1064,740,o),
(1212,810,o),
(1293,941,o),
(1293,1030,qs),
(1293,1120,o),
(1212,1250,o),
(1064,1320,o),
(961,1320,qs),
(615,1320,l),
(615,0,l)
);
}
);
width = 1546;
}
);
unicode = 420;
},
{
glyphname = uni01A5;
layers = (
{
layerId = "2FE1F5E8-0BE1-472C-82D2-406E458C4580";
shapes = (
{
closed = 1;
nodes = (
(85,825,l),
(85,1101,ls),
(85,1291,o),
(279,1478,o),
(488,1478,qs),
(555,1478,o),
(670,1478,o),
(702,1478,q),
(702,1167,l),
(685,1167,o),
(613,1167,o),
(568,1167,qs),
(525,1167,o),
(482,1123,o),
(482,1079,qs),
(482,825,l)
);
},
{
closed = 1;
nodes = (
(85,-415,l),
(85,1048,l),
(479,1048,l),
(479,918,l),
(483,918,l),
(513,968,o),
(599,1037,o),
(709,1072,o),
(776,1072,qs),
(908,1072,o),
(1109,932,o),
(1225,687,o),
(1225,526,qs),
(1225,359,o),
(1112,112,o),
(909,-24,o),
(772,-24,qs),
(702,-24,o),
(591,18,o),
(510,97,o),
(486,154,q),
(482,154,l),
(482,-415,l)
);
},
{
closed = 1;
nodes = (
(709,288,o),
(784,347,o),
(823,454,o),
(823,526,qs),
(823,599,o),
(784,704,o),
(709,762,o),
(654,762,qs),
(601,762,o),
(516,704,o),
(468,599,o),
(468,526,qs),
(468,454,o),
(516,347,o),
(601,288,o),
(654,288,qs)
);
}
);
width = 1271;
},
{
layerId = "7F7FF3B5-2624-4A00-8D8B-13060CA2B611";
shapes = (
{
closed = 1;
nodes = (
(137,841,l),
(137,1233,ls),
(137,1353,o),
(285,1478,o),
(422,1478,qs),
(457,1478,o),
(502,1478,o),
(522,1478,q),
(522,1331,l),
(506,1331,o),
(438,1331,o),
(422,1331,qs),
(359,1331,o),
(306,1285,o),
(306,1233,qs),
(306,841,l)
);
},
{
closed = 1;
nodes = (
(137,-415,l),
(137,1048,l),
(302,1048,l),
(302,894,l),
(303,894,l),
(337,951,o),
(441,1029,o),
(568,1067,o),
(635,1067,qs),
(772,1067,o),
(977,930,o),
(1089,686,o),
(1089,524,qs),
(1089,362,o),
(977,118,o),
(772,-20,o),
(635,-20,qs),
(568,-20,o),
(446,19,o),
(345,98,o),
(308,159,q),
(306,159,l),
(306,-415,l)
);
},
{
closed = 1;
nodes = (
(700,132,o),
(839,222,o),
(919,396,o),
(919,524,qs),
(919,653,o),
(839,828,o),
(700,918,o),
(610,918,qs),
(511,918,o),
(370,819,o),
(292,643,o),
(292,524,qs),
(292,405,o),
(370,229,o),
(511,132,o),
(610,132,qs)
);
}
);
width = 1174;
}
);
unicode = 421;
},
{
glyphname = uni01A6;
layers = (
{
layerId = "2FE1F5E8-0BE1-472C-82D2-406E458C4580";
shapes = (
{
closed = 1;
nodes = (
(78,1377,l),
(78,1580,l),
(462,1580,l),
(462,1377,l)
);
},
{
closed = 1;
nodes = (
(78,1478,l),
(689,1478,ls),
(863,1478,o),
(1125,1377,o),
(1268,1183,o),
(1268,1040,qs),
(1268,906,o),
(1189,736,o),
(1048,633,o),
(954,595,q),
(821,513,l),
(315,513,l),
(313,823,l),
(689,823,ls),
(751,823,o),
(837,862,o),
(881,939,o),
(881,992,qs),
(881,1048,o),
(836,1126,o),
(750,1167,o),
(689,1167,qs),
(466,1167,l),
(466,0,l),
(78,0,l)
);
},
{
closed = 1;
nodes = (
(1082,-342,l),
(570,635,l),
(980,635,l),
(1496,-326,l),
(1496,-342,l)
);
}
);
width = 1573;
},
{
layerId = "7F7FF3B5-2624-4A00-8D8B-13060CA2B611";
shapes = (
{
closed = 1;
nodes = (
(89,1380,l),
(89,1580,l),
(298,1580,l),
(298,1380,l)
);
},
{
closed = 1;
nodes = (
(89,1478,l),
(571,1478,l),
(736,1479,o),
(963,1380,o),
(1079,1187,o),
(1079,1044,qs),
(1079,945,o),
(1000,780,o),
(851,666,o),
(744,637,q),
(690,617,l),
(252,617,l),
(252,779,l),
(571,779,l),
(673,780,o),
(809,850,o),
(876,970,o),
(876,1044,qs),
(876,1126,o),
(814,1246,o),
(680,1312,o),
(571,1312,qs),
(298,1312,l),
(298,0,l),
(89,0,l)
);
},
{
closed = 1;
nodes = (
(1117,-357,l),
(577,659,l),
(794,659,l),
(1338,-348,l),
(1338,-357,l)
);
}
);
width = 1428;
}
);
unicode = 422;
},
{
glyphname = uni01A7;
layers = (
{
layerId = "2FE1F5E8-0BE1-472C-82D2-406E458C4580";
shapes = (
{
closed = 1;
nodes = (
(492,-24,o),
(212,90,o),
(64,308,o),
(64,462,qs),
(64,551,o),
(119,690,o),
(236,795,o),
(420,868,o),
(547,891,q),
(666,914,ls),
(743,928,o),
(840,965,o),
(886,1014,o),
(886,1050,qs),
(886,1087,o),
(836,1145,o),
(748,1176,o),
(689,1176,qs),
(596,1176,o),
(482,1087,o),
(473,1010,q),
(95,1010,l),
(100,1165,o),
(246,1385,o),
(511,1503,o),
(697,1503,qs),
(877,1503,o),
(1148,1384,o),
(1301,1171,o),
(1301,1030,qs),
(1301,865,o),
(1075,645,o),
(860,604,qs),
(713,576,ls),
(631,561,o),
(523,522,o),
(471,467,o),
(471,433,qs),
(471,393,o),
(526,334,o),
(624,302,o),
(689,302,qs),
(764,302,o),
(874,348,o),
(936,433,o),
(939,491,q),
(1328,491,l),
(1328,327,o),
(1182,94,o),
(899,-24,o),
(693,-24,qs)
);
}
);
width = 1392;
},
{
layerId = "7F7FF3B5-2624-4A00-8D8B-13060CA2B611";
shapes = (
{
closed = 1;
nodes = (
(464,-24,o),
(224,85,o),
(89,279,o),
(89,406,qs),
(89,484,o),
(141,611,o),
(245,710,o),
(403,785,o),
(511,812,qs),
(680,854,ls),
(788,880,o),
(919,946,o),
(977,1031,o),
(977,1088,qs),
(977,1162,o),
(891,1276,o),
(746,1339,o),
(649,1339,qs),
(500,1339,o),
(315,1181,o),
(308,1042,q),
(131,1042,l),
(134,1184,o),
(263,1390,o),
(489,1503,o),
(643,1503,qs),
(798,1503,o),
(1028,1397,o),
(1153,1208,o),
(1153,1079,qs),
(1153,928,o),
(952,742,o),
(727,687,qs),
(561,646,l),
(455,621,o),
(326,551,o),
(268,461,o),
(268,399,qs),
(268,320,o),
(357,203,o),
(517,139,o),
(625,139,qs),
(744,139,o),
(911,219,o),
(1000,372,o),
(1000,477,q),
(1183,477,l),
(1183,323,o),
(1046,98,o),
(796,-24,o),
(625,-24,qs)
);
}
);
width = 1274;
}
);
unicode = 423;
},
{
glyphname = uni01A8;
layers = (
{
layerId = "2FE1F5E8-0BE1-472C-82D2-406E458C4580";
shapes = (
{
closed = 1;
nodes = (
(64,700,l),
(68,869,o),
(340,1068,o),
(578,1068,qs),
(734,1068,o),
(958,984,o),
(1076,825,o),
(1076,718,qs),
(1076,591,o),
(909,433,o),
(752,405,q),
(555,374,l),
(497,364,o),
(439,331,o),
(439,304,qs),
(439,273,o),
(503,237,o),
(561,237,qs),
(626,237,o),
(701,295,o),
(709,343,q),
(1099,343,l),
(1089,233,o),
(948,65,o),
(711,-26,o),
(555,-26,qs),
(399,-26,o),
(164,69,o),
(36,239,o),
(36,351,qs),
(36,468,o),
(194,607,o),
(359,634,qs),
(583,671,l),
(631,680,o),
(680,714,o),
(680,740,qs),
(680,769,o),
(619,807,o),
(561,807,qs),
(504,807,o),
(426,745,o),
(424,700,q)
);
}
);
width = 1136;
},
{
layerId = "7F7FF3B5-2624-4A00-8D8B-13060CA2B611";
shapes = (
{
closed = 1;
nodes = (
(107,734,l),
(112,890,o),
(331,1067,o),
(493,1067,qs),
(607,1067,o),
(778,991,o),
(876,856,o),
(876,767,qs),
(876,652,o),
(726,500,o),
(580,464,q),
(412,424,l),
(342,410,o),
(254,342,o),
(254,282,qs),
(254,213,o),
(380,131,o),
(488,131,qs),
(599,131,o),
(723,221,o),
(732,313,q),
(899,313,l),
(891,200,o),
(779,51,o),
(596,-20,o),
(484,-20,qs),
(371,-20,o),
(190,51,o),
(85,189,o),
(85,286,qs),
(85,393,o),
(225,541,o),
(375,575,q),
(544,615,ls),
(621,633,o),
(710,707,o),
(710,767,qs),
(710,834,o),
(591,918,o),
(493,918,qs),
(393,918,o),
(273,818,o),
(272,734,q)
);
}
);
width = 988;
}
);
unicode = 424;
},
{
glyphname = uni01AA;
layers = (
{
layerId = "2FE1F5E8-0BE1-472C-82D2-406E458C4580";
shapes = (
{
closed = 1;
nodes = (
(690,888,l),
(1064,1092,l),
(1064,7,ls),
(1064,-63,o),
(1140,-141,o),
(1209,-141,qs),
(1256,-141,o),
(1316,-133,q),
(1316,-424,l),
(1274,-433,o),
(1191,-439,o),
(1141,-439,qs),
(934,-439,o),
(690,-207,o),
(690,7,qs)
);
},
{
closed = 1;
nodes = (
(131,1215,o),
(255,1420,o),
(466,1544,o),
(595,1544,qs),
(723,1544,o),
(938,1420,o),
(1064,1215,o),
(1064,1092,qs),
(1064,968,o),
(938,759,o),
(723,637,o),
(595,637,qs),
(468,637,o),
(258,759,o),
(132,967,o),
(131,1092,q)
);
},
{
closed = 1;
nodes = (
(657,947,o),
(742,1021,o),
(740,1094,q),
(740,1167,o),
(655,1236,o),
(600,1236,qs),
(532,1236,o),
(453,1164,o),
(453,1094,qs),
(453,1021,o),
(532,947,o),
(600,947,qs)
);
}
);
width = 1447;
},
{
layerId = "7F7FF3B5-2624-4A00-8D8B-13060CA2B611";
shapes = (
{
closed = 1;
nodes = (
(570,1126,l),
(769,1209,l),
(769,-69,ls),
(769,-172,o),
(837,-252,o),
(901,-252,qs),
(931,-252,o),
(965,-243,q),
(965,-399,l),
(943,-406,o),
(876,-415,o),
(849,-415,qs),
(709,-415,o),
(570,-238,o),
(570,-69,qs)
);
},
{
closed = 1;
nodes = (
(93,1303,o),
(184,1455,o),
(337,1546,o),
(432,1546,qs),
(523,1546,o),
(676,1455,o),
(769,1303,o),
(769,1209,qs),
(769,1117,o),
(676,964,o),
(523,872,o),
(432,872,qs),
(337,872,o),
(184,964,o),
(93,1117,o),
(93,1209,qs)
);
},
{
closed = 1;
nodes = (
(492,1054,o),
(581,1132,o),
(581,1213,qs),
(581,1291,o),
(492,1371,o),
(432,1371,qs),
(366,1371,o),
(278,1291,o),
(278,1213,qs),
(278,1132,o),
(366,1054,o),
(432,1054,qs)
);
}
);
width = 1058;
}
);
unicode = 426;
},
{
glyphname = uni01AB;
layers = (
{
layerId = "2FE1F5E8-0BE1-472C-82D2-406E458C4580";
shapes = (
{
closed = 1;
nodes = (
(194,-104,l),
(213,-104,o),
(283,-104,o),
(330,-104,qs),
(377,-104,o),
(428,-58,o),
(428,-16,qs),
(428,31,l),
(810,31,l),
(810,-38,ls),
(810,-226,o),
(618,-415,o),
(409,-415,qs),
(342,-415,o),
(227,-415,o),
(194,-415,q)
);
},
{
closed = 1;
nodes = (
(810,1048,l),
(810,747,l),
(20,747,l),
(20,1048,l)
);
},
{
closed = 1;
nodes = (
(196,1335,l),
(593,1335,l),
(593,382,ls),
(593,336,o),
(631,302,o),
(685,302,qs),
(711,302,o),
(794,302,o),
(810,302,q),
(810,0,l),
(783,0,o),
(659,0,o),
(591,0,qs),
(384,0,o),
(196,150,o),
(196,313,qs)
);
}
);
width = 849;
},
{
layerId = "7F7FF3B5-2624-4A00-8D8B-13060CA2B611";
shapes = (
{
closed = 1;
nodes = (
(214,-268,l),
(229,-268,o),
(304,-268,o),
(320,-268,qs),
(382,-268,o),
(433,-222,o),
(433,-169,qs),
(433,24,l),
(594,24,l),
(594,-169,ls),
(594,-289,o),
(450,-415,o),
(313,-415,qs),
(279,-415,o),
(234,-415,o),
(214,-415,q)
);
},
{
closed = 1;
nodes = (
(594,1048,l),
(594,903,l),
(26,903,l),
(26,1048,l)
);
},
{
closed = 1;
nodes = (
(214,1335,l),
(382,1335,l),
(382,254,ls),
(382,194,o),
(433,145,o),
(498,145,qs),
(521,145,o),
(572,145,o),
(594,145,q),
(594,0,l),
(569,0,o),
(507,0,o),
(482,0,qs),
(346,0,o),
(214,118,o),
(214,236,qs)
);
}
);
width = 657;
}
);
unicode = 427;
},
{
glyphname = uni01AC;
layers = (
{
layerId = "2FE1F5E8-0BE1-472C-82D2-406E458C4580";
shapes = (
{
closed = 1;
nodes = (
(119,1010,l),
(119,1129,ls),
(119,1146,o),
(121,1177,o),
(123,1193,qs),
(131,1255,o),
(178,1359,o),
(255,1435,o),
(363,1478,o),
(432,1478,qs),
(446,1478,o),
(474,1478,o),
(488,1478,qs),
(655,1478,l),
(655,1141,l),
(621,1141,o),
(574,1141,o),
(542,1135,o),
(524,1120,o),
(515,1091,o),
(513,1044,o),
(513,1010,q)
);
},
{
closed = 1;
nodes = (
(655,1478,l),
(655,1478,l),
(1513,1478,l),
(1513,1129,l),
(1067,1129,l),
(1067,0,l),
(655,0,l),
(655,1232,l)
);
}
);
width = 1552;
},
{
layerId = "7F7FF3B5-2624-4A00-8D8B-13060CA2B611";
shapes = (
{
closed = 1;
nodes = (
(51,1042,l),
(51,1134,ls),
(51,1157,o),
(51,1202,o),
(51,1225,qs),
(51,1286,o),
(83,1376,o),
(142,1436,o),
(226,1470,o),
(278,1475,qs),
(292,1477,o),
(319,1478,o),
(333,1478,qs),
(433,1478,l),
(433,1320,l),
(369,1320,o),
(287,1316,o),
(239,1298,o),
(218,1263,o),
(213,1201,o),
(216,1108,o),
(216,1042,q)
);
},
{
closed = 1;
nodes = (
(433,1320,l),
(433,1478,l),
(1178,1478,l),
(1178,1320,l),
(714,1320,l),
(714,0,l),
(536,0,l),
(536,1320,l)
);
}
);
width = 1241;
}
);
unicode = 428;
},
{
glyphname = uni01AD;
layers = (
{
layerId = "2FE1F5E8-0BE1-472C-82D2-406E458C4580";
shapes = (
{
closed = 1;
nodes = (
(181,1048,l),
(578,1048,l),
(578,406,ls),
(578,350,o),
(626,302,o),
(685,302,qs),
(711,302,o),
(778,302,o),
(794,302,q),
(794,0,l),
(768,0,o),
(643,0,o),
(575,0,qs),
(371,0,o),
(181,162,o),
(181,337,qs)
);
},
{
closed = 1;
nodes = (
(794,1048,l),
(794,747,l),
(20,747,l),
(20,1048,l)
);
},
{
closed = 1;
nodes = (
(181,825,l),
(181,1101,ls),
(181,1291,o),
(374,1478,o),
(583,1478,qs),
(651,1478,o),
(765,1478,o),
(798,1478,q),
(798,1167,l),
(779,1167,o),
(709,1167,o),
(663,1167,qs),
(621,1167,o),
(578,1123,o),
(578,1079,qs),
(578,825,l)
);
}
);
width = 838;
},
{
layerId = "7F7FF3B5-2624-4A00-8D8B-13060CA2B611";
shapes = (
{
closed = 1;
nodes = (
(180,1048,l),
(349,1048,l),
(349,270,ls),
(349,203,o),
(404,145,o),
(471,145,qs),
(494,145,o),
(539,145,o),
(561,145,q),
(561,0,l),
(534,0,o),
(482,0,o),
(456,0,qs),
(329,0,o),
(180,132,o),
(180,244,qs)
);
},
{
closed = 1;
nodes = (
(561,1048,l),
(561,903,l),
(26,903,l),
(26,1048,l)
);
},
{
closed = 1;
nodes = (
(180,841,l),
(180,1233,ls),
(180,1353,o),
(328,1478,o),
(465,1478,qs),
(500,1478,o),
(544,1478,o),
(565,1478,q),
(565,1331,l),
(549,1331,o),
(481,1331,o),
(465,1331,qs),
(402,1331,o),
(349,1285,o),
(349,1233,qs),
(349,841,l)
);
}
);
width = 627;
}
);
unicode = 429;
},
{
glyphname = uni01AE;
layers = (
{
layerId = "2FE1F5E8-0BE1-472C-82D2-406E458C4580";
shapes = (
{
closed = 1;
nodes = (
(652,-415,o),
(461,-226,o),
(461,-38,qs),
(461,198,l),
(874,198,l),
(874,-7,ls),
(874,-51,o),
(916,-95,o),
(957,-95,qs),
(1002,-95,o),
(1074,-95,o),
(1092,-95,q),
(1092,-415,l),
(1058,-415,o),
(928,-415,o),
(861,-415,qs)
);
},
{
closed = 1;
nodes = (
(40,1129,l),
(40,1478,l),
(1295,1478,l),
(1295,1129,l),
(874,1129,l),
(874,0,l),
(461,0,l),
(461,1129,l)
);
}
);
width = 1335;
},
{
layerId = "7F7FF3B5-2624-4A00-8D8B-13060CA2B611";
shapes = (
{
closed = 1;
nodes = (
(688,-415,o),
(544,-289,o),
(544,-169,qs),
(544,151,l),
(722,151,l),
(722,-169,ls),
(722,-222,o),
(772,-268,o),
(836,-268,qs),
(850,-268,o),
(919,-268,o),
(934,-268,q),
(934,-415,l),
(913,-415,o),
(859,-415,o),
(825,-415,qs)
);
},
{
closed = 1;
nodes = (
(62,1320,l),
(62,1478,l),
(1203,1478,l),
(1203,1320,l),
(722,1320,l),
(722,0,l),
(544,0,l),
(544,1320,l)
);
}
);
width = 1265;
}
);
unicode = 430;
},
{
glyphname = Uhorn;
layers = (
{
layerId = "7F7FF3B5-2624-4A00-8D8B-13060CA2B611";
shapes = (
{
closed = 1;
nodes = (
(1124,1340,l),
(1124,1478,l),
(1297,1478,ls),
(1315,1478,o),
(1315,1496,qs),
(1315,1717,l),
(1483,1717,l),
(1483,1508,ls),
(1483,1425,o),
(1399,1340,o),
(1315,1340,qs)
);
},
{
closed = 1;
nodes = (
(553,-24,o),
(294,113,o),
(151,351,o),
(151,502,qs),
(151,1478,l),
(330,1478,l),
(330,516,ls),
(330,408,o),
(424,239,o),
(603,144,o),
(727,144,qs),
(852,144,o),
(1029,239,o),
(1124,408,o),
(1124,516,qs),
(1124,1478,l),
(1302,1478,l),
(1302,502,ls),
(1302,351,o),
(1159,113,o),
(901,-24,o),
(727,-24,qs)
);
}
);
width = 1454;
},
{
layerId = "2FE1F5E8-0BE1-472C-82D2-406E458C4580";
shapes = (
{
closed = 1;
nodes = (
(952,1248,l),
(952,1478,l),
(1130,1478,ls),
(1162,1478,o),
(1162,1511,qs),
(1162,1717,l),
(1507,1717,l),
(1507,1458,ls),
(1507,1347,o),
(1359,1248,o),
(1252,1248,qs)
);
},
{
closed = 1;
nodes = (
(523,-24,o),
(237,112,o),
(80,359,o),
(80,526,qs),
(80,1478,l),
(481,1478,l),
(481,560,ls),
(481,491,o),
(542,384,o),
(648,323,o),
(717,323,qs),
(786,323,o),
(891,383,o),
(952,490,o),
(952,560,qs),
(952,1478,l),
(1353,1478,l),
(1353,526,ls),
(1353,359,o),
(1196,112,o),
(909,-24,o),
(717,-24,qs)
);
}
);
width = 1433;
}
);
unicode = 431;
},
{
glyphname = uhorn;
layers = (
{
layerId = "7F7FF3B5-2624-4A00-8D8B-13060CA2B611";
shapes = (
{
closed = 1;
nodes = (
(927,928,l),
(927,1048,l),
(980,1048,ls),
(1014,1048,o),
(1014,1082,qs),
(1014,1285,l),
(1173,1285,l),
(1173,1097,ls),
(1173,1013,o),
(1089,928,o),
(1005,928,qs)
);
},
{
closed = 1;
nodes = (
(417,-20,o),
(242,72,o),
(137,258,o),
(137,397,qs),
(137,1048,l),
(306,1048,l),
(306,409,ls),
(306,273,o),
(437,134,o),
(553,134,qs),
(631,134,o),
(755,196,o),
(831,330,o),
(831,435,qs),
(831,1048,l),
(999,1048,l),
(999,0,l),
(834,0,l),
(834,254,l),
(881,254,l),
(831,113,o),
(646,-20,o),
(523,-20,qs)
);
}
);
width = 1236;
},
{
layerId = "2FE1F5E8-0BE1-472C-82D2-406E458C4580";
shapes = (
{
closed = 1;
nodes = (
(941,818,l),
(941,1048,l),
(1031,1048,ls),
(1063,1048,o),
(1063,1079,qs),
(1063,1285,l),
(1361,1285,l),
(1361,1028,ls),
(1361,918,o),
(1212,818,o),
(1105,818,qs)
);
},
{
closed = 1;
nodes = (
(323,-24,o),
(164,76,o),
(85,261,o),
(85,387,qs),
(85,1048,l),
(482,1048,l),
(482,477,ls),
(482,398,o),
(559,312,o),
(629,312,qs),
(675,312,o),
(740,352,o),
(774,433,o),
(774,491,qs),
(774,1048,l),
(1171,1048,l),
(1171,0,l),
(779,0,l),
(779,289,l),
(831,289,l),
(781,152,o),
(598,-24,o),
(439,-24,qs)
);
}
);
width = 1401;
}
);
unicode = 432;
},
{
glyphname = uni01B1;
layers = (
{
layerId = "2FE1F5E8-0BE1-472C-82D2-406E458C4580";
shapes = (
{
closed = 1;
nodes = (
(57,830,o),
(194,1070,o),
(310,1143,q),
(310,1155,l),
(56,1155,l),
(56,1478,l),
(682,1478,l),
(682,1074,l),
(616,1048,o),
(520,939,o),
(466,789,o),
(466,700,qs),
(466,593,o),
(549,426,o),
(692,332,o),
(786,332,qs),
(880,332,o),
(1026,426,o),
(1107,593,o),
(1107,700,qs),
(1107,789,o),
(1054,939,o),
(958,1048,o),
(890,1074,q),
(890,1478,l),
(1516,1478,l),
(1516,1155,l),
(1262,1155,l),
(1262,1143,l),
(1381,1070,o),
(1516,830,o),
(1516,660,qs),
(1516,462,o),
(1329,154,o),
(1000,-20,o),
(786,-20,qs),
(626,-20,o),
(359,81,o),
(164,264,o),
(56,511,o),
(56,660,q)
);
}
);
width = 1573;
},
{
layerId = "7F7FF3B5-2624-4A00-8D8B-13060CA2B611";
shapes = (
{
closed = 1;
nodes = (
(102,908,o),
(267,1215,o),
(412,1307,q),
(412,1320,l),
(102,1320,l),
(102,1478,l),
(627,1478,l),
(627,1276,l),
(531,1236,o),
(372,1068,o),
(273,838,o),
(273,699,qs),
(273,545,o),
(397,293,o),
(614,147,o),
(754,147,qs),
(895,147,o),
(1110,293,o),
(1233,545,o),
(1233,699,qs),
(1233,838,o),
(1137,1068,o),
(977,1236,o),
(881,1276,q),
(881,1478,l),
(1407,1478,l),
(1407,1320,l),
(1097,1320,l),
(1097,1307,l),
(1240,1217,o),
(1407,908,o),
(1407,699,qs),
(1407,488,o),
(1239,164,o),
(945,-20,o),
(754,-20,qs),
(611,-20,o),
(373,85,o),
(197,277,o),
(102,542,o),
(102,699,qs)
);
}
);
width = 1509;
}
);
unicode = 433;
},
{
glyphname = uni01B2;
layers = (
{
layerId = "2FE1F5E8-0BE1-472C-82D2-406E458C4580";
shapes = (
{
closed = 1;
nodes = (
(511,-20,o),
(238,105,o),
(85,345,o),
(85,516,qs),
(85,1478,l),
(471,1478,l),
(471,516,ls),
(471,412,o),
(571,288,o),
(690,288,qs),
(811,288,o),
(903,412,o),
(903,516,qs),
(903,1050,l),
(902,1127,o),
(858,1181,o),
(784,1181,qs),
(761,1181,o),
(711,1176,o),
(680,1173,q),
(680,1480,l),
(727,1491,o),
(800,1498,o),
(843,1498,qs),
(1063,1498,o),
(1295,1266,o),
(1295,1050,qs),
(1295,516,l),
(1296,346,o),
(1147,106,o),
(877,-20,o),
(690,-20,qs)
);
}
);
width = 1377;
},
{
layerId = "7F7FF3B5-2624-4A00-8D8B-13060CA2B611";
shapes = (
{
closed = 1;
nodes = (
(471,-20,o),
(234,88,o),
(94,306,o),
(94,468,qs),
(94,1478,l),
(300,1478,l),
(300,468,l),
(301,301,o),
(477,145,o),
(621,145,qs),
(766,145,o),
(941,301,o),
(941,468,qs),
(941,1151,l),
(942,1250,o),
(857,1327,o),
(779,1327,qs),
(768,1327,o),
(727,1325,o),
(712,1322,q),
(712,1481,l),
(735,1487,o),
(801,1498,o),
(836,1498,qs),
(968,1498,o),
(1149,1319,o),
(1149,1151,qs),
(1149,468,ls),
(1149,306,o),
(1001,88,o),
(761,-20,o),
(621,-20,qs)
);
}
);
width = 1243;
}
);
unicode = 434;
},
{
glyphname = uni01B3;
layers = (
{
layerId = "2FE1F5E8-0BE1-472C-82D2-406E458C4580";
shapes = (
{
closed = 1;
nodes = (
(818,843,l),
(818,878,l),
(854,878,l),
(854,843,l)
);
},
{
closed = 1;
nodes = (
(36,1478,l),
(466,1478,l),
(836,863,l),
(1082,1271,ls),
(1154,1389,o),
(1353,1494,o),
(1574,1494,o),
(1679,1458,q),
(1597,1163,l),
(1511,1187,o),
(1425,1142,o),
(1380,1072,q),
(1034,546,l),
(1034,0,l),
(637,0,l),
(637,546,l)
);
}
);
width = 1684;
},
{
layerId = "7F7FF3B5-2624-4A00-8D8B-13060CA2B611";
shapes = (
{
closed = 1;
nodes = (
(641,754,l),
(641,789,l),
(677,789,l),
(677,754,l)
);
},
{
closed = 1;
nodes = (
(36,1478,l),
(240,1478,l),
(659,774,l),
(990,1331,l),
(1037,1412,o),
(1163,1494,o),
(1305,1500,o),
(1374,1467,q),
(1327,1322,l),
(1276,1344,o),
(1183,1320,o),
(1143,1256,q),
(749,610,l),
(749,0,l),
(570,0,l),
(570,610,l)
);
}
);
width = 1395;
}
);
unicode = 435;
},
{
glyphname = uni01B4;
layers = (
{
layerId = "2FE1F5E8-0BE1-472C-82D2-406E458C4580";
shapes = (
{
closed = 1;
nodes = (
(794,1048,l),
(811,1101,ls),
(849,1221,o),
(928,1390,o),
(1075,1478,o),
(1214,1478,qs),
(1281,1478,o),
(1403,1478,o),
(1434,1478,q),
(1434,1167,l),
(1416,1167,o),
(1345,1167,o),
(1300,1167,qs),
(1273,1167,o),
(1242,1147,o),
(1225,1107,o),
(1215,1079,qs),
(1203,1048,l)
);
},
{
closed = 1;
nodes = (
(126,-113,l),
(285,-113,ls),
(322,-113,o),
(360,-94,o),
(382,-52,o),
(393,-16,qs),
(398,0,l),
(-4,1048,l),
(410,1048,l),
(542,603,l),
(572,498,o),
(630,282,o),
(657,174,q),
(543,174,l),
(569,282,o),
(624,499,o),
(657,603,q),
(794,1048,l),
(1203,1048,l),
(759,-133,l),
(722,-235,o),
(625,-359,o),
(490,-415,o),
(396,-415,qs),
(331,-415,o),
(192,-415,o),
(126,-415,q)
);
}
);
width = 1474;
},
{
layerId = "7F7FF3B5-2624-4A00-8D8B-13060CA2B611";
shapes = (
{
closed = 1;
nodes = (
(842,1048,l),
(912,1233,l),
(942,1307,o),
(1008,1418,o),
(1116,1478,o),
(1206,1478,qs),
(1240,1478,o),
(1290,1478,o),
(1310,1478,q),
(1310,1331,l),
(1296,1331,o),
(1226,1331,o),
(1212,1331,qs),
(1174,1331,o),
(1129,1305,o),
(1099,1253,o),
(1084,1210,q),
(1022,1048,l)
);
},
{
closed = 1;
nodes = (
(145,-266,l),
(248,-266,ls),
(281,-266,o),
(332,-239,o),
(373,-184,o),
(391,-140,q),
(447,8,l),
(42,1048,l),
(224,1048,l),
(450,444,l),
(480,370,o),
(532,218,o),
(558,144,q),
(512,144,l),
(538,218,o),
(592,370,o),
(621,444,q),
(842,1048,l),
(1022,1048,l),
(539,-194,ls),
(511,-265,o),
(425,-362,o),
(314,-415,o),
(248,-415,qs),
(223,-415,o),
(171,-415,o),
(145,-415,q)
);
}
);
width = 1364;
}
);
unicode = 436;
},
{
glyphname = uni01B7;
layers = (
{
layerId = "7F7FF3B5-2624-4A00-8D8B-13060CA2B611";
shapes = (
{
closed = 1;
nodes = (
(245,64,l),
(251,-37,o),
(365,-191,o),
(544,-276,o),
(649,-276,qs),
(775,-276,o),
(958,-155,o),
(1058,48,o),
(1058,176,qs),
(1058,321,o),
(931,531,o),
(711,647,o),
(566,647,qs),
(455,647,l),
(455,796,l),
(949,1304,l),
(949,1316,l),
(147,1316,l),
(147,1478,l),
(1197,1478,l),
(1197,1347,l),
(675,801,l),
(675,789,l),
(840,780,o),
(1092,622,o),
(1235,353,o),
(1235,179,qs),
(1235,45,o),
(1150,-181,o),
(994,-345,o),
(778,-437,o),
(645,-437,qs),
(486,-437,o),
(229,-311,o),
(70,-85,o),
(62,64,q)
);
}
);
width = 1326;
},
{
layerId = "2FE1F5E8-0BE1-472C-82D2-406E458C4580";
shapes = (
{
closed = 1;
nodes = (
(442,134,l),
(445,64,o),
(507,-45,o),
(611,-107,o),
(677,-107,qs),
(754,-107,o),
(861,-25,o),
(918,119,o),
(918,213,qs),
(918,317,o),
(849,467,o),
(730,548,o),
(653,548,qs),
(461,548,l),
(461,825,l),
(818,1137,l),
(818,1149,l),
(119,1149,l),
(119,1478,l),
(1300,1478,l),
(1300,1189,l),
(847,799,l),
(847,786,l),
(996,770,o),
(1216,618,o),
(1338,375,o),
(1338,221,qs),
(1338,76,o),
(1240,-164,o),
(1065,-342,o),
(825,-439,o),
(683,-439,qs),
(500,-439,o),
(211,-291,o),
(43,-30,o),
(40,134,q)
);
}
);
width = 1372;
}
);
unicode = 439;
},
